<svg width="180" height="50" viewBox="0 0 180 50" fill="none" xmlns="http://www.w3.org/2000/svg">
<g clip-path="url(#clip0_1462_656)">
<path d="M62.4283 21.56C62.4283 25.7 59.3083 28.64 54.9183 28.64H51.8283L51.1783 34.77H47.4883L49.5083 15.67H56.2583C60.1083 15.67 62.4483 17.93 62.4183 21.56M55.5883 19.06H52.8483L52.1983 25.25H54.9183C57.0383 25.25 58.6883 24.31 58.6883 21.94C58.7183 19.87 57.4783 19.06 55.5983 19.06H55.5883Z" fill="white" fill-opacity="0.7"/>
<path d="M62.3789 28.56C62.3789 24.12 65.5589 20.52 69.7189 20.52C72.2989 20.52 73.7289 21.89 74.0489 22.67H74.2089L74.4189 20.79H78.0289L76.5789 34.78H72.9489L73.1589 32.9H72.9989C71.8889 34.31 70.1689 35.11 68.3789 35.05C65.3089 35.05 62.3789 32.84 62.3789 28.57M73.8089 27.31C73.9489 25.49 72.5889 23.9 70.7689 23.76C70.6189 23.75 70.4689 23.75 70.3189 23.76C67.9189 23.76 65.9889 25.7 65.9889 28.1C65.9889 28.16 65.9889 28.22 65.9889 28.28C65.8389 30.09 67.1789 31.67 68.9889 31.82C69.1489 31.83 69.2989 31.84 69.4589 31.82C71.8689 31.82 73.8189 29.87 73.8189 27.47C73.8189 27.42 73.8189 27.36 73.8189 27.3L73.8089 27.31Z" fill="white" fill-opacity="0.7"/>
<path d="M94.6791 20.78L84.6691 39.88H81.0391L83.8891 34.5L79.5391 20.78H83.2491L86.0691 30.47L90.9091 20.78H94.6791Z" fill="white" fill-opacity="0.7"/>
<path d="M104.58 35.04C99.6596 35.04 95.6996 31.65 95.6996 26.22C95.6496 20.3 100.42 15.45 106.34 15.41H106.43C109.04 15.41 112.11 16.32 113.8 19.55L110.98 21.43C110.01 19.77 108.2 18.78 106.27 18.88C102.52 18.88 99.4696 21.91 99.4596 25.66C99.4596 25.71 99.4596 25.77 99.4596 25.82C99.2696 28.86 101.59 31.47 104.62 31.65C104.79 31.66 104.96 31.66 105.13 31.65C107.66 31.77 109.92 30.06 110.48 27.59H105.86L106.16 24.5H114.34C114.52 31.11 109.81 35.04 104.57 35.04" fill="white" fill-opacity="0.7"/>
<path d="M126.259 20.68L125.879 24.07C125.549 24.01 125.219 23.98 124.889 23.99C122.279 23.99 120.559 25.69 120.129 28.27L119.459 34.78H115.859L117.309 20.79H120.909L120.529 24.47C121.229 22.29 122.709 20.52 125.289 20.52C125.619 20.51 125.949 20.56 126.259 20.68Z" fill="white" fill-opacity="0.7"/>
<path d="M126.449 28.42C126.449 24.06 129.979 20.51 134.349 20.51C134.379 20.51 134.409 20.51 134.439 20.51C138.049 20.42 141.049 23.28 141.139 26.9C141.139 26.99 141.139 27.07 141.139 27.16C141.139 31.52 137.599 35.05 133.239 35.04H133.179C129.559 35.13 126.549 32.27 126.459 28.65C126.459 28.57 126.459 28.5 126.459 28.42M137.649 27.26C137.739 25.4 136.309 23.81 134.449 23.71C134.379 23.71 134.309 23.71 134.239 23.71C131.859 23.74 129.949 25.7 129.979 28.08C129.979 28.16 129.979 28.24 129.979 28.31C129.879 30.16 131.309 31.73 133.149 31.83C133.219 31.83 133.289 31.83 133.369 31.83C135.749 31.82 137.669 29.87 137.659 27.49C137.659 27.41 137.659 27.33 137.659 27.25L137.649 27.26Z" fill="white" fill-opacity="0.7"/>
<path d="M157.11 20.78L155.66 34.77H152.03L152.22 32.91C151.18 34.3 149.52 35.1 147.78 35.04C144.93 35.04 142.61 33.26 143.05 29.01L143.91 20.78H147.51L146.73 28.42C146.51 30.46 147.51 31.81 149.42 31.81C151.33 31.81 152.46 30.46 152.68 28.42L153.49 20.78H157.12H157.11Z" fill="white" fill-opacity="0.7"/>
<path d="M159.83 20.78H163.43L163.21 22.66H163.37C164.53 21.26 166.28 20.46 168.1 20.51C171.11 20.51 174.02 22.63 174.02 26.89C174.02 31.35 170.9 35.04 166.84 35.04C164.28 35.04 162.7 33.67 162.32 32.89H162.19L161.44 39.88H157.84L159.83 20.78ZM170.43 27.24C170.57 25.45 169.24 23.89 167.45 23.75C167.3 23.74 167.16 23.74 167.01 23.75C164.59 23.73 162.62 25.67 162.59 28.08C162.59 28.16 162.59 28.24 162.59 28.32C162.45 30.11 163.78 31.67 165.57 31.81C165.72 31.82 165.86 31.82 166.01 31.81C168.43 31.83 170.4 29.9 170.43 27.48C170.43 27.4 170.43 27.32 170.43 27.24Z" fill="white" fill-opacity="0.7"/>
<path d="M24.32 7C14.21 7 6 15.2 6 25.32C6 29.82 7.65 34.16 10.64 37.51L7.8 43.65L16 41.65C25.02 46.25 36.05 42.66 40.65 33.64C45.24 24.62 41.66 13.59 32.64 8.99C30.07 7.68 27.22 7 24.32 7ZM12.03 23.83H14.23L18.02 26.96L26.36 17.84H28.53L18.34 32.8L12.02 23.83H12.03ZM26.44 32.8L23.09 28.04L24.72 25.81L26.12 26.96L34.46 17.84H36.63L26.44 32.8Z" fill="white" fill-opacity="0.7"/>
</g>
<defs>
<clipPath id="clip0_1462_656">
<rect width="168.03" height="36.65" fill="white" transform="translate(6 7)"/>
</clipPath>
</defs>
</svg>
