<svg width="180" height="50" viewBox="0 0 180 50" fill="none" xmlns="http://www.w3.org/2000/svg">
<path d="M168.805 26.5567C168.805 25.3958 169.746 24.4414 170.9 24.4414C172.055 24.4414 172.996 25.3958 172.996 26.5567C172.996 27.7175 172.047 28.6821 170.9 28.6821C169.754 28.6821 168.805 27.7277 168.805 26.5567ZM169.223 26.5567C169.223 27.5111 169.968 28.2574 170.9 28.2574C171.833 28.2574 172.567 27.5111 172.567 26.5567C172.567 25.6023 171.832 24.8662 170.9 24.8662C169.969 24.8662 169.223 25.6124 169.223 26.5567ZM170.136 27.5297V25.5566H171.077C171.553 25.5566 171.785 25.8866 171.785 26.2656C171.785 26.5398 171.663 26.7953 171.413 26.907L171.842 27.5297H171.376L170.994 26.973H170.547V27.5297H170.136ZM170.547 25.9526V26.5854H171.022C171.246 26.5854 171.376 26.4348 171.376 26.2639C171.376 26.1032 171.246 25.9526 171.022 25.9526H170.547Z" fill="white" fill-opacity="0.7"/>
<path d="M29.2611 37.0347C29.4948 35.7554 30.3925 34.911 31.8058 34.911C33.139 34.911 33.8815 35.7351 33.9132 36.8503H32.827C32.7686 36.302 32.4098 35.906 31.7407 35.906C30.9665 35.906 30.4659 36.3477 30.3224 37.1735C30.1789 37.9519 30.4909 38.6576 31.3953 38.6576C32.0978 38.6576 32.5216 38.3022 32.7218 37.7269H33.8215C33.5027 38.947 32.6501 39.6611 31.3102 39.6611C29.8535 39.6611 28.9741 38.5527 29.2611 37.0347Z" fill="white" fill-opacity="0.7"/>
<path d="M36.6184 37.5881L37.0739 34.9753H38.1285L37.6529 37.6609C37.5545 38.2481 37.6913 38.6965 38.3687 38.6965C39.0462 38.6965 39.2665 38.2413 39.3649 37.6609L39.8338 34.9753H40.8883L40.3944 37.7997C40.1992 38.8675 39.6853 39.6611 38.3003 39.6611C36.9154 39.6611 36.4065 38.8235 36.6217 37.5898L36.6184 37.5881Z" fill="white" fill-opacity="0.7"/>
<path d="M43.1716 38.0315H44.2778C44.1811 38.573 44.5632 38.7574 45.0454 38.7574C45.5276 38.7574 45.833 38.5984 45.8981 38.2955C45.9765 37.8995 45.4876 37.7607 44.9486 37.6287C44.0175 37.3901 43.5103 36.9231 43.6805 36.0719C43.8173 35.3848 44.3763 34.911 45.5744 34.911C46.8358 34.911 47.3047 35.5304 47.1495 36.3426H46.0883C46.1534 36.0194 45.9581 35.7944 45.4642 35.7944C45.0938 35.7944 44.8135 35.906 44.7617 36.1565C44.6766 36.5322 45.0287 36.6506 45.5226 36.7843C46.5572 37.0483 47.1562 37.451 46.9793 38.3868C46.8358 39.1653 46.1984 39.6611 44.9303 39.6611C43.577 39.6611 43.0047 39.04 43.1732 38.0315H43.1716Z" fill="white" fill-opacity="0.7"/>
<path d="M50.4565 39.5951L51.0872 35.9653H49.9492L50.1111 34.9753H53.475L53.2931 35.9653H52.1351L51.4977 39.5951H50.4565Z" fill="white" fill-opacity="0.7"/>
<path d="M55.6373 37.0347C55.8709 35.7554 56.7686 34.911 58.1802 34.911C59.7154 34.911 60.5163 36.0786 60.2426 37.5103C59.9823 38.8623 59.1046 39.6611 57.693 39.6611C56.2029 39.6611 55.3503 38.5527 55.6373 37.0347ZM59.1831 37.3901C59.3333 36.5795 59.0145 35.906 58.1218 35.906C57.3409 35.906 56.8403 36.3477 56.6968 37.1735C56.5467 37.9655 56.8721 38.6576 57.7764 38.6576C58.5957 38.6576 59.0513 38.1567 59.1814 37.3901H59.1831Z" fill="white" fill-opacity="0.7"/>
<path d="M68.5491 35.7149L68.1853 39.5951H67.1441L67.5029 36.4408L66.0128 39.2448C65.8443 39.5681 65.6674 39.6341 65.4338 39.6341C65.1868 39.6341 64.9983 39.5681 64.9399 39.2448L64.4326 36.4205L63.6901 39.5951H62.6172L63.6 35.7809C63.7752 35.1209 64.0806 34.9161 64.491 34.9161C64.9532 34.9161 65.05 35.1141 65.1284 35.5236L65.6107 38.2617L67.0607 35.5236C67.341 34.9957 67.5946 34.9161 67.92 34.9161C68.3238 34.9161 68.6025 35.1141 68.5508 35.7149H68.5491Z" fill="white" fill-opacity="0.7"/>
<path d="M80.9319 35.7149L80.5681 39.5951H79.5269L79.884 36.4408L78.3939 39.2448C78.2254 39.5681 78.0485 39.6341 77.8149 39.6341C77.568 39.6341 77.3794 39.5681 77.321 39.2448L76.8138 36.4205L76.0729 39.5951H75L75.9828 35.7809C76.158 35.1209 76.465 34.9161 76.8738 34.9161C77.3361 34.9161 77.4328 35.1141 77.5113 35.5236L77.9918 38.2617L79.4435 35.5236C79.7238 34.9957 79.9775 34.9161 80.3028 34.9161C80.7066 34.9161 80.9853 35.1141 80.9336 35.7149H80.9319Z" fill="white" fill-opacity="0.7"/>
<path d="M85.5023 34.9753L85.3404 35.9128L84.6963 39.5951H83.6484L83.812 38.6576L84.456 34.9753H85.5039H85.5023Z" fill="white" fill-opacity="0.7"/>
<path d="M91.8208 34.9753H92.8754L92.1729 39.0062C92.1012 39.4225 91.8275 39.6526 91.4838 39.6526C91.2101 39.6526 91.0349 39.5477 90.9181 39.3227L89.4798 36.6642L88.9659 39.5934H87.918L88.6205 35.5812C88.6989 35.1192 88.9458 34.9144 89.2779 34.9144C89.4664 34.9144 89.6416 34.994 89.7584 35.2173L91.2869 38.0552L91.8208 34.9737V34.9753Z" fill="white" fill-opacity="0.7"/>
<path d="M97.1429 34.9753L96.981 35.9128L96.337 39.5951H95.2891L95.4526 38.6576L96.0967 34.9753H97.1446H97.1429Z" fill="white" fill-opacity="0.7"/>
<path d="M104.314 34.9753H105.368L104.804 38.1889C104.622 39.211 104.147 39.5934 103.327 39.5934H102.762L102.925 38.6559H103.244C103.569 38.6559 103.693 38.5171 103.751 38.1804L104.315 34.9736L104.314 34.9753Z" fill="white" fill-opacity="0.7"/>
<path d="M111.573 35.9653H109.426L109.276 36.8233H111.143L110.993 37.6948H109.119L108.957 38.6052H111.105L110.936 39.5951H108.431C108.009 39.5951 107.794 39.2719 107.859 38.8827L108.542 34.9771H111.749L111.573 35.967V35.9653Z" fill="white" fill-opacity="0.7"/>
<path d="M114.773 39.5951L115.404 35.9653H114.266L114.429 34.9753H117.793L117.611 35.9653H116.453L115.816 39.5951H114.775H114.773Z" fill="white" fill-opacity="0.7"/>
<path d="M123.17 37.0483C123.828 37.1871 124.068 37.7083 123.958 38.3344C123.821 39.1264 123.21 39.5951 122.194 39.5951H119.852L120.658 34.9771H122.63C123.619 34.9771 124.27 35.373 124.127 36.1785C124.048 36.654 123.709 36.9366 123.17 37.05V37.0483ZM122.156 37.5763H121.258L121.063 38.6712H122.046C122.546 38.6712 122.833 38.4867 122.885 38.1567C122.957 37.7218 122.69 37.5763 122.156 37.5763ZM121.557 35.8807L121.393 36.7843H122.304C122.722 36.7843 122.955 36.6253 123 36.3613C123.065 36.0042 122.837 35.879 122.381 35.879H121.555L121.557 35.8807Z" fill="white" fill-opacity="0.7"/>
<path d="M126.835 37.0347C127.068 35.7554 127.968 34.911 129.379 34.911C130.915 34.911 131.716 36.0786 131.442 37.5103C131.182 38.8623 130.304 39.6611 128.892 39.6611C127.402 39.6611 126.55 38.5527 126.837 37.0347H126.835ZM130.381 37.3901C130.531 36.5795 130.212 35.906 129.321 35.906C128.54 35.906 128.04 36.3477 127.896 37.1735C127.746 37.9655 128.071 38.6576 128.976 38.6576C129.795 38.6576 130.25 38.1567 130.381 37.3901Z" fill="white" fill-opacity="0.7"/>
<path d="M136.862 39.5951L136.732 38.6779H134.981L134.526 39.5951H133.395L135.502 35.6692C135.847 35.0295 136.074 34.9161 136.51 34.9161C136.842 34.9161 137.161 35.0278 137.264 35.6692L137.915 39.5951H136.86H136.862ZM135.444 37.7405H136.595L136.335 35.9264L135.444 37.7405Z" fill="white" fill-opacity="0.7"/>
<path d="M141.097 39.5951L141.728 35.9653H140.59L140.753 34.9753H144.117L143.935 35.9653H142.777L142.14 39.5951H141.099H141.097Z" fill="white" fill-opacity="0.7"/>
<path d="M146.179 38.0315H147.286C147.189 38.573 147.573 38.7574 148.053 38.7574C148.534 38.7574 148.841 38.5984 148.906 38.2955C148.984 37.8995 148.495 37.7607 147.956 37.6287C147.025 37.3901 146.518 36.9231 146.688 36.0719C146.825 35.3848 147.384 34.911 148.582 34.911C149.845 34.911 150.313 35.5304 150.157 36.3426H149.096C149.161 36.0194 148.966 35.7944 148.472 35.7944C148.102 35.7944 147.821 35.906 147.77 36.1565C147.684 36.5322 148.037 36.6506 148.53 36.7843C149.565 37.0483 150.164 37.451 149.987 38.3868C149.844 39.1653 149.206 39.6611 147.938 39.6611C146.585 39.6611 146.013 39.04 146.181 38.0315H146.179Z" fill="white" fill-opacity="0.7"/>
<path d="M33.0512 11L27.992 24.9354C27.1543 27.1218 25.0586 28.5483 22.7526 28.5483L11.5762 28.5991C9.06163 28.5991 7.32461 26.0185 8.25403 23.651L9.22182 20.9283H16.7356C16.4369 21.7473 17.0342 22.6289 17.9036 22.6289H20.268C20.9271 22.6289 21.5261 22.2347 21.7647 21.5967L25.5675 11H33.0512Z" fill="white" fill-opacity="0.7"/>
<path d="M38.0184 22.6289H46.0761L43.9219 28.55H28.0234L34.3374 11H50.246L48.1218 16.9211H40.0658L39.5869 18.2562H43.3713L42.2817 21.2921H38.4973L38.0184 22.6273V22.6289Z" fill="white" fill-opacity="0.7"/>
<path d="M49.4219 16.9211L51.5277 11H69.9291L67.8016 16.9211H61.9665L57.8266 28.55H50.2445L53.8554 18.5152L58.1937 16.9228H49.4219V16.9211Z" fill="white" fill-opacity="0.7"/>
<path d="M88.1164 21.3175L86.7999 24.9608C85.9622 27.1472 83.8664 28.5737 81.5604 28.5737H70.334C67.8194 28.5737 66.0824 25.9931 67.0118 23.6257L70.269 14.6383C71.1366 12.4519 73.2024 11.0254 75.5084 11.0254H86.7348C89.2494 11.0254 90.9864 13.606 90.057 15.9734L89.0391 18.6455H81.5254C81.8241 17.8264 81.2267 16.9448 80.3574 16.9448H77.9929C77.3338 16.9448 76.7348 17.3695 76.4962 17.977L75.3582 20.9215C75.0295 21.771 75.6269 22.6526 76.4962 22.6526H79.0025C79.6616 22.6526 80.2606 22.2584 80.4992 21.6204L80.6193 21.3175H88.1164Z" fill="white" fill-opacity="0.7"/>
<path d="M93.0964 11.0254H104.974C111.409 11.0254 113.086 20.3461 106.202 22.9572L108.212 28.5737H100.353L98.5761 23.6257H96.427L94.6516 28.5737H86.8008L93.0964 11.0254ZM97.5166 20.5898H100.393C104.166 20.5898 104.106 16.4913 101.351 16.4913H98.9866L97.5182 20.5898H97.5166Z" fill="white" fill-opacity="0.7"/>
<path d="M132.813 15.9752L129.529 25.0691C128.691 27.2555 126.595 28.682 124.289 28.682L113.123 28.5754C110.609 28.5754 108.871 25.9948 109.801 23.6274L113.025 14.64C113.892 12.4536 115.958 11.0271 118.264 11.0271H129.49C132.005 11.0271 133.742 13.6077 132.813 15.9752ZM123.113 16.9465H120.749C120.09 16.9465 119.491 17.3712 119.252 17.9787L118.197 20.9537C117.869 21.7727 118.466 22.6544 119.335 22.6544H121.7C122.359 22.6544 122.958 22.2601 123.196 21.6221L124.281 18.6776C124.58 17.8281 123.982 16.9465 123.113 16.9465Z" fill="white" fill-opacity="0.7"/>
<path d="M142.035 18.2816H143.92C153.56 18.2816 150.776 28.5737 141.526 28.5737H130.359L132.213 23.3211H141.197C142.934 23.3211 142.992 21.3175 141.107 21.3175H139.221C129.612 21.3175 132.365 11.0254 141.616 11.0254H152.812L150.943 16.278H141.945C140.238 16.278 140.149 18.2816 142.035 18.2816Z" fill="white" fill-opacity="0.7"/>
<path d="M160.718 18.2816H162.604C172.243 18.2816 169.46 28.5737 160.209 28.5737H149.043L150.897 23.3211H159.881C161.618 23.3211 161.676 21.3175 159.79 21.3175H157.905C148.295 21.3175 151.049 11.0254 160.299 11.0254H171.496L169.627 16.278H160.628C158.921 16.278 158.833 18.2816 160.718 18.2816Z" fill="white" fill-opacity="0.7"/>
</svg>
