<svg width="180" height="50" viewBox="0 0 180 50" fill="none" xmlns="http://www.w3.org/2000/svg">
<g opacity="0.7" clip-path="url(#clip0_1462_658)">
<path d="M6.00107 27.43C5.98107 26.06 6.24107 24.69 6.75107 23.42C7.22107 22.27 7.92107 21.23 8.82107 20.38C9.73107 19.53 10.7911 18.87 11.9611 18.45C13.2311 17.99 14.5711 17.76 15.9211 17.78C17.2811 17.77 18.6411 18 19.9211 18.46C21.0911 18.89 22.1711 19.55 23.0811 20.4C23.9811 21.26 24.6911 22.3 25.1511 23.45C25.6611 24.73 25.9111 26.09 25.8911 27.46C25.9111 28.82 25.6511 30.16 25.1411 31.42C24.6611 32.58 23.9511 33.63 23.0611 34.5C22.1511 35.37 21.0811 36.06 19.9011 36.51C18.6211 37 17.2711 37.24 15.9011 37.22C14.5511 37.23 13.2011 36.99 11.9411 36.5C10.7711 36.05 9.70107 35.36 8.81107 34.48C7.92107 33.6 7.22107 32.55 6.75107 31.39C6.24107 30.14 5.99107 28.79 6.00107 27.43ZM9.58107 27.43C9.57107 28.36 9.72107 29.29 10.0311 30.16C10.3211 30.96 10.7611 31.69 11.3311 32.32C11.8911 32.93 12.5811 33.42 13.3411 33.75C14.1511 34.1 15.0311 34.27 15.9211 34.26C16.8111 34.27 17.6911 34.1 18.5111 33.75C19.2811 33.42 19.9711 32.94 20.5411 32.33C21.1211 31.71 21.5611 30.97 21.8511 30.17C22.1611 29.29 22.3211 28.37 22.3111 27.44C22.3111 26.53 22.1711 25.63 21.8611 24.77C21.5711 23.98 21.1311 23.25 20.5711 22.62C20.0111 22 19.3211 21.51 18.5611 21.18C17.7311 20.82 16.8511 20.64 15.9511 20.65C15.0611 20.64 14.1711 20.81 13.3511 21.17C12.5911 21.51 11.9111 22 11.3511 22.6C10.7811 23.22 10.3411 23.95 10.0511 24.74C9.74107 25.59 9.58107 26.5 9.59107 27.41" fill="white"/>
<path d="M29.0998 18.26H35.5298C36.3798 18.26 37.2298 18.36 38.0698 18.55C38.8498 18.72 39.5898 19.02 40.2498 19.45C40.8898 19.87 41.4098 20.43 41.7798 21.1C42.1798 21.86 42.3798 22.72 42.3498 23.58C42.3998 24.78 41.9898 25.95 41.2098 26.86C40.3798 27.74 39.2998 28.34 38.1098 28.57L43.0398 36.79H39.0698L34.7898 28.94H32.3898V36.78H29.0898L29.1098 18.27L29.0998 18.26ZM35.0798 26.24C35.5498 26.24 36.0198 26.21 36.4898 26.14C36.9298 26.08 37.3598 25.95 37.7598 25.75C38.1398 25.56 38.4498 25.28 38.6898 24.93C38.9498 24.52 39.0798 24.04 39.0598 23.56C39.0798 23.12 38.9598 22.69 38.7198 22.32C38.4998 22 38.1998 21.74 37.8598 21.55C37.4898 21.35 37.0898 21.22 36.6698 21.16C36.2398 21.09 35.8098 21.06 35.3798 21.05H32.3998V26.25H35.0898L35.0798 26.24Z" fill="white"/>
<path d="M48.9591 21.16L43.2891 21.15V18.28L57.9291 18.29V21.17L52.2591 21.16L52.2391 36.8L48.9391 36.79L48.9591 21.16Z" fill="white"/>
<path d="M60.0786 18.3H63.3686V25.78L72.0186 25.79L72.0286 18.31L75.3186 18.32L75.2986 36.83L72.0086 36.82L72.0186 28.61L63.3586 28.6L63.3486 36.81H60.0586L60.0786 18.3Z" fill="white"/>
<path d="M78.5011 27.53C78.4811 26.16 78.7411 24.79 79.2511 23.52C79.7211 22.37 80.4211 21.33 81.3211 20.48C82.2311 19.63 83.2911 18.97 84.4611 18.55C85.7311 18.09 87.0711 17.86 88.4211 17.88C89.7811 17.87 91.1411 18.1 92.4211 18.56C93.5911 18.99 94.6711 19.65 95.5811 20.5C96.4811 21.36 97.1911 22.4 97.6611 23.55C98.1711 24.83 98.4211 26.19 98.4011 27.56C98.4211 28.92 98.1611 30.26 97.6511 31.52C97.1711 32.68 96.4611 33.73 95.5711 34.6C94.6611 35.48 93.5911 36.16 92.4111 36.61C91.1311 37.1 89.7811 37.34 88.4111 37.33C87.0611 37.34 85.7111 37.1 84.4511 36.61C82.0911 35.7 80.2011 33.85 79.2511 31.5C78.7411 30.24 78.4911 28.89 78.5111 27.54M82.0911 27.54C82.0811 28.47 82.2311 29.4 82.5411 30.27C82.8311 31.07 83.2711 31.8 83.8411 32.43C84.4011 33.04 85.0911 33.53 85.8511 33.86C86.6611 34.21 87.5411 34.38 88.4211 34.37C89.3111 34.38 90.1911 34.21 91.0111 33.86C91.7811 33.53 92.4711 33.05 93.0411 32.44C93.6211 31.82 94.0611 31.08 94.3511 30.28C94.6611 29.4 94.8211 28.48 94.8111 27.55C94.8111 26.64 94.6711 25.74 94.3611 24.88C94.0711 24.09 93.6311 23.36 93.0711 22.73C92.5111 22.12 91.8211 21.62 91.0611 21.29C90.2311 20.93 89.3411 20.75 88.4511 20.76C87.5611 20.75 86.6711 20.92 85.8511 21.28C85.0911 21.62 84.4111 22.11 83.8511 22.71C83.2811 23.33 82.8411 24.06 82.5511 24.85C82.2411 25.7 82.0811 26.61 82.0911 27.52" fill="white"/>
<path d="M115.329 36.88L115.339 27.57L102.889 27.56L102.879 36.86H102.309L102.329 18.35H102.909L102.899 27.03L115.339 27.05L115.349 18.37H115.929L115.899 36.88H115.329Z" fill="white"/>
<path d="M134.988 36.91L132.798 31.6H122.058L119.778 36.89H119.148L127.198 18.39H127.928L135.618 36.91H134.988ZM127.538 18.76L122.268 31.09H132.618L127.538 18.76Z" fill="white"/>
<path d="M150.58 36.7501C149.42 37.2101 148.18 37.4401 146.93 37.4401C145.62 37.4501 144.32 37.2001 143.12 36.7001C140.84 35.7501 139.05 33.8901 138.2 31.5701C137.28 29.0401 137.28 26.2601 138.21 23.7301C139.07 21.4001 140.87 19.5501 143.16 18.6101C144.37 18.1101 145.66 17.8701 146.96 17.8801C148.11 17.8801 149.24 18.0801 150.32 18.4701C151.38 18.8401 152.33 19.4601 153.1 20.2601L152.73 20.6801C152.36 20.2901 151.94 19.9501 151.49 19.6701C151.03 19.3801 150.54 19.1401 150.03 18.9501C149.53 18.7601 149.01 18.6201 148.47 18.5301C147.97 18.4401 147.46 18.4001 146.95 18.4001C145.71 18.3801 144.47 18.6301 143.33 19.1101C142.27 19.5701 141.32 20.2401 140.53 21.0801C139.74 21.9301 139.13 22.9301 138.72 24.0201C138.29 25.1801 138.06 26.4001 138.07 27.6401C138.06 28.8801 138.27 30.1101 138.69 31.2701C139.09 32.3601 139.69 33.3601 140.48 34.2101C141.26 35.0601 142.22 35.7301 143.28 36.1901C144.43 36.6801 145.67 36.9301 146.93 36.9101C148.1 36.9101 149.26 36.6801 150.34 36.2501C151.43 35.8401 152.39 35.1501 153.13 34.2501L153.55 34.6401C152.76 35.5901 151.73 36.3101 150.58 36.7401" fill="white"/>
<path d="M157.93 26.9201L167.24 18.4301H168.08L158.66 26.9201L168.53 36.9501H167.72L157.93 26.9701H157.9L157.89 36.9401H157.32L157.34 18.4301H157.91L157.9 26.9201H157.93Z" fill="white"/>
<path d="M171.03 15.1501V12.8101H172.03C172.21 12.8101 172.4 12.8201 172.58 12.8701C172.69 12.9101 172.79 12.9901 172.85 13.0901C172.92 13.2001 172.95 13.3301 172.95 13.4601C172.95 13.6201 172.9 13.7801 172.8 13.8901C172.68 14.0101 172.51 14.0901 172.33 14.1101C172.42 14.1601 172.51 14.2301 172.58 14.3101C172.68 14.4301 172.77 14.5601 172.85 14.6901L173.13 15.1501H172.56L172.22 14.6401C172.14 14.5201 172.06 14.4001 171.97 14.2901C171.93 14.2501 171.88 14.2101 171.83 14.1901C171.75 14.1701 171.67 14.1601 171.59 14.1601H171.49V15.1401H171.02L171.03 15.1501ZM171.51 13.8001H171.86C172 13.8001 172.15 13.8001 172.28 13.7701C172.33 13.7501 172.38 13.7201 172.41 13.6701C172.44 13.6201 172.46 13.5601 172.46 13.4901C172.46 13.4201 172.44 13.3501 172.4 13.3001C172.35 13.2501 172.29 13.2201 172.22 13.2101C172.18 13.2101 172.07 13.2101 171.87 13.2101H171.5V13.8001H171.51Z" fill="white"/>
<path d="M174.031 14.07C174.031 15.22 173.101 16.14 171.961 16.14C170.811 16.14 169.891 15.21 169.891 14.07C169.891 12.93 170.821 12 171.971 12C173.111 12 174.041 12.93 174.041 14.07M171.971 15.82C172.941 15.82 173.721 15.04 173.721 14.07C173.721 13.1 172.941 12.32 171.971 12.32C171.001 12.32 170.221 13.1 170.221 14.07C170.221 15.04 171.001 15.82 171.971 15.82Z" fill="white"/>
<path d="M6.00107 27.43C5.98107 26.06 6.24107 24.69 6.75107 23.42C7.22107 22.27 7.92107 21.23 8.82107 20.38C9.73107 19.53 10.7911 18.87 11.9611 18.45C13.2311 17.99 14.5711 17.76 15.9211 17.78C17.2811 17.77 18.6411 18 19.9211 18.46C21.0911 18.89 22.1711 19.55 23.0811 20.4C23.9811 21.26 24.6911 22.3 25.1511 23.45C25.6611 24.73 25.9111 26.09 25.8911 27.46C25.9111 28.82 25.6511 30.16 25.1411 31.42C24.6611 32.58 23.9511 33.63 23.0611 34.5C22.1511 35.37 21.0811 36.06 19.9011 36.51C18.6211 37 17.2711 37.24 15.9011 37.22C14.5511 37.23 13.2011 36.99 11.9411 36.5C10.7711 36.05 9.70107 35.36 8.81107 34.48C7.92107 33.6 7.22107 32.55 6.75107 31.39C6.24107 30.14 5.99107 28.79 6.00107 27.43ZM9.58107 27.43C9.57107 28.36 9.72107 29.29 10.0311 30.16C10.3211 30.96 10.7611 31.69 11.3311 32.32C11.8911 32.93 12.5811 33.42 13.3411 33.75C14.1511 34.1 15.0311 34.27 15.9211 34.26C16.8111 34.27 17.6911 34.1 18.5111 33.75C19.2811 33.42 19.9711 32.94 20.5411 32.33C21.1211 31.71 21.5611 30.97 21.8511 30.17C22.1611 29.29 22.3211 28.37 22.3111 27.44C22.3111 26.53 22.1711 25.63 21.8611 24.77C21.5711 23.98 21.1311 23.25 20.5711 22.62C20.0111 22 19.3211 21.51 18.5611 21.18C17.7311 20.82 16.8511 20.64 15.9511 20.65C15.0611 20.64 14.1711 20.81 13.3511 21.17C12.5911 21.51 11.9111 22 11.3511 22.6C10.7811 23.22 10.3411 23.95 10.0511 24.74C9.74107 25.59 9.58107 26.5 9.59107 27.41" fill="white"/>
<path d="M29.0998 18.26H35.5298C36.3798 18.26 37.2298 18.36 38.0698 18.55C38.8498 18.72 39.5898 19.02 40.2498 19.45C40.8898 19.87 41.4098 20.43 41.7798 21.1C42.1798 21.86 42.3798 22.72 42.3498 23.58C42.3998 24.78 41.9898 25.95 41.2098 26.86C40.3798 27.74 39.2998 28.34 38.1098 28.57L43.0398 36.79H39.0698L34.7898 28.94H32.3898V36.78H29.0898L29.1098 18.27L29.0998 18.26ZM35.0798 26.24C35.5498 26.24 36.0198 26.21 36.4898 26.14C36.9298 26.08 37.3598 25.95 37.7598 25.75C38.1398 25.56 38.4498 25.28 38.6898 24.93C38.9498 24.52 39.0798 24.04 39.0598 23.56C39.0798 23.12 38.9598 22.69 38.7198 22.32C38.4998 22 38.1998 21.74 37.8598 21.55C37.4898 21.35 37.0898 21.22 36.6698 21.16C36.2398 21.09 35.8098 21.06 35.3798 21.05H32.3998V26.25H35.0898L35.0798 26.24Z" fill="white"/>
<path d="M48.9591 21.16L43.2891 21.15V18.28L57.9291 18.29V21.17L52.2591 21.16L52.2391 36.8L48.9391 36.79L48.9591 21.16Z" fill="white"/>
<path d="M60.0786 18.3H63.3686V25.78L72.0186 25.79L72.0286 18.31L75.3186 18.32L75.2986 36.83L72.0086 36.82L72.0186 28.61L63.3586 28.6L63.3486 36.81H60.0586L60.0786 18.3Z" fill="white"/>
<path d="M78.5011 27.53C78.4811 26.16 78.7411 24.79 79.2511 23.52C79.7211 22.37 80.4211 21.33 81.3211 20.48C82.2311 19.63 83.2911 18.97 84.4611 18.55C85.7311 18.09 87.0711 17.86 88.4211 17.88C89.7811 17.87 91.1411 18.1 92.4211 18.56C93.5911 18.99 94.6711 19.65 95.5811 20.5C96.4811 21.36 97.1911 22.4 97.6611 23.55C98.1711 24.83 98.4211 26.19 98.4011 27.56C98.4211 28.92 98.1611 30.26 97.6511 31.52C97.1711 32.68 96.4611 33.73 95.5711 34.6C94.6611 35.48 93.5911 36.16 92.4111 36.61C91.1311 37.1 89.7811 37.34 88.4111 37.33C87.0611 37.34 85.7111 37.1 84.4511 36.61C82.0911 35.7 80.2011 33.85 79.2511 31.5C78.7411 30.24 78.4911 28.89 78.5111 27.54M82.0911 27.54C82.0811 28.47 82.2311 29.4 82.5411 30.27C82.8311 31.07 83.2711 31.8 83.8411 32.43C84.4011 33.04 85.0911 33.53 85.8511 33.86C86.6611 34.21 87.5411 34.38 88.4211 34.37C89.3111 34.38 90.1911 34.21 91.0111 33.86C91.7811 33.53 92.4711 33.05 93.0411 32.44C93.6211 31.82 94.0611 31.08 94.3511 30.28C94.6611 29.4 94.8211 28.48 94.8111 27.55C94.8111 26.64 94.6711 25.74 94.3611 24.88C94.0711 24.09 93.6311 23.36 93.0711 22.73C92.5111 22.12 91.8211 21.62 91.0611 21.29C90.2311 20.93 89.3411 20.75 88.4511 20.76C87.5611 20.75 86.6711 20.92 85.8511 21.28C85.0911 21.62 84.4111 22.11 83.8511 22.71C83.2811 23.33 82.8411 24.06 82.5511 24.85C82.2411 25.7 82.0811 26.61 82.0911 27.52" fill="white"/>
<path d="M115.329 36.88L115.339 27.57L102.889 27.56L102.879 36.86H102.309L102.329 18.35H102.909L102.899 27.03L115.339 27.05L115.349 18.37H115.929L115.899 36.88H115.329Z" fill="white"/>
<path d="M134.988 36.91L132.798 31.6H122.058L119.778 36.89H119.148L127.198 18.39H127.928L135.618 36.91H134.988ZM127.538 18.76L122.268 31.09H132.618L127.538 18.76Z" fill="white"/>
<path d="M150.58 36.7501C149.42 37.2101 148.18 37.4401 146.93 37.4401C145.62 37.4501 144.32 37.2001 143.12 36.7001C140.84 35.7501 139.05 33.8901 138.2 31.5701C137.28 29.0401 137.28 26.2601 138.21 23.7301C139.07 21.4001 140.87 19.5501 143.16 18.6101C144.37 18.1101 145.66 17.8701 146.96 17.8801C148.11 17.8801 149.24 18.0801 150.32 18.4701C151.38 18.8401 152.33 19.4601 153.1 20.2601L152.73 20.6801C152.36 20.2901 151.94 19.9501 151.49 19.6701C151.03 19.3801 150.54 19.1401 150.03 18.9501C149.53 18.7601 149.01 18.6201 148.47 18.5301C147.97 18.4401 147.46 18.4001 146.95 18.4001C145.71 18.3801 144.47 18.6301 143.33 19.1101C142.27 19.5701 141.32 20.2401 140.53 21.0801C139.74 21.9301 139.13 22.9301 138.72 24.0201C138.29 25.1801 138.06 26.4001 138.07 27.6401C138.06 28.8801 138.27 30.1101 138.69 31.2701C139.09 32.3601 139.69 33.3601 140.48 34.2101C141.26 35.0601 142.22 35.7301 143.28 36.1901C144.43 36.6801 145.67 36.9301 146.93 36.9101C148.1 36.9101 149.26 36.6801 150.34 36.2501C151.43 35.8401 152.39 35.1501 153.13 34.2501L153.55 34.6401C152.76 35.5901 151.73 36.3101 150.58 36.7401" fill="white"/>
<path d="M157.93 26.9201L167.24 18.4301H168.08L158.66 26.9201L168.53 36.9501H167.72L157.93 26.9701H157.9L157.89 36.9401H157.32L157.34 18.4301H157.91L157.9 26.9201H157.93Z" fill="white"/>
<path d="M171.03 15.1501V12.8101H172.03C172.21 12.8101 172.4 12.8201 172.58 12.8701C172.69 12.9101 172.79 12.9901 172.85 13.0901C172.92 13.2001 172.95 13.3301 172.95 13.4601C172.95 13.6201 172.9 13.7801 172.8 13.8901C172.68 14.0101 172.51 14.0901 172.33 14.1101C172.42 14.1601 172.51 14.2301 172.58 14.3101C172.68 14.4301 172.77 14.5601 172.85 14.6901L173.13 15.1501H172.56L172.22 14.6401C172.14 14.5201 172.06 14.4001 171.97 14.2901C171.93 14.2501 171.88 14.2101 171.83 14.1901C171.75 14.1701 171.67 14.1601 171.59 14.1601H171.49V15.1401H171.02L171.03 15.1501ZM171.51 13.8001H171.86C172 13.8001 172.15 13.8001 172.28 13.7701C172.33 13.7501 172.38 13.7201 172.41 13.6701C172.44 13.6201 172.46 13.5601 172.46 13.4901C172.46 13.4201 172.44 13.3501 172.4 13.3001C172.35 13.2501 172.29 13.2201 172.22 13.2101C172.18 13.2101 172.07 13.2101 171.87 13.2101H171.5V13.8001H171.51Z" fill="white"/>
<path d="M174.031 14.07C174.031 15.22 173.101 16.14 171.961 16.14C170.811 16.14 169.891 15.21 169.891 14.07C169.891 12.93 170.821 12 171.971 12C173.111 12 174.041 12.93 174.041 14.07M171.971 15.82C172.941 15.82 173.721 15.04 173.721 14.07C173.721 13.1 172.941 12.32 171.971 12.32C171.001 12.32 170.221 13.1 170.221 14.07C170.221 15.04 171.001 15.82 171.971 15.82Z" fill="white"/>
</g>
<defs>
<clipPath id="clip0_1462_658">
<rect width="168.03" height="25.44" fill="white" transform="translate(6 12)"/>
</clipPath>
</defs>
</svg>
