<svg width="180" height="50" viewBox="0 0 180 50" fill="none" xmlns="http://www.w3.org/2000/svg">
<g opacity="0.7" clip-path="url(#clip0_1462_657)">
<path d="M69.7829 17.3271C74.2508 6.74519 86.3661 1.81925 96.8413 6.33258C100.813 8.04651 104.156 10.9729 106.393 14.6991C107.134 14.8133 107.87 15.0038 108.573 15.2577C102.987 4.20605 89.5772 -0.180325 78.6306 5.46293C74.2319 7.73546 70.7004 11.4172 68.6016 15.9369C69.1483 16.2416 69.563 16.7367 69.7829 17.3271Z" fill="white"/>
<path d="M99.9627 42.9725V44.5404H98.574C98.1844 44.5404 97.8011 44.4896 97.424 44.4007C87.1248 49.2314 74.8963 44.7372 70.0766 34.3521V35.9708H69.0586C74.7769 46.9589 88.237 51.1866 99.1144 45.41C103.067 43.3089 106.303 40.0588 108.402 36.0787C107.717 36.2755 107.013 36.3961 106.303 36.4532C104.688 39.0685 102.527 41.2966 99.9627 42.9788" fill="white"/>
<path d="M95.2447 35.4883H94.4718C93.2276 35.4756 92.0588 34.9741 91.1853 34.0791C90.3119 33.184 89.8343 31.997 89.8406 30.7338L89.8783 24.5446C89.8908 22.1197 88.3576 20.3614 86.1519 20.2661H86.1268C83.8772 20.2661 82.2999 22.0055 82.2936 24.5002L82.2371 35.4058H81.4704C80.2262 35.3995 79.0574 34.898 78.1777 34.0029C77.2979 33.1079 76.8204 31.9208 76.8267 30.6639L76.8581 24.4748C76.8644 23.1227 76.4496 21.9483 75.6956 21.1802C75.0672 20.5391 74.2314 20.2027 73.2763 20.2027H73.2511C71.0329 20.2027 69.5436 21.9039 69.5374 24.4367L69.4808 35.3423H68.7142C67.47 35.336 66.3012 34.8345 65.4214 33.9394C64.5479 33.0444 64.0641 31.8573 64.0704 30.6005L64.1458 16.1654L67.294 16.1845C68.4251 16.1845 69.3363 17.124 69.3363 18.2666V19.1997V19.4282L69.4557 19.2314L69.9332 18.4316C71.0455 16.5653 73.0877 15.4545 75.3939 15.4545H75.4065C78.0457 15.4672 80.2765 16.7304 81.3699 18.8315L81.5836 19.2441L81.6338 19.3457L81.6904 19.2441L81.9229 18.8379C83.0666 16.851 85.5236 15.5624 88.1879 15.5624H88.2005C89.2373 15.5687 90.2113 15.7655 91.0974 16.1464C91.9582 16.5146 92.7186 17.0478 93.3533 17.7333C93.9879 18.4189 94.4781 19.2314 94.8174 20.1582C95.163 21.1104 95.3327 22.1578 95.3264 23.2623L95.2636 35.4756L95.2447 35.4883Z" fill="white"/>
<path d="M95.1807 35.4248L95.2435 23.275C95.2498 22.1705 95.0801 21.1358 94.7408 20.19C94.4078 19.2695 93.9176 18.4634 93.2892 17.7841C92.6608 17.1049 91.9131 16.578 91.0522 16.2099C90.1724 15.8353 89.211 15.6386 88.1804 15.6322H88.1679C85.5224 15.6322 83.0905 16.9018 81.9594 18.876L81.6138 19.479L81.2933 18.8633C80.2062 16.7875 78.0005 15.537 75.3865 15.5243H75.3739C73.0928 15.5243 71.0694 16.6225 69.9697 18.4697L69.2597 19.6631V18.2729C69.2597 17.1684 68.3799 16.2606 67.2802 16.2543L64.1949 16.2353L64.1194 30.6068C64.1194 31.851 64.5907 33.019 65.4516 33.9014C66.3188 34.7837 67.4688 35.2725 68.7004 35.2852H69.4042L69.4608 24.443C69.4608 21.8722 70.9815 20.1455 73.2374 20.1455H73.2625C74.2302 20.1455 75.0848 20.4947 75.7258 21.1422C76.4924 21.9229 76.9134 23.11 76.9072 24.4811L76.8757 30.6703C76.8757 31.9145 77.3407 33.0825 78.2079 33.9648C79.0751 34.8472 80.225 35.336 81.4567 35.3423H82.1605L82.217 24.5002C82.217 21.9674 83.8194 20.2027 86.113 20.2027H86.1445C88.3878 20.2979 89.9462 22.088 89.9336 24.5446L89.8959 30.7338C89.8897 31.978 90.3609 33.146 91.2218 34.0347C92.0827 34.9234 93.239 35.4121 94.4643 35.4248H95.1681M95.2938 35.5518H94.4643C91.8502 35.5264 89.7514 33.3745 89.764 30.7338L89.7954 24.5446C89.808 22.1578 88.2998 20.4248 86.1256 20.3296H86.1005C83.8948 20.3296 82.3364 22.0435 82.3364 24.5002L82.2799 35.4693H81.4504C78.8363 35.4502 76.7312 33.3047 76.7438 30.6639L76.7752 24.4748C76.7878 21.9674 75.3739 20.2661 73.2562 20.2661H73.2311C71.0569 20.2661 69.5864 21.942 69.5801 24.4367L69.5236 35.4058H68.6941C66.0926 35.3931 63.9875 33.2475 64.0001 30.6068L64.0755 16.1083L67.2865 16.1273C68.4553 16.1337 69.3916 17.0922 69.3916 18.2729V19.2061L69.8692 18.4062C71.0003 16.5146 73.0614 15.3973 75.3802 15.3973H75.3927C78.0508 15.41 80.3067 16.686 81.4127 18.8061L81.6263 19.2188L81.8589 18.8125C83.0151 16.7939 85.4972 15.5053 88.1742 15.5053H88.1867C92.4409 15.537 95.4006 18.7173 95.3755 23.2687L95.3126 35.5455L95.2938 35.5518Z" fill="black"/>
<path d="M99.3324 43.931H98.5657C97.3215 43.9246 96.1527 43.4232 95.273 42.5345C94.3932 41.6394 93.9157 40.4524 93.9219 39.1955L93.9345 36.5357C94.2613 36.5611 94.5943 36.5675 94.9211 36.5675C95.2478 36.5675 95.606 36.5548 95.9453 36.5294H96.2533V36.4659L96.3224 23.6877C96.3349 21.7833 96.1087 20.355 95.6374 19.3203C97.3655 16.6098 100.331 15.1752 104.221 15.1752C104.253 15.1752 104.29 15.1752 104.322 15.1752C110.505 15.2196 114.973 19.5996 114.942 25.5857C114.935 27.052 114.684 28.4359 114.206 29.7118C113.741 30.9496 113.063 32.0414 112.202 32.9619C111.341 33.8823 110.323 34.5996 109.167 35.0948C107.979 35.6026 106.691 35.8629 105.333 35.8629H105.277C105.277 35.8629 105.233 35.8629 105.208 35.8629C103.241 35.8629 101.368 35.1138 99.9293 33.7617L99.502 33.3491L99.3952 33.2475V33.3935L99.3386 43.931H99.3324ZM104.328 19.9297C101.368 19.9297 99.213 22.2784 99.1941 25.5095C99.1753 28.7342 101.324 31.0893 104.297 31.1083H104.341C107.313 31.1083 109.481 28.7786 109.5 25.5666C109.506 23.9987 108.991 22.5704 108.048 21.5357C107.106 20.5074 105.798 19.9361 104.353 19.9297H104.328Z" fill="white"/>
<path d="M104.218 15.2387C100.366 15.2387 97.4256 16.6542 95.7101 19.3267C96.1751 20.3677 96.3951 21.796 96.3888 23.6877L96.3197 36.5929H95.9489C95.6096 36.6183 95.264 36.6309 94.9246 36.6309C94.6167 36.6309 94.3088 36.6246 94.0009 36.5992L93.9883 39.1891C93.9883 40.4333 94.4533 41.6013 95.3205 42.4837C96.1877 43.366 97.3376 43.8548 98.5693 43.8675H99.2731L99.3296 33.1015L99.9706 33.7173C101.397 35.063 103.257 35.8057 105.205 35.8057C105.243 35.8057 105.287 35.8057 105.331 35.8057C106.682 35.8057 107.964 35.5518 109.139 35.044C110.282 34.5552 111.294 33.8379 112.149 32.9238C113.003 32.0097 113.676 30.9242 114.141 29.6927C114.618 28.4295 114.863 27.0457 114.87 25.592C114.901 19.6377 110.465 15.2894 104.313 15.245H104.212M104.338 31.1781H104.294C101.284 31.1591 99.116 28.785 99.1286 25.5158C99.1474 22.2467 101.334 19.8726 104.325 19.8726H104.35C105.808 19.8726 107.134 20.4566 108.089 21.4976C109.045 22.5387 109.56 23.986 109.554 25.573C109.535 28.8167 107.342 31.1781 104.332 31.1781M104.206 15.118H104.306C110.534 15.1625 115.02 19.5742 114.983 25.592C114.951 31.5907 110.886 35.9327 105.312 35.9327H105.186C103.213 35.9327 101.309 35.1773 99.8638 33.8125L99.4365 33.3999L99.3799 44.0008H98.5504C95.9363 43.9818 93.8312 41.8362 93.8438 39.1955L93.8627 36.4723C94.5476 36.523 95.2388 36.523 95.9301 36.4723H96.1751L96.2442 23.694C96.2505 21.7769 96.0243 20.3487 95.553 19.3203C97.2937 16.5717 100.279 15.118 104.206 15.118ZM104.332 31.0512C107.272 31.0512 109.409 28.7723 109.428 25.573C109.447 22.361 107.285 20.0122 104.35 19.9995H104.325C101.403 19.9995 99.2731 22.3356 99.2542 25.5158C99.2417 28.7025 101.359 31.0321 104.294 31.0448H104.338L104.332 31.0512Z" fill="black"/>
</g>
<defs>
<clipPath id="clip0_1462_657">
<rect width="51" height="45" fill="white" transform="translate(64 3)"/>
</clipPath>
</defs>
</svg>
