<svg width="180" height="50" viewBox="0 0 180 50" fill="none" xmlns="http://www.w3.org/2000/svg">
<g opacity="0.7">
<path d="M110.029 43.4409C99.9928 43.4409 91.7891 35.2371 91.7891 25.2007C91.7891 17.8697 96.1527 11.2369 102.96 8.44411C112.211 4.51679 122.946 8.88048 126.873 18.1315C130.8 27.3825 126.437 38.1172 117.186 42.0445C114.829 43.0045 112.473 43.5281 110.029 43.4409ZM105.927 16.2115C105.404 16.2115 104.967 16.9969 104.88 17.1715L96.5018 32.8807C96.3273 33.0553 96.3273 33.4044 96.4146 33.5789C96.5018 33.7535 96.7637 33.8407 96.9382 33.8407H103.222C103.833 33.7535 104.356 33.4044 104.706 32.8807L109.68 23.5425C109.68 23.5425 109.68 23.4552 109.767 23.4552L115.004 32.7935C115.353 33.3171 115.877 33.6662 116.575 33.7535H123.208C123.382 33.7535 123.644 33.6662 123.731 33.4917C123.819 33.2298 123.819 32.968 123.644 32.7935L118.32 23.3679C117.971 22.8443 117.448 22.4952 116.749 22.4079H110.117C109.942 22.4079 109.855 22.4079 109.68 22.4952C109.593 22.4079 109.593 22.2334 109.506 22.0588L106.626 16.8224C106.451 16.386 106.189 16.2115 105.927 16.2115Z" fill="white"/>
<path d="M24.5893 16.4733V32.968C24.5893 33.3171 24.3275 33.5789 23.9784 33.5789H21.2729C21.1856 33.5789 21.0111 33.4916 21.0111 33.3171V19.9642C21.0111 19.877 20.9238 19.7024 20.7493 19.7024C20.662 19.7024 20.5747 19.7897 20.5747 19.877L17.2583 32.2698C17.171 32.5317 16.9092 32.7062 16.6474 32.7062H14.0292C13.7674 32.7062 13.5055 32.5316 13.4183 32.1826L10.1019 19.877C10.1019 19.7897 10.0146 19.7024 9.92731 19.7024C9.84004 19.7024 9.66549 19.7897 9.66549 19.9642V33.3171C9.66549 33.4044 9.57823 33.5789 9.40368 33.5789H6.87274C6.43637 33.5789 6 33.2298 6 32.7062V16.386C6 16.0369 6.26182 15.7751 6.61091 15.7751H11.9346C12.0219 15.7751 12.1092 15.8624 12.1092 15.9496L14.9892 27.8189C14.9892 27.9061 15.1637 27.9934 15.251 27.9934C15.3383 27.9934 15.4256 27.9061 15.4256 27.8189L18.3056 15.9496C18.3056 15.8624 18.3929 15.7751 18.4801 15.7751H23.8038C24.3275 15.8624 24.5893 16.1242 24.5893 16.4733Z" fill="white"/>
<path d="M27.9069 31.8333C26.8596 30.6115 26.3359 28.9533 26.3359 26.7714C26.3359 24.5896 26.8596 22.9314 27.9069 21.7096C28.9542 20.4878 30.4378 19.9641 32.3578 19.9641C34.3651 19.9641 35.8488 20.575 36.8088 21.7096C37.8561 22.9314 38.3797 24.5896 38.3797 26.7714C38.3797 28.9533 37.8561 30.6988 36.8088 31.8333C35.7615 33.0552 34.2778 33.6661 32.3578 33.6661C30.3505 33.6661 28.8669 33.0552 27.9069 31.8333ZM34.1906 29.7387C34.6269 29.1278 34.8015 28.1678 34.8015 26.7714C34.8015 25.3751 34.6269 24.4151 34.1906 23.8041C33.7542 23.1932 33.056 22.8441 32.3578 22.9314C31.6596 22.8441 30.9614 23.1932 30.5251 23.8041C30.0887 24.4151 29.9142 25.3751 29.9142 26.7714C29.9142 28.1678 30.0887 29.1278 30.5251 29.7387C30.9614 30.3497 31.6596 30.6988 32.3578 30.6115C33.056 30.6988 33.8415 30.3497 34.1906 29.7387Z" fill="white"/>
<path d="M40.7359 20.5753H43.6159V21.2735C44.1396 20.9244 44.7505 20.6626 45.3614 20.488C45.8851 20.3135 46.496 20.2262 47.0196 20.2262C48.5906 20.2262 49.7251 20.7499 50.4233 21.7971C51.1215 22.8444 51.4706 24.4153 51.4706 26.5972V33.0554C51.4706 33.4045 51.2088 33.6663 50.8597 33.6663H47.9796V26.6844C48.0669 25.8117 47.8924 24.939 47.5433 24.1535C47.2814 23.6299 46.6705 23.4553 45.8851 23.4553C45.1869 23.4553 44.576 23.6299 43.9651 23.8044L43.6159 23.8917V33.6663H40.7359C40.3868 33.6663 40.125 33.4045 40.125 33.0554V21.1862C40.125 20.8371 40.3868 20.5753 40.7359 20.5753Z" fill="white"/>
<path d="M54.6112 32.0951C53.7385 31.0479 53.2148 29.3897 53.2148 27.1205C53.2148 24.6769 53.6512 22.9314 54.6112 21.7096C55.5712 20.4878 57.0549 19.9641 59.0622 19.9641C60.8949 19.9641 62.2913 20.4877 63.2513 21.4477C64.2113 22.4078 64.6477 23.8914 64.6477 25.8987L64.4732 27.8187C64.4732 28.1678 64.2113 28.3424 63.8622 28.3424H56.7058C56.7058 28.866 56.7931 29.3024 57.0549 29.7387C57.2295 30.0878 57.5785 30.3497 57.9276 30.437C58.4513 30.6115 59.0622 30.6115 59.6731 30.6115C60.284 30.6115 60.8949 30.6115 61.7677 30.5242C62.5531 30.5242 63.1641 30.437 63.5132 30.437L64.2113 30.3497V32.4442C64.2113 32.7061 64.0368 32.9679 63.775 33.0552C62.204 33.4043 60.6331 33.6661 58.9749 33.6661C57.0549 33.6661 55.5712 33.1424 54.6112 32.0951ZM61.3313 25.6369C61.3313 24.5896 61.1568 23.8914 60.8077 23.4551C60.3713 23.0187 59.7604 22.7569 59.0622 22.8441C58.364 22.7569 57.7531 23.0187 57.3167 23.4551C56.8803 24.066 56.7058 24.8514 56.7931 25.6369H61.3313Z" fill="white"/>
<path d="M69.6223 33.2298C69.0114 32.8807 68.575 32.3571 68.4005 31.6589C68.1387 30.6989 67.9641 29.7389 68.0514 28.6916V23.2806H66.4805V20.3133H68.0514V16.6478H71.5423V20.3133H74.7715V23.2806H71.5423V28.6043C71.5423 29.128 71.5423 29.5644 71.7169 30.088C71.8042 30.4371 72.1533 30.5244 72.5896 30.5244L74.5969 30.4371L74.6842 32.7062C74.6842 33.0553 74.5096 33.3171 74.1605 33.3171C73.7242 33.4044 73.3751 33.4917 73.026 33.4917C72.5896 33.5789 72.2405 33.5789 71.8042 33.5789C71.1933 33.6662 70.4078 33.5789 69.6223 33.2298Z" fill="white"/>
<path d="M76.168 29.3897C76.168 27.9933 76.517 27.0333 77.2152 26.4224C77.9134 25.8114 79.1353 25.4623 80.7062 25.3751L83.499 25.2005V24.4151C83.499 23.9787 83.4117 23.6296 83.1499 23.2805C82.8008 23.0187 82.3644 22.9314 81.928 22.9314C81.3171 22.9314 80.5316 22.9314 79.5716 23.0187C78.5244 23.106 77.7389 23.1059 77.0407 23.1932L76.9534 21.2732C76.9534 21.0114 77.128 20.6623 77.4771 20.6623C79.048 20.2259 80.7062 20.0514 82.2771 20.0514C83.9353 20.0514 85.1571 20.4005 85.9426 21.0987C86.7281 21.7968 87.0772 22.9314 87.0772 24.4151V29.826C87.0772 30.1751 87.1644 30.4369 87.339 30.6988C87.4263 30.786 87.5136 30.8733 87.6008 30.9606C87.7754 31.0479 87.9499 31.3097 87.9499 31.5715L87.8626 33.1424C87.8626 33.4915 87.6008 33.7533 87.2517 33.7533C86.7281 33.7533 86.2044 33.6661 85.6808 33.5788C85.0699 33.4043 84.5462 33.2297 84.1099 32.8806C82.888 33.4915 81.5789 33.7533 80.2698 33.8406C77.5643 33.6661 76.168 32.2697 76.168 29.3897ZM83.2371 30.5242L83.5862 30.437V27.6442L81.2298 27.8187C80.4444 27.8187 79.7462 28.4297 79.7462 29.2151C79.7462 29.3024 79.7462 29.3897 79.7462 29.3897C79.7462 30.3497 80.1826 30.8733 81.0553 30.8733C81.7535 30.786 82.4517 30.6988 83.2371 30.5242Z" fill="white"/>
<path fill-rule="evenodd" clip-rule="evenodd" d="M78.8726 14.3786C78.5236 14.4659 78.349 14.7277 78.2617 15.0768V17.9568C78.2617 18.2186 78.5236 18.3059 78.8726 18.1314L84.8945 15.8622C85.2436 15.775 85.4181 15.5132 85.5054 15.1641V12.284C85.5054 12.0222 85.2436 11.9349 84.8945 12.1095L78.8726 14.3786Z" fill="white"/>
<path d="M171.734 12.7205H148.432C146.774 12.7205 145.465 14.0296 145.465 15.6878V35.5862C145.465 37.2444 146.774 38.5535 148.432 38.5535H171.734C173.392 38.5535 174.702 37.2444 174.702 35.5862V15.775C174.702 14.0296 173.392 12.7205 171.734 12.7205ZM174.702 32.8807C174.091 34.4516 172.52 35.4989 170.861 35.4989H166.76V38.5535H163.88V37.4189C163.88 36.8953 164.141 36.3716 164.578 36.0225C164.927 35.6734 165.363 35.4989 165.887 35.4989H161C160.912 35.4989 160.825 35.4989 160.825 35.4116L158.556 33.1425L156.112 35.4989H152.359C152.359 35.4989 152.272 35.4989 152.272 35.4116C152.272 35.4116 152.272 35.4116 152.272 35.3244L156.723 31.1352L152.272 26.8588V26.7715C152.272 26.7715 152.272 26.7715 152.359 26.7715H156.112H156.199L158.556 29.1279L160.912 26.7715C161 26.6843 161 26.6842 161.087 26.6842H170.861C172.607 26.6842 174.091 27.7315 174.702 29.3025V32.8807Z" fill="white"/>
<path d="M163.879 34.4517V27.9934L160.562 31.2225L163.879 34.4517Z" fill="white"/>
<path d="M170.511 29.3899H166.758V32.7936H170.511C171.471 32.7936 172.256 32.0081 172.256 31.0481C172.256 30.1754 171.471 29.3899 170.511 29.3899Z" fill="white"/>
</g>
</svg>
