<svg width="180" height="50" viewBox="0 0 180 50" fill="none" xmlns="http://www.w3.org/2000/svg">
<g opacity="0.7">
<path d="M75.4789 35.3C69.5789 35.3 65.3789 30.9 65.3789 24.8C65.3789 17.6 70.279 14.3 75.179 14.3C79.579 14.3 82.579 17.3 82.579 18.8C82.579 19.8 80.9789 20.5001 80.2789 20.5001C78.5789 20.5001 78.279 18.1001 75.179 18.1001C72.779 18.1001 69.7789 19.8001 69.7789 24.7001C69.7789 28.9001 71.979 31.6001 75.179 31.6001C77.979 31.6001 78.879 29.4001 80.179 29.4001C81.379 29.4001 82.4789 30.2001 82.4789 31.0001C82.6789 32.7001 79.0789 35.3 75.4789 35.3Z" fill="white"/>
<path d="M143.079 16.5001C143.779 15.4001 144.679 15.3 146.079 15.3H146.978C147.678 15.3 148.378 15.5001 148.378 16.2001C148.378 16.7001 148.078 17.2001 147.478 17.9001L142.778 24.4001C141.778 25.7001 141.678 27.3001 141.678 28.2001V33.5001C141.678 34.8001 141.078 35.4001 139.778 35.4001H138.878C137.578 35.4001 136.978 34.8001 136.978 33.5001V27.7001C136.978 26.8001 136.679 25.4001 136.079 24.7001L130.678 17.2001C129.578 15.6001 130.578 15.2001 131.478 15.2001H133.079C134.179 15.2001 134.978 15.7001 135.678 16.7001L137.678 20.0001C138.278 21.0001 138.778 21.2001 139.278 21.2001C139.778 21.2001 140.378 20.8001 140.878 19.9001L143.079 16.5001Z" fill="white"/>
<path d="M111.88 21.1001C111.88 22.1001 111.68 23.0001 111.18 23.8001C110.78 24.4001 110.58 24.6001 110.28 24.9001C109.98 25.2001 110.28 25.0001 109.28 25.8001C108.68 26.4001 108.38 27.0001 108.38 27.4001C108.38 27.8001 108.48 28.2001 108.58 28.4001L110.78 32.4001C111.08 33.0001 111.28 33.4001 111.28 33.6001C111.28 34.2001 110.78 34.5001 109.68 34.5001H109.08C108.08 34.5001 107.38 34.1001 106.88 33.3001L105.28 30.5001C103.68 27.6001 103.08 27.1001 101.58 27.1001C99.9797 27.1001 99.1797 27.9001 99.1797 29.5001V32.8001C99.1797 34.0001 98.4797 34.5001 97.1797 34.5001C95.6797 34.5001 95.1797 34.0001 95.1797 32.3001V16.8001C95.1797 15.6001 95.6797 15.1001 96.7797 15.1001H104.98C109.38 15.1001 111.88 17.2001 111.88 21.1001ZM99.2797 20.7001V22.0001C99.2797 23.6001 100.28 24.4001 102.18 24.4001H103.98C106.18 24.4001 107.78 23.0001 107.78 21.0001C107.78 19.2001 106.38 17.7001 103.78 17.7001H101.58C100.08 17.7001 99.2797 18.7001 99.2797 20.7001Z" fill="white"/>
<path d="M126.877 19.6C125.377 19.6 124.277 17.7 121.477 17.7C119.477 17.7 118.077 18.9 118.077 20.1C118.077 21.1 118.877 22.1 120.477 22.4L124.677 23.3C128.177 24.1 129.977 25.6 129.977 28.5C129.977 32.8 126.677 35.1 121.177 35.1C116.777 35.1 113.277 32.8 113.277 31.7C113.277 30.9 114.677 30 115.577 30C116.877 30 118.577 31.9 121.177 31.9C123.977 31.9 125.777 30.7 125.777 29.2C125.777 26.5 121.077 26.7 118.377 26C116.677 25.5 113.577 24.3 113.577 20.9C113.577 17.1 116.277 14.4 121.477 14.4C125.477 14.4 129.177 16.4 129.177 17.7C129.177 18.6 127.777 19.6 126.877 19.6Z" fill="white"/>
<path d="M91.2781 18.6V32C91.2781 34 90.9781 35 89.3781 35H88.0781C86.0781 35 86.0781 33.4 86.0781 30.8L86.1781 17C86.1781 15.4 86.6781 14.6 87.7781 14.6H89.5781C91.2781 14.5 91.2781 16 91.2781 18.6Z" fill="white"/>
<path d="M162.78 19.6C161.28 19.6 160.18 17.7 157.38 17.7C155.38 17.7 153.98 18.9 153.98 20.1C153.98 21.1 154.78 22.1 156.38 22.4L160.58 23.3C164.08 24.1 165.88 25.6 165.88 28.5C165.88 32.8 162.58 35.1 157.08 35.1C152.68 35.1 149.18 32.8 149.18 31.7C149.18 30.9 150.58 30 151.48 30C152.78 30 154.48 31.9 157.08 31.9C159.88 31.9 161.68 30.7 161.68 29.2C161.68 26.5 156.98 26.7 154.28 26C152.58 25.5 149.48 24.3 149.48 20.9C149.48 17.1 152.18 14.4 157.38 14.4C161.38 14.4 165.08 16.4 165.08 17.7C165.08 18.6 163.68 19.6 162.78 19.6Z" fill="white"/>
<path d="M38.9776 32.8C38.6776 32.8 38.3777 32.5 38.3777 32.2C38.2777 31.7 38.7777 31.3 39.2777 31.3C39.5777 31.3 39.8777 31.6 39.8777 31.9C39.9777 32.4 39.5777 32.8 39.1777 32.8C39.0777 32.8 38.9776 32.8 38.9776 32.8ZM31.0777 25.2C30.7777 25.2 30.4776 24.9 30.4776 24.6C30.3776 24.1 30.8777 23.7 31.3777 23.7C31.6777 23.7 31.9776 24 31.9776 24.3C32.0776 24.8 31.6777 25.2 31.2777 25.2C31.1777 25.2 31.0777 25.2 31.0777 25.2ZM44.3777 21.8C44.0777 21.8 43.7777 21.5 43.7777 21.2C43.6777 20.7 44.1777 20.3 44.6777 20.3C44.9777 20.3 45.2777 20.6 45.2777 20.9C45.3777 21.4 44.9777 21.8 44.5777 21.8C44.4777 21.8 44.4777 21.8 44.3777 21.8ZM24.4776 16.9C24.1776 16.9 23.8777 16.6 23.8777 16.3C23.7777 15.8 24.2777 15.4 24.7777 15.4C25.0777 15.4 25.3777 15.7 25.3777 16C25.4777 16.5 25.0777 16.9 24.6777 16.9C24.4777 16.9 24.4776 16.9 24.4776 16.9ZM34.7777 16.2C34.4777 16.2 34.1777 15.9 34.1777 15.6C34.0777 15.1 34.5777 14.6 35.1777 14.8C35.4777 14.9 35.6777 15.1 35.6777 15.3C35.7777 15.8 35.4776 16.3 34.9776 16.3C34.7776 16.3 34.7777 16.2 34.7777 16.2ZM29.4776 32.9C27.0776 30.5 26.0777 28.2 25.0777 25.3C24.2777 23 23.3777 20.3 21.5777 18.1C20.7777 17 19.6777 16.5 18.7777 15.9C17.9777 15.4 18.0776 14.1 18.9776 13.8C21.2776 13 24.4777 12.1 28.3777 12.1C32.3777 12.1 36.3777 13 40.3777 14.6C49.9777 18.7 53.5777 28.9 55.0777 33.8C55.3777 34.8 54.4777 34.8 54.0777 34.3C52.9777 32.9 51.3777 31 49.3777 28.9C48.9777 28.5 48.7777 28.1 48.7777 27.5C48.6777 26.1 48.2777 23.3 46.0777 21.4C46.2777 20.8 46.0776 20.1 45.4776 19.7C45.1776 19.5 44.8777 19.4 44.5777 19.4C44.0777 19.4 43.5777 19.6 43.2777 20C42.7777 20.7 42.8777 21.7 43.5777 22.2C43.8777 22.4 44.1776 22.5 44.4776 22.5C44.5776 22.5 44.6777 22.5 44.6777 22.5C45.2777 22.4 45.7777 22.6 46.1777 23.1C46.8777 24 47.2776 25 47.4776 25.9C47.5776 26.4 47.0777 26.7 46.6777 26.4C44.2777 24.3 41.3776 22.1 37.9776 20.3C37.8776 19.3 38.0777 16.5 36.3777 15.6C36.3777 15.5 36.3777 15.4 36.3777 15.2C36.2777 14.8 36.0777 14.4 35.7777 14.2C35.3777 13.9 34.8777 13.8 34.3777 13.9C34.1777 13.9 33.9777 14 33.7777 14.2C32.8777 14.9 32.9777 16.1 33.7777 16.7C34.0777 16.9 34.3777 17 34.6777 17C34.8777 17 34.9777 17 35.1777 16.9C35.7777 16.7 36.3777 17.1 36.5777 17.7C36.6777 18.1 36.6777 18.5 36.6777 18.8C36.6777 19.1 36.2776 19.4 35.9776 19.2C33.2776 18 30.6777 16.2 26.7777 15.6C26.3777 15.5 25.9777 15.3 25.6777 15C25.5777 14.9 25.4777 14.8 25.3777 14.7C25.0777 14.5 24.7776 14.4 24.4776 14.4C23.9776 14.4 23.4777 14.6 23.1777 15C22.6777 15.7 22.7776 16.7 23.4776 17.2C23.8776 17.5 24.3777 17.6 24.8777 17.4C25.5777 17.2 25.6777 16.4 26.3777 16.5C30.8777 17.1 34.4777 19.4 38.0777 21.4C38.4777 21.6 38.2777 22.2 37.8777 22.2C36.0777 22.1 34.0777 22.3 32.3777 23.3C32.2777 23.1 32.1776 23 31.9776 22.9C31.6776 22.7 31.3777 22.6 31.0777 22.6C30.5777 22.6 30.0777 22.8 29.7777 23.2C29.2777 23.9 29.3777 24.9 30.0777 25.4C30.3777 25.6 30.6776 25.7 30.9776 25.7C31.4776 25.7 31.9777 25.5 32.2777 25.1C32.4777 24.9 32.4777 24.6 32.5777 24.4C36.0777 21.8 42.3776 24.2 42.4776 24.2C44.3776 25.6 46.1777 27.1 47.5777 28.6C47.9777 29 47.6777 29.6 47.1777 29.5C45.1777 29.2 42.6777 29.4 40.1777 30.7C40.0777 30.6 39.9777 30.5 39.8777 30.4C39.5777 30.2 39.2776 30.1 38.9776 30.1C38.4776 30.1 37.9777 30.3 37.6777 30.7C37.1777 31.4 37.2776 32.4 37.9776 32.9C38.2776 33.1 38.5777 33.2 38.8777 33.2C39.3777 33.2 39.8777 33 40.1777 32.6C40.3777 32.3 40.4776 32 40.4776 31.7C44.4776 29.5 48.2777 30.6 49.7777 31.1C50.1777 31.2 50.4777 31.5 50.7777 31.8C51.4777 32.7 53.1777 34.5 53.0777 35.4C52.8777 36.4 52.0777 37 49.1777 37.1C47.9777 37.1 46.4777 37.2 44.6777 37.2C39.9777 37.7 33.4776 37 29.4776 32.9ZM14.4776 13.6C13.7776 14 13.8777 15 14.5777 15.2C16.1777 15.8 18.4777 16.8 19.8777 18.6C21.5777 20.8 22.3777 23.3 23.2777 25.6C24.3777 28.7 25.3777 31.8 28.3777 34.4C33.1777 38.6 39.0777 39.5 47.0777 39.5C48.1777 39.5 49.2777 39.5 50.1777 39.5C51.6777 39.5 54.5777 38.9 56.3777 38.5C57.2777 38.3 57.8777 37.4 57.7777 36.4C56.9777 31.7 53.7777 18.3 41.0777 12.8C36.7777 11 32.4777 10 28.0777 10C22.1777 10.1 17.0776 12.3 14.4776 13.6Z" fill="white"/>
</g>
</svg>
