<svg width="180" height="50" viewBox="0 0 180 50" fill="none" xmlns="http://www.w3.org/2000/svg">
<g opacity="0.7">
<path d="M70.6125 33.8578C70.5125 32.9578 70.0125 32.2578 69.3125 31.7578C68.6125 31.2578 67.7125 31.0578 66.9125 31.1578C65.7125 31.0578 64.5125 31.6578 63.8125 32.7578C63.5125 33.2578 63.2125 33.8578 63.1125 34.4578C62.9125 35.1578 62.9125 35.7578 62.9125 36.4578C62.9125 37.1578 63.0125 37.7578 63.1125 38.3578C63.2125 38.9578 63.5125 39.5579 63.8125 40.0579C64.1125 40.5579 64.6125 40.9578 65.1125 41.2578C65.7125 41.5578 66.4125 41.7578 67.1125 41.7578C67.6125 41.7578 68.0125 41.6579 68.5125 41.5579C68.9125 41.3579 69.3125 41.1578 69.6125 40.8578C69.9125 40.5578 70.2125 40.2578 70.4125 39.8578C70.6125 39.4578 70.8125 39.0579 70.9125 38.5579H72.1125C72.0125 39.1579 71.8125 39.6578 71.5125 40.1578C71.3125 40.6578 70.9125 41.1578 70.5125 41.4578C70.1125 41.8578 69.6125 42.1578 69.0125 42.3578C68.3125 42.5578 67.6125 42.6578 66.9125 42.6578C66.1125 42.6578 65.3125 42.4578 64.6125 42.1578C64.0125 41.8578 63.4125 41.3578 63.0125 40.8578C62.6125 40.2578 62.3125 39.5578 62.1125 38.8578C61.9125 38.0578 61.8125 37.2578 61.8125 36.4578C61.8125 35.4578 61.9125 34.5579 62.2125 33.5579C62.4125 32.8579 62.8125 32.1578 63.4125 31.6578C63.9125 31.1578 64.5125 30.7579 65.1125 30.5579C65.8125 30.3579 66.5125 30.2578 67.3125 30.2578C67.9125 30.2578 68.4125 30.3578 69.0125 30.4578C69.5125 30.6578 70.0125 30.8578 70.4125 31.1578C70.8125 31.4578 71.1125 31.8578 71.4125 32.3578C71.7125 32.8578 71.9125 33.4578 71.9125 33.9578L70.6125 33.8578Z" fill="white"/>
<path d="M91.0125 33.7578H92.0125V42.2578H91.0125V41.0579C90.9125 41.2579 90.7125 41.3579 90.6125 41.5579C90.2125 41.9579 89.8125 42.1578 89.3125 42.3578C89.0125 42.4578 88.6125 42.4578 88.3125 42.4578C87.8125 42.4578 87.3125 42.3578 86.9125 42.2578C86.5125 42.1578 86.2125 41.8579 86.0125 41.5579C85.8125 41.2579 85.6125 40.9579 85.5125 40.5579C85.4125 40.1579 85.3125 39.7578 85.3125 39.3578V33.7578H86.3125V39.3578C86.3125 39.9578 86.4125 40.5579 86.8125 41.0579C87.2125 41.4579 87.9125 41.6578 88.5125 41.6578C88.9125 41.6578 89.2125 41.5578 89.6125 41.4578C89.9125 41.2578 90.2125 41.0578 90.4125 40.7578C90.6125 40.4578 90.8125 40.1578 90.9125 39.7578C91.0125 39.3578 91.1125 38.8578 91.1125 38.4578L91.0125 33.7578Z" fill="white"/>
<path d="M106.711 42.2578H105.711V33.7578H106.711V35.3578C106.911 34.7578 107.311 34.2578 107.811 33.9578C108.311 33.6578 108.911 33.5579 109.511 33.5579V34.6578C109.011 34.6578 108.611 34.7578 108.111 34.9578C107.811 35.1578 107.511 35.3578 107.211 35.7578C107.011 36.0578 106.811 36.4578 106.811 36.8578C106.711 37.2578 106.711 37.7578 106.711 38.1578V42.2578Z" fill="white"/>
<path d="M123.114 39.5579C123.214 40.1579 123.514 40.6579 123.914 41.0579C124.414 41.3579 125.014 41.5579 125.614 41.5579C125.914 41.5579 126.214 41.5578 126.514 41.4578C126.714 41.3578 127.014 41.2579 127.114 41.0579C127.314 40.9579 127.414 40.7579 127.514 40.5579C127.614 40.3579 127.614 40.1578 127.614 39.9578C127.614 39.5578 127.514 39.2579 127.214 39.0579C126.914 38.8579 126.614 38.6579 126.214 38.5579C125.814 38.4579 125.314 38.3578 124.914 38.2578C124.514 38.1578 124.014 38.0578 123.614 37.8578C123.214 37.6578 122.914 37.4578 122.614 37.1578C122.314 36.7578 122.214 36.3578 122.214 35.8578C122.214 35.1578 122.514 34.5578 123.014 34.1578C123.614 33.6578 124.414 33.4578 125.214 33.4578C126.014 33.4578 126.814 33.6579 127.414 34.0579C128.014 34.5579 128.414 35.3578 128.414 36.1578H127.414C127.414 35.5578 127.114 35.0578 126.714 34.7578C126.214 34.4578 125.714 34.3578 125.114 34.3578C124.614 34.3578 124.114 34.4578 123.714 34.7578C123.414 35.0578 123.214 35.3578 123.214 35.8578C123.214 36.1578 123.314 36.5578 123.614 36.7578C123.914 36.9578 124.214 37.1578 124.614 37.2578C125.014 37.3578 125.414 37.4579 125.914 37.5579C126.414 37.6579 126.814 37.7578 127.214 37.9578C127.614 38.1578 127.914 38.3578 128.214 38.6578C128.514 39.0578 128.614 39.4578 128.614 39.9578C128.614 40.3578 128.514 40.6579 128.314 41.0579C128.114 41.3579 127.914 41.6578 127.614 41.8578C127.314 42.0578 126.914 42.2578 126.514 42.3578C126.014 42.4578 125.614 42.5579 125.114 42.5579C124.614 42.5579 124.214 42.4578 123.814 42.3578C123.114 42.0578 122.514 41.5578 122.214 40.8578C122.014 40.4578 122.014 40.1578 121.914 39.7578L123.114 39.5579Z" fill="white"/>
<path d="M145.413 42.4578C144.913 42.4578 144.413 42.3578 143.913 42.1578C143.413 41.9578 143.013 41.6578 142.713 41.3578C142.313 40.9578 142.013 40.4578 141.913 39.9578C141.713 39.3578 141.613 38.6579 141.613 38.0579C141.613 37.4579 141.713 36.8578 141.813 36.3578C142.013 35.8578 142.213 35.3578 142.513 34.9578C142.813 34.5578 143.313 34.2578 143.713 33.9578C144.813 33.4578 146.113 33.4578 147.213 33.9578C147.713 34.1578 148.113 34.4578 148.413 34.9578C148.713 35.3578 149.013 35.8578 149.113 36.3578C149.313 36.9578 149.313 37.5579 149.313 38.0579C149.313 38.6579 149.213 39.2578 149.013 39.8578C148.813 40.3578 148.613 40.8578 148.213 41.2578C147.913 41.6578 147.413 41.9578 147.013 42.1578C146.613 42.3578 146.013 42.4578 145.413 42.4578ZM148.313 38.0579C148.313 37.5579 148.213 37.1578 148.113 36.6578C148.013 36.2578 147.813 35.8579 147.613 35.5579C147.413 35.2579 147.113 34.9578 146.713 34.7578C146.313 34.5578 145.813 34.4578 145.413 34.4578C144.913 34.4578 144.513 34.5578 144.113 34.7578C143.713 34.9578 143.413 35.2579 143.213 35.5579C143.013 35.8579 142.813 36.2578 142.713 36.6578C142.613 37.0578 142.513 37.5578 142.513 37.9578C142.513 38.4578 142.613 38.9578 142.713 39.4578C142.813 39.8578 143.013 40.2579 143.213 40.5579C143.413 40.8579 143.713 41.1578 144.113 41.2578C144.513 41.4578 144.913 41.5579 145.313 41.5579C145.813 41.5579 146.213 41.4578 146.613 41.2578C147.013 41.0578 147.313 40.7578 147.513 40.4578C147.713 40.1578 147.913 39.7578 148.013 39.3578C148.313 38.9578 148.313 38.4579 148.313 38.0579Z" fill="white"/>
<path d="M163.114 39.6578C163.214 40.2578 163.514 40.7578 163.914 41.1578C164.414 41.4578 165.014 41.6578 165.614 41.6578C165.914 41.6578 166.214 41.6579 166.514 41.5579C166.714 41.4579 167.014 41.3578 167.114 41.1578C167.314 41.0578 167.414 40.8578 167.514 40.6578C167.614 40.4578 167.614 40.2579 167.614 40.0579C167.614 39.6579 167.514 39.3578 167.214 39.1578C166.914 38.9578 166.614 38.7578 166.214 38.6578C165.814 38.5578 165.314 38.4578 164.914 38.3578C164.514 38.2578 164.014 38.1578 163.614 37.9578C163.214 37.7578 162.914 37.5578 162.614 37.2578C162.314 36.8578 162.214 36.4578 162.214 35.9578C162.214 35.2578 162.514 34.6578 163.014 34.2578C163.614 33.7578 164.414 33.5579 165.214 33.5579C166.014 33.5579 166.814 33.7578 167.414 34.1578C168.014 34.6578 168.414 35.4578 168.414 36.2578H167.414C167.414 35.6578 167.114 35.1578 166.714 34.8578C166.214 34.5578 165.714 34.4578 165.114 34.4578C164.614 34.4578 164.114 34.5578 163.714 34.8578C163.414 35.1578 163.214 35.4578 163.214 35.9578C163.214 36.2578 163.314 36.6578 163.614 36.8578C163.914 37.0578 164.214 37.2578 164.614 37.3578C165.014 37.4578 165.414 37.5578 165.914 37.6578C166.414 37.7578 166.814 37.8579 167.214 38.0579C167.614 38.2579 167.914 38.4578 168.214 38.7578C168.514 39.1578 168.614 39.5579 168.614 40.0579C168.614 40.4579 168.514 40.7578 168.314 41.1578C168.114 41.4578 167.914 41.7578 167.614 41.9578C167.314 42.1578 166.914 42.3578 166.514 42.4578C166.014 42.5578 165.614 42.6578 165.114 42.6578C164.614 42.6578 164.214 42.5578 163.814 42.4578C163.414 42.3578 163.114 42.1578 162.814 41.8578C162.514 41.5578 162.314 41.2578 162.214 40.9578C162.014 40.5578 162.014 40.2578 161.914 39.8578L163.114 39.6578Z" fill="white"/>
<path d="M74.4516 8.21899H80.1516V27.219H76.4516V14.319C76.4516 13.919 76.4516 13.419 76.4516 12.719C76.4516 12.019 76.4516 11.519 76.4516 11.219L72.8516 27.219H69.0516L65.5516 11.219C65.5516 11.619 65.5516 12.119 65.5516 12.719C65.5516 13.319 65.5516 13.919 65.5516 14.319V27.219H61.8516V8.21899H67.6516L71.0516 23.219L74.4516 8.21899Z" fill="white"/>
<path d="M92.1516 13.419C93.1516 13.919 93.9516 14.6191 94.5516 15.5191C95.1516 16.4191 95.5516 17.419 95.6516 18.419C95.7516 19.319 95.8516 20.319 95.7516 21.219H85.5516C85.4516 22.419 86.0516 23.519 87.0516 24.219C87.6516 24.619 88.3516 24.819 89.0516 24.719C89.7516 24.719 90.5516 24.519 91.0516 24.119C91.3516 23.819 91.6516 23.519 91.8516 23.119H95.5516C95.3516 24.119 94.9516 25.019 94.1516 25.619C92.7516 27.019 90.8516 27.819 88.8516 27.619C87.0516 27.619 85.3516 27.019 83.9516 25.919C82.5516 24.719 81.8516 22.919 81.8516 20.319C81.8516 17.919 82.4516 16.019 83.7516 14.719C85.0516 13.419 86.8516 12.719 88.7516 12.819C89.9516 12.819 91.1516 13.019 92.1516 13.419ZM86.6516 16.619C86.1516 17.219 85.7516 18.019 85.6516 18.819H91.9516C91.9516 18.019 91.5516 17.219 90.9516 16.619C90.3516 16.119 89.5516 15.819 88.7516 15.819C88.0516 15.819 87.2516 16.119 86.6516 16.619Z" fill="white"/>
<path d="M104.551 13.4189C105.251 13.8189 105.751 14.319 106.151 15.019V8.31897H109.851V27.319H106.251V25.4189C105.851 26.1189 105.251 26.819 104.451 27.219C103.651 27.619 102.851 27.819 101.951 27.819C100.351 27.819 98.8514 27.119 97.8514 25.819C96.6514 24.419 96.1514 22.519 96.1514 20.719C96.0514 18.719 96.6514 16.719 97.8514 15.019C98.9514 13.619 100.551 12.9189 102.251 12.9189C103.051 12.8189 103.851 13.0189 104.551 13.4189ZM105.451 23.4189C106.051 22.5189 106.351 21.5189 106.251 20.4189C106.251 18.7189 105.851 17.419 104.951 16.719C104.451 16.319 103.751 16.019 103.151 16.019C102.151 15.919 101.251 16.419 100.751 17.219C99.7514 19.119 99.7514 21.419 100.751 23.319C101.251 24.119 102.151 24.519 103.051 24.519C104.051 24.619 104.951 24.2189 105.451 23.4189Z" fill="white"/>
<path d="M116.45 11.519H112.75V8.11902H116.45V11.519ZM112.75 13.219H116.45V27.319H112.75V13.219Z" fill="white"/>
<path d="M127.853 18.219C127.753 17.719 127.653 17.219 127.353 16.819C126.853 16.219 126.153 15.9189 125.453 15.9189C124.253 15.9189 123.253 16.619 122.953 17.719C122.653 18.519 122.553 19.419 122.553 20.319C122.553 21.119 122.653 22.019 122.953 22.819C123.253 23.919 124.253 24.619 125.453 24.619C126.153 24.719 126.853 24.4189 127.253 23.9189C127.653 23.4189 127.853 22.719 127.953 22.119H131.653C131.553 23.319 131.153 24.419 130.453 25.319C129.253 26.919 127.353 27.819 125.353 27.719C123.053 27.719 121.453 27.019 120.353 25.719C119.253 24.219 118.653 22.319 118.753 20.519C118.653 18.519 119.253 16.5189 120.553 14.9189C121.753 13.5189 123.553 12.8189 125.453 12.9189C126.953 12.8189 128.453 13.319 129.753 14.119C130.853 14.919 131.553 16.319 131.753 18.319L127.853 18.219Z" fill="white"/>
<path d="M137.352 11.519H133.652V8.11902H137.352V11.519ZM133.652 13.219H137.352V27.319H133.652V13.219Z" fill="white"/>
<path d="M151.751 14.0191C152.651 14.8191 153.151 16.019 153.151 17.819V27.319H149.451V18.719C149.451 18.119 149.351 17.5191 149.151 17.0191C148.751 16.3191 147.951 15.819 147.151 15.919C146.051 15.819 145.051 16.5191 144.651 17.5191C144.351 18.2191 144.251 18.919 144.251 19.619V27.219H140.551V13.219H144.051V15.319C144.451 14.719 144.851 14.219 145.351 13.719C146.151 13.119 147.151 12.819 148.251 12.919C149.451 12.819 150.751 13.2191 151.751 14.0191Z" fill="white"/>
<path d="M165.152 13.5191C166.152 14.0191 166.952 14.719 167.552 15.619C168.152 16.519 168.552 17.5191 168.652 18.5191C168.752 19.4191 168.852 20.419 168.752 21.319H158.552C158.452 22.519 159.052 23.619 160.052 24.319C160.652 24.719 161.352 24.919 162.052 24.819C162.752 24.819 163.552 24.619 164.052 24.219C164.352 23.919 164.652 23.619 164.852 23.219H168.552C168.352 24.219 167.952 25.119 167.152 25.719C165.752 27.119 163.852 27.919 161.852 27.719C160.052 27.719 158.352 27.1191 156.952 26.0191C155.552 24.8191 154.852 23.019 154.852 20.419C154.852 18.019 155.452 16.119 156.752 14.819C158.052 13.519 159.852 12.819 161.752 12.919C162.952 12.919 164.052 13.1191 165.152 13.5191ZM159.652 16.719C159.152 17.319 158.752 18.119 158.652 18.919H164.952C164.952 18.119 164.552 17.319 163.952 16.719C163.352 16.219 162.552 15.919 161.752 15.919C161.052 15.919 160.252 16.119 159.652 16.719Z" fill="white"/>
<path d="M13.9 8L12 42.9L24.2 38.7999L25.2 18.2999L13.9 8Z" fill="white"/>
<path opacity="0.1" d="M17.6016 13.2L24.4016 34.7999L25.0016 23.4L17.6016 13.2Z" fill="white"/>
<path opacity="0.2" fill-rule="evenodd" clip-rule="evenodd" d="M14.7008 11.6H15.0008C15.1008 11.6 15.2008 11.6 15.2008 11.5C15.2008 11.4 15.2008 11.3 15.2008 11.2C15.2008 11.1 15.2008 11 15.1008 11C14.9008 11 14.7008 11 14.5008 11C14.4008 11 14.4008 11 14.3008 11.1C14.3008 11.2 14.3008 11.3 14.3008 11.4C14.3008 11.5 14.3008 11.5 14.4008 11.5C14.5008 11.6 14.6008 11.6 14.7008 11.6Z" fill="#1D1D23"/>
<path opacity="0.2" fill-rule="evenodd" clip-rule="evenodd" d="M14.7008 12.9H15.0008C15.1008 12.9 15.2008 12.8999 15.2008 12.7999C15.2008 12.6999 15.2008 12.6 15.2008 12.5C15.2008 12.4 15.2008 12.2999 15.1008 12.2999C14.9008 12.2999 14.7008 12.2999 14.5008 12.2999C14.4008 12.2999 14.4008 12.3 14.3008 12.4C14.3008 12.5 14.3008 12.6 14.3008 12.7C14.3008 12.8 14.3008 12.7999 14.4008 12.7999C14.4008 12.8999 14.6008 12.9 14.7008 12.9Z" fill="#1D1D23"/>
<path opacity="0.2" d="M21.8008 39.5C21.8008 38.9 21.6008 38.9 21.0008 38.9L15.5008 38.6C14.9008 38.6 14.4008 39 14.4008 39.6L14.3008 42.2" fill="#1D1D23"/>
<path opacity="0.2" fill-rule="evenodd" clip-rule="evenodd" d="M14.5992 14.2999H14.8992C14.9992 14.2999 15.0992 14.3 15.0992 14.2C15.0992 14.1 15.0992 14 15.0992 13.9C15.0992 13.8 15.0992 13.7 14.9992 13.7C14.7992 13.7 14.5992 13.7 14.3992 13.7C14.2992 13.7 14.2992 13.6999 14.1992 13.7999C14.1992 13.8999 14.1992 14 14.1992 14.1C14.1992 14.2 14.1992 14.2 14.2992 14.2C14.3992 14.3 14.4992 14.2999 14.5992 14.2999Z" fill="#1D1D23"/>
<path opacity="0.2" fill-rule="evenodd" clip-rule="evenodd" d="M14.5016 15.6H14.8015C14.9015 15.6 15.0016 15.6 15.0016 15.5C15.0016 15.4 15.0016 15.3 15.0016 15.2C15.0016 15.1 15.0016 15 14.9016 15C14.7016 15 14.5015 15 14.3015 15C14.2015 15 14.2016 15 14.1016 15.1C14.1016 15.2 14.1016 15.3 14.1016 15.4C14.1016 15.5 14.1016 15.5 14.2016 15.5C14.3016 15.6 14.4016 15.6 14.5016 15.6Z" fill="#1D1D23"/>
<path opacity="0.2" fill-rule="evenodd" clip-rule="evenodd" d="M14.5016 16.9H14.8015C14.9015 16.9 15.0016 16.8999 15.0016 16.7999C15.0016 16.6999 15.0016 16.6 15.0016 16.5C15.0016 16.4 15.0016 16.2999 14.9016 16.2999C14.7016 16.2999 14.5015 16.2999 14.3015 16.2999C14.2015 16.2999 14.2016 16.3 14.1016 16.4C14.1016 16.5 14.1016 16.6 14.1016 16.7C14.1016 16.8 14.1016 16.7999 14.2016 16.7999C14.2016 16.8999 14.4016 16.9 14.5016 16.9Z" fill="#1D1D23"/>
<path opacity="0.2" fill-rule="evenodd" clip-rule="evenodd" d="M14.4 18.2999H14.7C14.8 18.2999 14.9 18.3 14.9 18.2C14.9 18.1 14.9 18 14.9 17.9C14.9 17.8 14.9 17.7 14.8 17.7C14.6 17.7 14.4 17.7 14.2 17.7C14.1 17.7 14.1 17.6999 14 17.7999C14 17.8999 14 18 14 18.1C14 18.2 14 18.2 14.1 18.2C14.2 18.2 14.3 18.2999 14.4 18.2999Z" fill="#1D1D23"/>
<path opacity="0.2" fill-rule="evenodd" clip-rule="evenodd" d="M14.2984 19.6H14.5984C14.6984 19.6 14.7984 19.6 14.7984 19.5C14.7984 19.4 14.7984 19.3 14.7984 19.2C14.7984 19.1 14.7985 19 14.6985 19C14.4985 19 14.2984 19 14.0984 19C13.9984 19 13.9984 19 13.8984 19.1C13.8984 19.2 13.8984 19.3 13.8984 19.4C13.8984 19.5 13.8984 19.5 13.9984 19.5C14.0984 19.6 14.1984 19.6 14.2984 19.6Z" fill="#1D1D23"/>
<path opacity="0.2" fill-rule="evenodd" clip-rule="evenodd" d="M14.2984 20.9C14.3984 20.9 14.4984 20.9 14.5984 20.9C14.6984 20.9 14.7984 20.8999 14.7984 20.7999C14.7984 20.6999 14.7984 20.6 14.7984 20.5C14.7984 20.4 14.7985 20.2999 14.6985 20.2999C14.4985 20.2999 14.2984 20.2999 14.0984 20.2999C13.9984 20.2999 13.9984 20.3 13.8984 20.4C13.8984 20.5 13.8984 20.6 13.8984 20.7C13.8984 20.8 13.8984 20.7999 13.9984 20.7999C13.9984 20.8999 14.0984 20.9 14.2984 20.9Z" fill="#1D1D23"/>
<path opacity="0.2" fill-rule="evenodd" clip-rule="evenodd" d="M14.2008 22.2H14.5008C14.6008 22.2 14.7008 22.2 14.7008 22.1C14.7008 22 14.7008 21.8999 14.7008 21.7999C14.7008 21.6999 14.7008 21.6 14.6008 21.6C14.4008 21.6 14.2008 21.6 14.0008 21.6C13.9008 21.6 13.9008 21.6 13.8008 21.7C13.8008 21.8 13.8008 21.9 13.8008 22C13.8008 22.1 13.8008 22.1 13.9008 22.1C14.0008 22.2 14.1008 22.2 14.2008 22.2Z" fill="#1D1D23"/>
<path opacity="0.2" fill-rule="evenodd" clip-rule="evenodd" d="M14.0992 23.6H14.3992C14.4992 23.6 14.5992 23.6 14.5992 23.5C14.5992 23.4 14.5992 23.3 14.5992 23.2C14.5992 23.1 14.5992 23 14.4992 23C14.2992 23 14.0992 23 13.8992 23C13.7992 23 13.7992 23 13.6992 23.1C13.6992 23.2 13.6992 23.3 13.6992 23.4C13.6992 23.5 13.6992 23.5 13.7992 23.5C13.8992 23.6 13.9992 23.6 14.0992 23.6Z" fill="#1D1D23"/>
<path opacity="0.2" fill-rule="evenodd" clip-rule="evenodd" d="M14.0016 24.9H14.3015C14.4015 24.9 14.5016 24.8999 14.5016 24.7999C14.5016 24.6999 14.5016 24.6 14.5016 24.5C14.5016 24.4 14.5016 24.2999 14.4016 24.2999C14.2016 24.2999 14.0015 24.2999 13.8015 24.2999C13.7015 24.2999 13.7016 24.3 13.6016 24.4C13.6016 24.5 13.6016 24.6 13.6016 24.7C13.6016 24.8 13.6016 24.7999 13.7016 24.7999C13.8016 24.8999 13.9016 24.9 14.0016 24.9Z" fill="#1D1D23"/>
<path opacity="0.2" fill-rule="evenodd" clip-rule="evenodd" d="M14.0016 26.2H14.3015C14.4015 26.2 14.5016 26.2 14.5016 26.1C14.5016 26 14.5016 25.8999 14.5016 25.7999C14.5016 25.6999 14.5016 25.6 14.4016 25.6C14.2016 25.6 14.0015 25.6 13.8015 25.6C13.7015 25.6 13.7016 25.6 13.6016 25.7C13.6016 25.8 13.6016 25.9 13.6016 26C13.6016 26.1 13.6016 26.1 13.7016 26.1C13.8016 26.2 13.9016 26.2 14.0016 26.2Z" fill="#1D1D23"/>
<path opacity="0.2" fill-rule="evenodd" clip-rule="evenodd" d="M13.9 27.6C14 27.6 14.1 27.6 14.2 27.6C14.3 27.6 14.4 27.6 14.4 27.5C14.4 27.4 14.4 27.3 14.4 27.2C14.4 27.1 14.4 27 14.3 27C14.1 27 13.9 27 13.7 27C13.6 27 13.6 27 13.5 27.1C13.5 27.2 13.5 27.3 13.5 27.4C13.5 27.5 13.5 27.5 13.6 27.5C13.7 27.5 13.8 27.6 13.9 27.6Z" fill="#1D1D23"/>
<path opacity="0.2" fill-rule="evenodd" clip-rule="evenodd" d="M13.7984 28.9H14.0984C14.1984 28.9 14.2984 28.8999 14.2984 28.7999C14.2984 28.6999 14.2984 28.6 14.2984 28.5C14.2984 28.4 14.2985 28.2999 14.1985 28.2999C13.9985 28.2999 13.7984 28.2999 13.5984 28.2999C13.4984 28.2999 13.4984 28.3 13.3984 28.4C13.3984 28.5 13.3984 28.6 13.3984 28.7C13.3984 28.8 13.3984 28.7999 13.4984 28.7999C13.5984 28.8999 13.6984 28.9 13.7984 28.9Z" fill="#1D1D23"/>
<path opacity="0.2" fill-rule="evenodd" clip-rule="evenodd" d="M13.7984 30.2H14.0984C14.1984 30.2 14.2984 30.2 14.2984 30.1C14.2984 30 14.2984 29.8999 14.2984 29.7999C14.2984 29.6999 14.2985 29.6 14.1985 29.6C13.9985 29.6 13.7984 29.6 13.5984 29.6C13.4984 29.6 13.4984 29.6 13.3984 29.7C13.3984 29.8 13.3984 29.9 13.3984 30C13.3984 30.1 13.3984 30.1 13.4984 30.1C13.4984 30.2 13.5984 30.2 13.7984 30.2Z" fill="#1D1D23"/>
<path opacity="0.2" fill-rule="evenodd" clip-rule="evenodd" d="M13.7008 31.5C13.8008 31.5 13.9008 31.5 14.0008 31.5C14.1008 31.5 14.2008 31.5 14.2008 31.4C14.2008 31.3 14.2008 31.2 14.2008 31.1C14.2008 31 14.2008 30.9 14.1008 30.9C13.9008 30.9 13.7008 30.9 13.5008 30.9C13.4008 30.9 13.4008 30.9 13.3008 31C13.3008 31.1 13.3008 31.1999 13.3008 31.2999C13.3008 31.3999 13.3008 31.4 13.4008 31.4C13.5008 31.5 13.6008 31.5 13.7008 31.5Z" fill="#1D1D23"/>
<path opacity="0.2" fill-rule="evenodd" clip-rule="evenodd" d="M13.5992 32.9H13.8992C13.9992 32.9 14.0992 32.8999 14.0992 32.7999C14.0992 32.6999 14.0992 32.6 14.0992 32.5C14.0992 32.4 14.0992 32.2999 13.9992 32.2999C13.7992 32.2999 13.5992 32.2999 13.3992 32.2999C13.2992 32.2999 13.2992 32.3 13.1992 32.4C13.1992 32.5 13.1992 32.6 13.1992 32.7C13.1992 32.8 13.1992 32.7999 13.2992 32.7999C13.3992 32.8999 13.4992 32.9 13.5992 32.9Z" fill="#1D1D23"/>
<path opacity="0.2" fill-rule="evenodd" clip-rule="evenodd" d="M13.5016 34.2H13.8015C13.9015 34.2 14.0016 34.2 14.0016 34.1C14.0016 34 14.0016 33.8999 14.0016 33.7999C14.0016 33.6999 14.0016 33.6 13.9016 33.6C13.7016 33.6 13.5015 33.6 13.3015 33.6C13.2015 33.6 13.2016 33.6 13.1016 33.7C13.1016 33.8 13.1016 33.9 13.1016 34C13.1016 34.1 13.1016 34.1 13.2016 34.1C13.3016 34.2 13.4016 34.2 13.5016 34.2Z" fill="#1D1D23"/>
<path opacity="0.2" fill-rule="evenodd" clip-rule="evenodd" d="M13.5016 35.5H13.8015C13.9015 35.5 14.0016 35.5 14.0016 35.4C14.0016 35.3 14.0016 35.2 14.0016 35.1C14.0016 35 14.0016 34.9 13.9016 34.9C13.7016 34.9 13.5015 34.9 13.3015 34.9C13.2015 34.9 13.2016 34.9 13.1016 35C13.1016 35.1 13.1016 35.1999 13.1016 35.2999C13.1016 35.3999 13.1016 35.4 13.2016 35.4C13.3016 35.5 13.4016 35.5 13.5016 35.5Z" fill="#1D1D23"/>
<path opacity="0.2" fill-rule="evenodd" clip-rule="evenodd" d="M13.4 36.9H13.7C13.8 36.9 13.9 36.8999 13.9 36.7999C13.9 36.6999 13.9 36.6 13.9 36.5C13.9 36.4 13.9 36.2999 13.8 36.2999C13.6 36.2999 13.4 36.2999 13.2 36.2999C13.1 36.2999 13.1 36.3 13 36.4C13 36.5 13 36.6 13 36.7C13 36.8 13 36.7999 13.1 36.7999C13.2 36.7999 13.3 36.9 13.4 36.9Z" fill="#1D1D23"/>
<path opacity="0.2" fill-rule="evenodd" clip-rule="evenodd" d="M13.2984 38.2H13.5984C13.6984 38.2 13.7984 38.2 13.7984 38.1C13.7984 38 13.7984 37.8999 13.7984 37.7999C13.7984 37.6999 13.7985 37.6 13.6985 37.6C13.4985 37.6 13.2984 37.6 13.0984 37.6C12.9984 37.6 12.9984 37.6 12.8984 37.7C12.8984 37.8 12.8984 37.9 12.8984 38C12.8984 38.1 12.8984 38.1 12.9984 38.1C13.0984 38.2 13.1984 38.2 13.2984 38.2Z" fill="#1D1D23"/>
<path opacity="0.2" fill-rule="evenodd" clip-rule="evenodd" d="M13.2984 39.5H13.5984C13.6984 39.5 13.7984 39.5 13.7984 39.4C13.7984 39.3 13.7984 39.2 13.7984 39.1C13.7984 39 13.7985 38.9 13.6985 38.9C13.4985 38.9 13.2984 38.9 13.0984 38.9C12.9984 38.9 12.9984 38.9 12.8984 39C12.8984 39.1 12.8984 39.1999 12.8984 39.2999C12.8984 39.3999 12.8984 39.4 12.9984 39.4C12.9984 39.5 13.1984 39.5 13.2984 39.5Z" fill="#1D1D23"/>
<path opacity="0.2" fill-rule="evenodd" clip-rule="evenodd" d="M13.2008 40.7999H13.5008C13.6008 40.7999 13.7008 40.8 13.7008 40.7C13.7008 40.6 13.7008 40.5 13.7008 40.4C13.7008 40.3 13.7008 40.2 13.6008 40.2C13.4008 40.2 13.2008 40.2 13.0008 40.2C12.9008 40.2 12.9008 40.1999 12.8008 40.2999C12.8008 40.3999 12.8008 40.5 12.8008 40.6C12.8008 40.7 12.8008 40.7 12.9008 40.7C13.0008 40.8 13.1008 40.7999 13.2008 40.7999Z" fill="#1D1D23"/>
<path opacity="0.2" fill-rule="evenodd" clip-rule="evenodd" d="M13.0992 42.2H13.3992C13.4992 42.2 13.5992 42.2 13.5992 42.1C13.5992 42 13.5992 41.8999 13.5992 41.7999C13.5992 41.6999 13.5992 41.6 13.4992 41.6C13.2992 41.6 13.0992 41.6 12.8992 41.6C12.7992 41.6 12.7992 41.6 12.6992 41.7C12.6992 41.8 12.6992 41.9 12.6992 42C12.6992 42.1 12.6992 42.1 12.7992 42.1C12.8992 42.2 12.9992 42.2 13.0992 42.2Z" fill="#1D1D23"/>
<path opacity="0.2" fill-rule="evenodd" clip-rule="evenodd" d="M14.7984 10.2999H15.0984C15.1984 10.2999 15.2984 10.3 15.2984 10.2C15.2984 10.1 15.2984 10 15.2984 9.90002C15.2984 9.80002 15.2985 9.69995 15.1985 9.69995C14.9985 9.69995 14.7984 9.69995 14.5984 9.69995C14.4984 9.69995 14.4984 9.69993 14.3984 9.79993C14.3984 9.89993 14.3984 9.99998 14.3984 10.1C14.3984 10.2 14.3984 10.2 14.4984 10.2C14.5984 10.3 14.6984 10.2999 14.7984 10.2999Z" fill="#1D1D23"/>
<path opacity="0.2" fill-rule="evenodd" clip-rule="evenodd" d="M24.0992 22.2H24.3992C24.4992 22.2 24.5992 22.2 24.5992 22.1C24.5992 22 24.5992 21.8999 24.5992 21.7999C24.5992 21.6999 24.5992 21.6 24.4992 21.6C24.2992 21.6 24.0992 21.6 23.8992 21.6C23.7992 21.6 23.7992 21.6 23.6992 21.7C23.6992 21.8 23.6992 21.9 23.6992 22C23.6992 22.1 23.6992 22.1 23.7992 22.1C23.7992 22.2 23.8992 22.2 24.0992 22.2Z" fill="#1D1D23"/>
<path opacity="0.2" fill-rule="evenodd" clip-rule="evenodd" d="M24.0016 23.6H24.3015C24.4015 23.6 24.5016 23.6 24.5016 23.5C24.5016 23.4 24.5016 23.3 24.5016 23.2C24.5016 23.1 24.5016 23 24.4016 23C24.2016 23 24.0015 23 23.8015 23C23.7015 23 23.7016 23 23.6016 23.1C23.6016 23.2 23.6016 23.3 23.6016 23.4C23.6016 23.5 23.6016 23.5 23.7016 23.5C23.8016 23.6 23.9016 23.6 24.0016 23.6Z" fill="#1D1D23"/>
<path opacity="0.2" fill-rule="evenodd" clip-rule="evenodd" d="M23.9 24.9H24.2C24.3 24.9 24.4 24.8999 24.4 24.7999C24.4 24.6999 24.4 24.6 24.4 24.5C24.4 24.4 24.4 24.2999 24.3 24.2999C24.1 24.2999 23.9 24.2999 23.7 24.2999C23.6 24.2999 23.6 24.3 23.5 24.4C23.5 24.5 23.5 24.6 23.5 24.7C23.5 24.8 23.5 24.7999 23.6 24.7999C23.7 24.8999 23.8 24.9 23.9 24.9Z" fill="#1D1D23"/>
<path opacity="0.2" fill-rule="evenodd" clip-rule="evenodd" d="M23.9 26.2H24.2C24.3 26.2 24.4 26.2 24.4 26.1C24.4 26 24.4 25.8999 24.4 25.7999C24.4 25.6999 24.4 25.6 24.3 25.6C24.1 25.6 23.9 25.6 23.7 25.6C23.6 25.6 23.6 25.6 23.5 25.7C23.5 25.8 23.5 25.9 23.5 26C23.5 26.1 23.5 26.1 23.6 26.1C23.6 26.2 23.7 26.2 23.9 26.2Z" fill="#1D1D23"/>
<path opacity="0.2" fill-rule="evenodd" clip-rule="evenodd" d="M23.7984 27.6H24.0984C24.1984 27.6 24.2984 27.6 24.2984 27.5C24.2984 27.4 24.2984 27.3 24.2984 27.2C24.2984 27.1 24.2985 27 24.1985 27C23.9985 27 23.7984 27 23.5984 27C23.4984 27 23.4984 27 23.3984 27.1C23.3984 27.2 23.3984 27.3 23.3984 27.4C23.3984 27.5 23.3984 27.5 23.4984 27.5C23.5984 27.5 23.6984 27.6 23.7984 27.6Z" fill="#1D1D23"/>
<path opacity="0.2" fill-rule="evenodd" clip-rule="evenodd" d="M23.7008 28.9H24.0008C24.1008 28.9 24.2008 28.8999 24.2008 28.7999C24.2008 28.6999 24.2008 28.6 24.2008 28.5C24.2008 28.4 24.2008 28.2999 24.1008 28.2999C23.9008 28.2999 23.7008 28.2999 23.5008 28.2999C23.4008 28.2999 23.4008 28.3 23.3008 28.4C23.3008 28.5 23.3008 28.6 23.3008 28.7C23.3008 28.8 23.3008 28.7999 23.4008 28.7999C23.5008 28.8999 23.6008 28.9 23.7008 28.9Z" fill="#1D1D23"/>
<path opacity="0.2" fill-rule="evenodd" clip-rule="evenodd" d="M23.5992 30.2H23.8992C23.9992 30.2 24.0992 30.2 24.0992 30.1C24.0992 30 24.0992 29.8999 24.0992 29.7999C24.0992 29.6999 24.0992 29.6 23.9992 29.6C23.7992 29.6 23.5992 29.6 23.3992 29.6C23.2992 29.6 23.2992 29.6 23.1992 29.7C23.1992 29.8 23.1992 29.9 23.1992 30C23.1992 30.1 23.1992 30.1 23.2992 30.1C23.3992 30.2 23.4992 30.2 23.5992 30.2Z" fill="#1D1D23"/>
<path opacity="0.2" fill-rule="evenodd" clip-rule="evenodd" d="M23.5992 31.5H23.8992C23.9992 31.5 24.0992 31.5 24.0992 31.4C24.0992 31.3 24.0992 31.2 24.0992 31.1C24.0992 31 24.0992 30.9 23.9992 30.9C23.7992 30.9 23.5992 30.9 23.3992 30.9C23.2992 30.9 23.2992 30.9 23.1992 31C23.1992 31.1 23.1992 31.1999 23.1992 31.2999C23.1992 31.3999 23.1992 31.4 23.2992 31.4C23.2992 31.5 23.4992 31.5 23.5992 31.5Z" fill="#1D1D23"/>
<path opacity="0.2" fill-rule="evenodd" clip-rule="evenodd" d="M23.5016 32.9H23.8015C23.9015 32.9 24.0016 32.8999 24.0016 32.7999C24.0016 32.6999 24.0016 32.6 24.0016 32.5C24.0016 32.4 24.0016 32.2999 23.9016 32.2999C23.7016 32.2999 23.5015 32.2999 23.3015 32.2999C23.2015 32.2999 23.2016 32.3 23.1016 32.4C23.1016 32.5 23.1016 32.6 23.1016 32.7C23.1016 32.8 23.1016 32.7999 23.2016 32.7999C23.3016 32.8999 23.4016 32.9 23.5016 32.9Z" fill="#1D1D23"/>
<path opacity="0.2" fill-rule="evenodd" clip-rule="evenodd" d="M23.4 34.2H23.7C23.8 34.2 23.9 34.2 23.9 34.1C23.9 34 23.9 33.8999 23.9 33.7999C23.9 33.6999 23.9 33.6 23.8 33.6C23.6 33.6 23.4 33.6 23.2 33.6C23.1 33.6 23.1 33.6 23 33.7C23 33.8 23 33.9 23 34C23 34.1 23 34.1 23.1 34.1C23.2 34.2 23.3 34.2 23.4 34.2Z" fill="#1D1D23"/>
<path opacity="0.2" fill-rule="evenodd" clip-rule="evenodd" d="M23.4 35.5H23.7C23.8 35.5 23.9 35.5 23.9 35.4C23.9 35.3 23.9 35.2 23.9 35.1C23.9 35 23.9 34.9 23.8 34.9C23.6 34.9 23.4 34.9 23.2 34.9C23.1 34.9 23.1 34.9 23 35C23 35.1 23 35.1999 23 35.2999C23 35.3999 23 35.4 23.1 35.4C23.1 35.5 23.2 35.5 23.4 35.5Z" fill="#1D1D23"/>
<path opacity="0.2" fill-rule="evenodd" clip-rule="evenodd" d="M23.2984 36.9C23.3984 36.9 23.4984 36.9 23.5984 36.9C23.6984 36.9 23.7984 36.8999 23.7984 36.7999C23.7984 36.6999 23.7984 36.6 23.7984 36.5C23.7984 36.4 23.7985 36.2999 23.6985 36.2999C23.4985 36.2999 23.2984 36.2999 23.0984 36.2999C22.9984 36.2999 22.9984 36.3 22.8984 36.4C22.8984 36.5 22.8984 36.6 22.8984 36.7C22.8984 36.8 22.8984 36.7999 22.9984 36.7999C23.0984 36.8999 23.1984 36.9 23.2984 36.9Z" fill="#1D1D23"/>
<path opacity="0.2" fill-rule="evenodd" clip-rule="evenodd" d="M23.2008 38.2H23.5008C23.6008 38.2 23.7008 38.2 23.7008 38.1C23.7008 38 23.7008 37.8999 23.7008 37.7999C23.7008 37.6999 23.7008 37.6 23.6008 37.6C23.4008 37.6 23.2008 37.6 23.0008 37.6C22.9008 37.6 22.9008 37.6 22.8008 37.7C22.8008 37.8 22.8008 37.9 22.8008 38C22.8008 38.1 22.8008 38.1 22.9008 38.1C23.0008 38.2 23.1008 38.2 23.2008 38.2Z" fill="#1D1D23"/>
<path opacity="0.2" fill-rule="evenodd" clip-rule="evenodd" d="M23.2008 39.5H23.5008C23.6008 39.5 23.7008 39.5 23.7008 39.4C23.7008 39.3 23.7008 39.2 23.7008 39.1C23.7008 39 23.7008 38.9 23.6008 38.9C23.4008 38.9 23.2008 38.9 23.0008 38.9C22.9008 38.9 22.9008 38.9 22.8008 39C22.8008 39.1 22.8008 39.1999 22.8008 39.2999C22.8008 39.3999 22.8008 39.4 22.9008 39.4C22.9008 39.5 23.0008 39.5 23.2008 39.5Z" fill="#1D1D23"/>
<path opacity="0.2" fill-rule="evenodd" clip-rule="evenodd" d="M24.0992 20.9H24.3992C24.4992 20.9 24.5992 20.8999 24.5992 20.7999C24.5992 20.6999 24.5992 20.6 24.5992 20.5C24.5992 20.4 24.5992 20.2999 24.4992 20.2999C24.2992 20.2999 24.0992 20.2999 23.8992 20.2999C23.7992 20.2999 23.7992 20.3 23.6992 20.4C23.6992 20.5 23.6992 20.6 23.6992 20.7C23.6992 20.8 23.6992 20.7999 23.7992 20.7999C23.8992 20.8999 23.9992 20.9 24.0992 20.9Z" fill="#1D1D23"/>
<path opacity="0.2" d="M14.6016 35.6C14.6016 36.2 15.0016 36.7 15.6016 36.7L21.1016 37C21.7016 37 22.2016 36.6 22.2016 36L22.4016 33.7C22.4016 33.1 22.0016 32.6 21.4016 32.6L15.9016 32.2999C15.3016 32.2999 14.8015 32.6999 14.8015 33.2999L14.6016 35.6Z" fill="#1D1D23"/>
<path opacity="0.2" d="M14.8984 29.5C14.8984 30.1 15.2984 30.6 15.8984 30.6L21.3984 30.9C21.9984 30.9 22.4984 30.5 22.4984 29.9L22.6985 27.6C22.6985 27 22.2985 26.5 21.6985 26.5L16.1985 26.2C15.5985 26.2 15.0984 26.6 15.0984 27.2L14.8984 29.5Z" fill="#1D1D23"/>
<path opacity="0.2" d="M15.3008 23.1C15.3008 23.7 15.7008 24.2 16.3008 24.2L21.8008 24.5C22.4008 24.5 22.9008 24.1 22.9008 23.5L23.1008 21.2C23.1008 20.6 22.7008 20.1 22.1008 20.1L16.6008 19.7999C16.0008 19.7999 15.5008 20.1999 15.5008 20.7999L15.3008 23.1Z" fill="#1D1D23"/>
<path opacity="0.2" d="M15.6016 17C15.6016 17.6 16.0016 18.1 16.6016 18.1L22.1016 18.4C22.7016 18.4 23.2016 18 23.2016 17.4L23.4016 15.1C23.4016 14.5 23.0016 14 22.4016 14L16.9016 13.7C16.3016 13.7 15.8015 14.1 15.8015 14.7L15.6016 17Z" fill="#1D1D23"/>
<path d="M54.7984 8.09998L56.5984 43L44.3984 38.9L43.3984 18.4L54.7984 8.09998Z" fill="white"/>
<path opacity="0.1" d="M51.0016 13.2999L44.2016 34.7999L43.6016 23.4L51.0016 13.2999Z" fill="white"/>
<path opacity="0.2" fill-rule="evenodd" clip-rule="evenodd" d="M53.8984 11.7H53.5984C53.4984 11.7 53.3984 11.7 53.3984 11.6C53.3984 11.5 53.3984 11.3999 53.3984 11.2999C53.3984 11.1999 53.3984 11.1 53.4984 11.1C53.6984 11.1 53.8984 11.1 54.0984 11.1C54.1984 11.1 54.1984 11.1 54.2984 11.2C54.2984 11.3 54.2984 11.4 54.2984 11.5C54.2984 11.6 54.2985 11.6 54.1985 11.6C54.0985 11.6 53.9984 11.7 53.8984 11.7Z" fill="#1D1D23"/>
<path opacity="0.2" fill-rule="evenodd" clip-rule="evenodd" d="M54 13H53.7C53.6 13 53.5 13 53.5 12.9C53.5 12.8 53.5 12.7 53.5 12.6C53.5 12.5 53.5 12.4 53.6 12.4C53.8 12.4 54 12.4 54.2 12.4C54.3 12.4 54.3 12.4 54.4 12.5C54.4 12.6 54.4 12.6999 54.4 12.7999C54.4 12.8999 54.4 12.9 54.3 12.9C54.2 13 54.1 13 54 13Z" fill="#1D1D23"/>
<path opacity="0.2" d="M46.5 39.6C46.5 39 46.9 39 47.5 39L53 38.7C53.6 38.7 54.1 39.1 54.1 39.7L54.2 42.2999" fill="#1D1D23"/>
<path opacity="0.2" fill-rule="evenodd" clip-rule="evenodd" d="M54 14.2999H53.7C53.6 14.2999 53.5 14.3 53.5 14.2C53.5 14.1 53.5 14 53.5 13.9C53.5 13.8 53.5 13.7 53.6 13.7C53.8 13.7 54 13.7 54.2 13.7C54.3 13.7 54.3 13.6999 54.4 13.7999C54.4 13.8999 54.4 14 54.4 14.1C54.4 14.2 54.4 14.2 54.3 14.2C54.3 14.3 54.2 14.2999 54 14.2999Z" fill="#1D1D23"/>
<path opacity="0.2" fill-rule="evenodd" clip-rule="evenodd" d="M54.1016 15.6H53.8015C53.7015 15.6 53.6016 15.6 53.6016 15.5C53.6016 15.4 53.6016 15.3 53.6016 15.2C53.6016 15.1 53.6016 15 53.7016 15C53.9016 15 54.1015 15 54.3015 15C54.4015 15 54.4016 15 54.5016 15.1C54.5016 15.2 54.5016 15.3 54.5016 15.4C54.5016 15.5 54.5016 15.5 54.4016 15.5C54.3016 15.6 54.2016 15.6 54.1016 15.6Z" fill="#1D1D23"/>
<path opacity="0.2" fill-rule="evenodd" clip-rule="evenodd" d="M54.1992 17H53.8992C53.7992 17 53.6992 17 53.6992 16.9C53.6992 16.8 53.6992 16.7 53.6992 16.6C53.6992 16.5 53.6992 16.4 53.7992 16.4C53.9992 16.4 54.1992 16.4 54.3992 16.4C54.4992 16.4 54.4992 16.4 54.5992 16.5C54.5992 16.6 54.5992 16.6999 54.5992 16.7999C54.5992 16.8999 54.5992 16.9 54.4992 16.9C54.3992 17 54.2992 17 54.1992 17Z" fill="#1D1D23"/>
<path opacity="0.2" fill-rule="evenodd" clip-rule="evenodd" d="M54.1992 18.2999H53.8992C53.7992 18.2999 53.6992 18.3 53.6992 18.2C53.6992 18.1 53.6992 18 53.6992 17.9C53.6992 17.8 53.6992 17.7 53.7992 17.7C53.9992 17.7 54.1992 17.7 54.3992 17.7C54.4992 17.7 54.4992 17.6999 54.5992 17.7999C54.5992 17.8999 54.5992 18 54.5992 18.1C54.5992 18.2 54.5992 18.2 54.4992 18.2C54.4992 18.3 54.3992 18.2999 54.1992 18.2999Z" fill="#1D1D23"/>
<path opacity="0.2" fill-rule="evenodd" clip-rule="evenodd" d="M54.3008 19.6H54.0008C53.9008 19.6 53.8008 19.6 53.8008 19.5C53.8008 19.4 53.8008 19.3 53.8008 19.2C53.8008 19.1 53.8008 19 53.9008 19C54.1008 19 54.3008 19 54.5008 19C54.6008 19 54.6008 19 54.7008 19.1C54.7008 19.2 54.7008 19.3 54.7008 19.4C54.7008 19.5 54.7008 19.5 54.6008 19.5C54.5008 19.6 54.4008 19.6 54.3008 19.6Z" fill="#1D1D23"/>
<path opacity="0.2" fill-rule="evenodd" clip-rule="evenodd" d="M54.3984 21H54.0984C53.9984 21 53.8984 21 53.8984 20.9C53.8984 20.8 53.8984 20.7 53.8984 20.6C53.8984 20.5 53.8984 20.4 53.9984 20.4C54.1984 20.4 54.3984 20.4 54.5984 20.4C54.6984 20.4 54.6984 20.4 54.7984 20.5C54.7984 20.6 54.7984 20.6999 54.7984 20.7999C54.7984 20.8999 54.7985 20.9 54.6985 20.9C54.5985 21 54.4984 21 54.3984 21Z" fill="#1D1D23"/>
<path opacity="0.2" fill-rule="evenodd" clip-rule="evenodd" d="M54.3984 22.2999H54.0984C53.9984 22.2999 53.8984 22.3 53.8984 22.2C53.8984 22.1 53.8984 22 53.8984 21.9C53.8984 21.8 53.8984 21.7 53.9984 21.7C54.1984 21.7 54.3984 21.7 54.5984 21.7C54.6984 21.7 54.6984 21.6999 54.7984 21.7999C54.7984 21.8999 54.7984 22 54.7984 22.1C54.7984 22.2 54.7985 22.2 54.6985 22.2C54.6985 22.3 54.5984 22.2999 54.3984 22.2999Z" fill="#1D1D23"/>
<path opacity="0.2" fill-rule="evenodd" clip-rule="evenodd" d="M54.5 23.6H54.2C54.1 23.6 54 23.6 54 23.5C54 23.4 54 23.3 54 23.2C54 23.1 54 23 54.1 23C54.3 23 54.5 23 54.7 23C54.8 23 54.8 23 54.9 23.1C54.9 23.2 54.9 23.3 54.9 23.4C54.9 23.5 54.9 23.5 54.8 23.5C54.7 23.6 54.6 23.6 54.5 23.6Z" fill="#1D1D23"/>
<path opacity="0.2" fill-rule="evenodd" clip-rule="evenodd" d="M54.6016 24.9H54.3015C54.2015 24.9 54.1016 24.8999 54.1016 24.7999C54.1016 24.6999 54.1016 24.6 54.1016 24.5C54.1016 24.4 54.1016 24.2999 54.2016 24.2999C54.4016 24.2999 54.6015 24.2999 54.8015 24.2999C54.9015 24.2999 54.9016 24.3 55.0016 24.4C55.0016 24.5 55.0016 24.6 55.0016 24.7C55.0016 24.8 55.0016 24.7999 54.9016 24.7999C54.8016 24.8999 54.7016 24.9 54.6016 24.9Z" fill="#1D1D23"/>
<path opacity="0.2" fill-rule="evenodd" clip-rule="evenodd" d="M54.6016 26.2999H54.3015C54.2015 26.2999 54.1016 26.3 54.1016 26.2C54.1016 26.1 54.1016 26 54.1016 25.9C54.1016 25.8 54.1016 25.7 54.2016 25.7C54.4016 25.7 54.6015 25.7 54.8015 25.7C54.9015 25.7 54.9016 25.6999 55.0016 25.7999C55.0016 25.8999 55.0016 26 55.0016 26.1C55.0016 26.2 55.0016 26.2 54.9016 26.2C54.9016 26.3 54.8016 26.2999 54.6016 26.2999Z" fill="#1D1D23"/>
<path opacity="0.2" fill-rule="evenodd" clip-rule="evenodd" d="M54.6992 27.6H54.3992C54.2992 27.6 54.1992 27.6 54.1992 27.5C54.1992 27.4 54.1992 27.3 54.1992 27.2C54.1992 27.1 54.1992 27 54.2992 27C54.4992 27 54.6992 27 54.8992 27C54.9992 27 54.9992 27 55.0992 27.1C55.0992 27.2 55.0992 27.3 55.0992 27.4C55.0992 27.5 55.0992 27.5 54.9992 27.5C54.8992 27.6 54.7992 27.6 54.6992 27.6Z" fill="#1D1D23"/>
<path opacity="0.2" fill-rule="evenodd" clip-rule="evenodd" d="M54.8008 28.9H54.5008C54.4008 28.9 54.3008 28.8999 54.3008 28.7999C54.3008 28.6999 54.3008 28.6 54.3008 28.5C54.3008 28.4 54.3008 28.2999 54.4008 28.2999C54.6008 28.2999 54.8008 28.2999 55.0008 28.2999C55.1008 28.2999 55.1008 28.3 55.2008 28.4C55.2008 28.5 55.2008 28.6 55.2008 28.7C55.2008 28.8 55.2008 28.7999 55.1008 28.7999C55.0008 28.8999 54.9008 28.9 54.8008 28.9Z" fill="#1D1D23"/>
<path opacity="0.2" fill-rule="evenodd" clip-rule="evenodd" d="M54.8008 30.2999H54.5008C54.4008 30.2999 54.3008 30.3 54.3008 30.2C54.3008 30.1 54.3008 30 54.3008 29.9C54.3008 29.8 54.3008 29.7 54.4008 29.7C54.6008 29.7 54.8008 29.7 55.0008 29.7C55.1008 29.7 55.1008 29.6999 55.2008 29.7999C55.2008 29.8999 55.2008 30 55.2008 30.1C55.2008 30.2 55.2008 30.2 55.1008 30.2C55.1008 30.3 55.0008 30.2999 54.8008 30.2999Z" fill="#1D1D23"/>
<path opacity="0.2" fill-rule="evenodd" clip-rule="evenodd" d="M54.8984 31.6H54.5984C54.4984 31.6 54.3984 31.6 54.3984 31.5C54.3984 31.4 54.3984 31.3 54.3984 31.2C54.3984 31.1 54.3984 31 54.4984 31C54.6984 31 54.8984 31 55.0984 31C55.1984 31 55.1984 31 55.2984 31.1C55.2984 31.2 55.2984 31.3 55.2984 31.4C55.2984 31.5 55.2985 31.5 55.1985 31.5C55.0985 31.6 54.9984 31.6 54.8984 31.6Z" fill="#1D1D23"/>
<path opacity="0.2" fill-rule="evenodd" clip-rule="evenodd" d="M55 32.9H54.7C54.6 32.9 54.5 32.8999 54.5 32.7999C54.5 32.6999 54.5 32.6 54.5 32.5C54.5 32.4 54.5 32.2999 54.6 32.2999C54.8 32.2999 55 32.2999 55.2 32.2999C55.3 32.2999 55.3 32.3 55.4 32.4C55.4 32.5 55.4 32.6 55.4 32.7C55.4 32.8 55.4 32.7999 55.3 32.7999C55.2 32.8999 55.1 32.9 55 32.9Z" fill="#1D1D23"/>
<path opacity="0.2" fill-rule="evenodd" clip-rule="evenodd" d="M55.1016 34.2999H54.8015C54.7015 34.2999 54.6016 34.3 54.6016 34.2C54.6016 34.1 54.6016 34 54.6016 33.9C54.6016 33.8 54.6016 33.7 54.7016 33.7C54.9016 33.7 55.1015 33.7 55.3015 33.7C55.4015 33.7 55.4016 33.6999 55.5016 33.7999C55.5016 33.8999 55.5016 34 55.5016 34.1C55.5016 34.2 55.5016 34.2 55.4016 34.2C55.3016 34.2 55.2016 34.1999 55.1016 34.2999Z" fill="#1D1D23"/>
<path opacity="0.2" fill-rule="evenodd" clip-rule="evenodd" d="M55.1016 35.6H54.8015C54.7015 35.6 54.6016 35.6 54.6016 35.5C54.6016 35.4 54.6016 35.3 54.6016 35.2C54.6016 35.1 54.6016 35 54.7016 35C54.9016 35 55.1015 35 55.3015 35C55.4015 35 55.4016 35 55.5016 35.1C55.5016 35.2 55.5016 35.3 55.5016 35.4C55.5016 35.5 55.5016 35.5 55.4016 35.5C55.3016 35.6 55.2016 35.6 55.1016 35.6Z" fill="#1D1D23"/>
<path opacity="0.2" fill-rule="evenodd" clip-rule="evenodd" d="M55.1992 36.9H54.8992C54.7992 36.9 54.6992 36.8999 54.6992 36.7999C54.6992 36.6999 54.6992 36.6 54.6992 36.5C54.6992 36.4 54.6992 36.2999 54.7992 36.2999C54.9992 36.2999 55.1992 36.2999 55.3992 36.2999C55.4992 36.2999 55.4992 36.3 55.5992 36.4C55.5992 36.5 55.5992 36.6 55.5992 36.7C55.5992 36.8 55.5992 36.7999 55.4992 36.7999C55.3992 36.8999 55.2992 36.9 55.1992 36.9Z" fill="#1D1D23"/>
<path opacity="0.2" fill-rule="evenodd" clip-rule="evenodd" d="M55.1992 38.2H54.8992C54.7992 38.2 54.6992 38.2 54.6992 38.1C54.6992 38 54.6992 37.8999 54.6992 37.7999C54.6992 37.6999 54.6992 37.6 54.7992 37.6C54.9992 37.6 55.1992 37.6 55.3992 37.6C55.4992 37.6 55.4992 37.6 55.5992 37.7C55.5992 37.8 55.5992 37.9 55.5992 38C55.5992 38.1 55.5992 38.1 55.4992 38.1C55.4992 38.2 55.3992 38.2 55.1992 38.2Z" fill="#1D1D23"/>
<path opacity="0.2" fill-rule="evenodd" clip-rule="evenodd" d="M55.3008 39.6H55.0008C54.9008 39.6 54.8008 39.6 54.8008 39.5C54.8008 39.4 54.8008 39.3 54.8008 39.2C54.8008 39.1 54.8008 39 54.9008 39C55.1008 39 55.3008 39 55.5008 39C55.6008 39 55.6008 39 55.7008 39.1C55.7008 39.2 55.7008 39.3 55.7008 39.4C55.7008 39.5 55.7008 39.5 55.6008 39.5C55.5008 39.6 55.4008 39.6 55.3008 39.6Z" fill="#1D1D23"/>
<path opacity="0.2" fill-rule="evenodd" clip-rule="evenodd" d="M55.3984 40.9H55.0984C54.9984 40.9 54.8984 40.8999 54.8984 40.7999C54.8984 40.6999 54.8984 40.6 54.8984 40.5C54.8984 40.4 54.8984 40.2999 54.9984 40.2999C55.1984 40.2999 55.3984 40.2999 55.5984 40.2999C55.6984 40.2999 55.6984 40.3 55.7984 40.4C55.7984 40.5 55.7984 40.6 55.7984 40.7C55.7984 40.8 55.7985 40.7999 55.6985 40.7999C55.5985 40.8999 55.4984 40.9 55.3984 40.9Z" fill="#1D1D23"/>
<path opacity="0.2" fill-rule="evenodd" clip-rule="evenodd" d="M55.5 42.2H55.2C55.1 42.2 55 42.2 55 42.1C55 42 55 41.8999 55 41.7999C55 41.6999 55 41.6 55.1 41.6C55.3 41.6 55.5 41.6 55.7 41.6C55.8 41.6 55.8 41.6 55.9 41.7C55.9 41.8 55.9 41.9 55.9 42C55.9 42.1 55.9 42.1 55.8 42.1C55.7 42.2 55.6 42.2 55.5 42.2Z" fill="#1D1D23"/>
<path opacity="0.2" fill-rule="evenodd" clip-rule="evenodd" d="M53.8008 10.2999H53.5008C53.4008 10.2999 53.3008 10.3 53.3008 10.2C53.3008 10.1 53.3008 10 53.3008 9.90002C53.3008 9.80002 53.3008 9.69995 53.4008 9.69995C53.6008 9.69995 53.8008 9.69995 54.0008 9.69995C54.1008 9.69995 54.1008 9.69993 54.2008 9.79993C54.2008 9.89993 54.2008 9.99998 54.2008 10.1C54.2008 10.2 54.2008 10.2 54.1008 10.2C54.1008 10.3 54.0008 10.2999 53.8008 10.2999Z" fill="#1D1D23"/>
<path opacity="0.2" fill-rule="evenodd" clip-rule="evenodd" d="M44.6016 22.2999H44.3015C44.2015 22.2999 44.1016 22.3 44.1016 22.2C44.1016 22.1 44.1016 22 44.1016 21.9C44.1016 21.8 44.1016 21.7 44.2016 21.7C44.4016 21.7 44.6015 21.7 44.8015 21.7C44.9015 21.7 44.9016 21.6999 45.0016 21.7999C45.0016 21.8999 45.0016 22 45.0016 22.1C45.0016 22.2 45.0016 22.2 44.9016 22.2C44.8016 22.3 44.7016 22.2999 44.6016 22.2999Z" fill="#1D1D23"/>
<path opacity="0.2" fill-rule="evenodd" clip-rule="evenodd" d="M44.6016 23.6H44.3015C44.2015 23.6 44.1016 23.6 44.1016 23.5C44.1016 23.4 44.1016 23.3 44.1016 23.2C44.1016 23.1 44.1016 23 44.2016 23C44.4016 23 44.6015 23 44.8015 23C44.9015 23 44.9016 23 45.0016 23.1C45.0016 23.2 45.0016 23.3 45.0016 23.4C45.0016 23.5 45.0016 23.5 44.9016 23.5C44.9016 23.6 44.7016 23.6 44.6016 23.6Z" fill="#1D1D23"/>
<path opacity="0.2" fill-rule="evenodd" clip-rule="evenodd" d="M44.6992 24.9H44.3992C44.2992 24.9 44.1992 24.8999 44.1992 24.7999C44.1992 24.6999 44.1992 24.6 44.1992 24.5C44.1992 24.4 44.1992 24.2999 44.2992 24.2999C44.4992 24.2999 44.6992 24.2999 44.8992 24.2999C44.9992 24.2999 44.9992 24.3 45.0992 24.4C45.0992 24.5 45.0992 24.6 45.0992 24.7C45.0992 24.8 45.0992 24.7999 44.9992 24.7999C44.8992 24.8999 44.7992 24.9 44.6992 24.9Z" fill="#1D1D23"/>
<path opacity="0.2" fill-rule="evenodd" clip-rule="evenodd" d="M44.8008 26.2999H44.5008C44.4008 26.2999 44.3008 26.3 44.3008 26.2C44.3008 26.1 44.3008 26 44.3008 25.9C44.3008 25.8 44.3008 25.7 44.4008 25.7C44.6008 25.7 44.8008 25.7 45.0008 25.7C45.1008 25.7 45.1008 25.6999 45.2008 25.7999C45.2008 25.8999 45.2008 26 45.2008 26.1C45.2008 26.2 45.2008 26.2 45.1008 26.2C45.0008 26.2 44.9008 26.2999 44.8008 26.2999Z" fill="#1D1D23"/>
<path opacity="0.2" fill-rule="evenodd" clip-rule="evenodd" d="M44.8008 27.6H44.5008C44.4008 27.6 44.3008 27.6 44.3008 27.5C44.3008 27.4 44.3008 27.3 44.3008 27.2C44.3008 27.1 44.3008 27 44.4008 27C44.6008 27 44.8008 27 45.0008 27C45.1008 27 45.1008 27 45.2008 27.1C45.2008 27.2 45.2008 27.3 45.2008 27.4C45.2008 27.5 45.2008 27.5 45.1008 27.5C45.1008 27.6 45.0008 27.6 44.8008 27.6Z" fill="#1D1D23"/>
<path opacity="0.2" fill-rule="evenodd" clip-rule="evenodd" d="M44.8984 28.9H44.5984C44.4984 28.9 44.3984 28.8999 44.3984 28.7999C44.3984 28.6999 44.3984 28.6 44.3984 28.5C44.3984 28.4 44.3984 28.2999 44.4984 28.2999C44.6984 28.2999 44.8984 28.2999 45.0984 28.2999C45.1984 28.2999 45.1984 28.3 45.2984 28.4C45.2984 28.5 45.2984 28.6 45.2984 28.7C45.2984 28.8 45.2985 28.7999 45.1985 28.7999C45.0985 28.8999 44.9984 28.9 44.8984 28.9Z" fill="#1D1D23"/>
<path opacity="0.2" fill-rule="evenodd" clip-rule="evenodd" d="M45 30.2H44.7C44.6 30.2 44.5 30.2 44.5 30.1C44.5 30 44.5 29.8999 44.5 29.7999C44.5 29.6999 44.5 29.6 44.6 29.6C44.8 29.6 45 29.6 45.2 29.6C45.3 29.6 45.3 29.6 45.4 29.7C45.4 29.8 45.4 29.9 45.4 30C45.4 30.1 45.4 30.1 45.3 30.1C45.2 30.2 45.1 30.2 45 30.2Z" fill="#1D1D23"/>
<path opacity="0.2" fill-rule="evenodd" clip-rule="evenodd" d="M45 31.6H44.7C44.6 31.6 44.5 31.6 44.5 31.5C44.5 31.4 44.5 31.3 44.5 31.2C44.5 31.1 44.5 31 44.6 31C44.8 31 45 31 45.2 31C45.3 31 45.3 31 45.4 31.1C45.4 31.2 45.4 31.3 45.4 31.4C45.4 31.5 45.4 31.5 45.3 31.5C45.3 31.6 45.2 31.6 45 31.6Z" fill="#1D1D23"/>
<path opacity="0.2" fill-rule="evenodd" clip-rule="evenodd" d="M45.1016 32.9H44.8015C44.7015 32.9 44.6016 32.8999 44.6016 32.7999C44.6016 32.6999 44.6016 32.6 44.6016 32.5C44.6016 32.4 44.6016 32.2999 44.7016 32.2999C44.9016 32.2999 45.1015 32.2999 45.3015 32.2999C45.4015 32.2999 45.4016 32.3 45.5016 32.4C45.5016 32.5 45.5016 32.6 45.5016 32.7C45.5016 32.8 45.5016 32.7999 45.4016 32.7999C45.3016 32.8999 45.2016 32.9 45.1016 32.9Z" fill="#1D1D23"/>
<path opacity="0.2" fill-rule="evenodd" clip-rule="evenodd" d="M45.1992 34.2H44.8992C44.7992 34.2 44.6992 34.2 44.6992 34.1C44.6992 34 44.6992 33.8999 44.6992 33.7999C44.6992 33.6999 44.6992 33.6 44.7992 33.6C44.9992 33.6 45.1992 33.6 45.3992 33.6C45.4992 33.6 45.4992 33.6 45.5992 33.7C45.5992 33.8 45.5992 33.9 45.5992 34C45.5992 34.1 45.5992 34.1 45.4992 34.1C45.3992 34.2 45.2992 34.2 45.1992 34.2Z" fill="#1D1D23"/>
<path opacity="0.2" fill-rule="evenodd" clip-rule="evenodd" d="M45.1992 35.6H44.8992C44.7992 35.6 44.6992 35.6 44.6992 35.5C44.6992 35.4 44.6992 35.3 44.6992 35.2C44.6992 35.1 44.6992 35 44.7992 35C44.9992 35 45.1992 35 45.3992 35C45.4992 35 45.4992 35 45.5992 35.1C45.5992 35.2 45.5992 35.3 45.5992 35.4C45.5992 35.5 45.5992 35.5 45.4992 35.5C45.4992 35.5 45.3992 35.6 45.1992 35.6Z" fill="#1D1D23"/>
<path opacity="0.2" fill-rule="evenodd" clip-rule="evenodd" d="M45.3008 36.9H45.0008C44.9008 36.9 44.8008 36.8999 44.8008 36.7999C44.8008 36.6999 44.8008 36.6 44.8008 36.5C44.8008 36.4 44.8008 36.2999 44.9008 36.2999C45.1008 36.2999 45.3008 36.2999 45.5008 36.2999C45.6008 36.2999 45.6008 36.3 45.7008 36.4C45.7008 36.5 45.7008 36.6 45.7008 36.7C45.7008 36.8 45.7008 36.7999 45.6008 36.7999C45.5008 36.8999 45.4008 36.9 45.3008 36.9Z" fill="#1D1D23"/>
<path opacity="0.2" fill-rule="evenodd" clip-rule="evenodd" d="M45.3984 38.2H45.0984C44.9984 38.2 44.8984 38.2 44.8984 38.1C44.8984 38 44.8984 37.8999 44.8984 37.7999C44.8984 37.6999 44.8984 37.6 44.9984 37.6C45.1984 37.6 45.3984 37.6 45.5984 37.6C45.6984 37.6 45.6984 37.6 45.7984 37.7C45.7984 37.8 45.7984 37.9 45.7984 38C45.7984 38.1 45.7985 38.1 45.6985 38.1C45.5985 38.2 45.4984 38.2 45.3984 38.2Z" fill="#1D1D23"/>
<path opacity="0.2" fill-rule="evenodd" clip-rule="evenodd" d="M45.3984 39.5H45.0984C44.9984 39.5 44.8984 39.5 44.8984 39.4C44.8984 39.3 44.8984 39.2 44.8984 39.1C44.8984 39 44.8984 38.9 44.9984 38.9C45.1984 38.9 45.3984 38.9 45.5984 38.9C45.6984 38.9 45.6984 38.9 45.7984 39C45.7984 39.1 45.7984 39.1999 45.7984 39.2999C45.7984 39.3999 45.7985 39.4 45.6985 39.4C45.6985 39.5 45.5984 39.5 45.3984 39.5Z" fill="#1D1D23"/>
<path opacity="0.2" fill-rule="evenodd" clip-rule="evenodd" d="M44.5 20.9H44.2C44.1 20.9 44 20.8999 44 20.7999C44 20.6999 44 20.6 44 20.5C44 20.4 44 20.2999 44.1 20.2999C44.3 20.2999 44.5 20.2999 44.7 20.2999C44.8 20.2999 44.8 20.3 44.9 20.4C44.9 20.5 44.9 20.6 44.9 20.7C44.9 20.8 44.9 20.7999 44.8 20.7999C44.8 20.8999 44.6 20.9 44.5 20.9Z" fill="#1D1D23"/>
<path opacity="0.2" d="M54.0008 35.7C54.0008 36.3 53.6008 36.7999 53.0008 36.7999L47.5008 37.1C46.9008 37.1 46.4008 36.7 46.4008 36.1L46.3008 33.7999C46.3008 33.1999 46.7008 32.7 47.3008 32.7L52.8008 32.4C53.4008 32.4 53.9008 32.8 53.9008 33.4L54.0008 35.7Z" fill="#1D1D23"/>
<path opacity="0.2" d="M53.7 29.5C53.7 30.1 53.3 30.6 52.7 30.6L47.2 30.9C46.6 30.9 46.1 30.5 46.1 29.9L46 27.6C46 27 46.4 26.5 47 26.5L52.5 26.2C53.1 26.2 53.6 26.6 53.6 27.2L53.7 29.5Z" fill="#1D1D23"/>
<path opacity="0.2" d="M53.3015 23.2C53.3015 23.8 52.9015 24.2999 52.3015 24.2999L46.8015 24.6C46.2015 24.6 45.7016 24.2 45.7016 23.6L45.6016 21.2999C45.6016 20.6999 46.0016 20.2 46.6016 20.2L52.1016 19.9C52.7016 19.9 53.2016 20.3 53.2016 20.9L53.3015 23.2Z" fill="#1D1D23"/>
<path opacity="0.2" d="M53.0008 17C53.0008 17.6 52.6008 18.1 52.0008 18.1L46.5008 18.4C45.9008 18.4 45.4008 18 45.4008 17.4L45.3008 15.1C45.3008 14.5 45.7008 14 46.3008 14L51.8008 13.7C52.4008 13.7 52.9008 14.1 52.9008 14.7L53.0008 17Z" fill="#1D1D23"/>
<path d="M13.8984 8L34.2984 36.2999L54.7984 8.09998H42.2984L34.3984 18L26.2984 8.09998L13.8984 8Z" fill="white"/>
</g>
</svg>
