<svg width="180" height="50" viewBox="0 0 180 50" fill="none" xmlns="http://www.w3.org/2000/svg">
<g opacity="0.7">
<path d="M21.8531 4.47838L4.35313 24.6785C3.85313 25.2785 3.85315 26.2784 4.55315 26.7784C4.85315 26.9784 5.15315 27.1785 5.55315 27.1785H18.0531C18.7531 27.1785 19.3531 26.6785 19.5531 26.0785L24.5531 5.8784C24.7531 5.0784 24.2531 4.27848 23.4531 4.07848C22.8531 3.87848 22.2531 4.07838 21.8531 4.47838Z" fill="white"/>
<path d="M28.0089 22.2185H21.409L20.409 26.3185C20.109 27.4185 19.1089 28.2185 18.0089 28.2185H12.809L9.00894 43.6185C8.80894 44.4185 9.30895 45.2185 10.109 45.4185C10.609 45.5185 11.209 45.4185 11.609 44.9185L29.109 24.7185C29.609 24.1185 29.609 23.1185 28.909 22.6185C28.709 22.3185 28.3089 22.2185 28.0089 22.2185Z" fill="white"/>
<path d="M35.707 30.8083V19.0084H38.907V20.0084C39.807 19.2084 40.907 18.8083 42.107 18.8083H42.907L42.107 22.0084H41.607C40.107 22.0084 38.907 23.1084 38.907 24.6084V30.8083H35.707Z" fill="white"/>
<path d="M45.007 29.2084C42.607 26.8084 42.607 22.9084 45.007 20.5084C46.207 19.4084 47.707 18.7084 49.307 18.7084C50.407 18.7084 51.407 19.1084 52.207 19.9084L52.307 20.0084V19.0084H55.407V30.8083H52.307V29.9084L52.207 30.0084C51.407 30.7084 50.407 31.1084 49.307 31.0084C47.707 31.0084 46.107 30.4084 45.007 29.2084ZM46.307 24.9084C46.307 26.6084 47.707 27.9084 49.407 27.9084C51.107 27.9084 52.407 26.5083 52.407 24.8083C52.407 23.2083 51.007 21.8083 49.407 21.8083C47.607 21.8083 46.307 23.2084 46.307 24.9084Z" fill="white"/>
<path d="M58.9055 29.2084C56.5055 26.8084 56.5055 22.9084 58.9055 20.5084C60.1055 19.4084 61.6055 18.7084 63.2055 18.7084C64.3055 18.7084 65.3055 19.1084 66.1055 19.9084L66.2055 20.0084V13.4084L69.3055 11.9084V30.8083H66.2055V29.9084L66.1055 30.0084C65.3055 30.7084 64.3055 31.1084 63.2055 31.0084C61.6055 31.0084 60.1055 30.4084 58.9055 29.2084ZM60.2055 24.9084C60.2055 26.6084 61.6055 27.9084 63.3055 27.9084C65.0055 27.9084 66.3055 26.5083 66.3055 24.8083C66.3055 23.2083 64.9055 21.8083 63.3055 21.8083C61.6055 21.8083 60.2055 23.2084 60.2055 24.9084Z" fill="white"/>
<path d="M72.6055 15.6084C72.6055 15.1084 72.8055 14.6084 73.2055 14.2084C73.6055 13.8084 74.1055 13.6084 74.6055 13.6084C75.7055 13.6084 76.6055 14.5084 76.6055 15.6084C76.6055 16.7084 75.7055 17.6084 74.6055 17.6084C73.5055 17.6084 72.6055 16.7084 72.6055 15.6084ZM73.0055 30.8083V19.0084H76.3055V30.8083H73.0055Z" fill="white"/>
<path d="M80.3078 29.2084C79.2078 28.0084 78.5078 26.5083 78.5078 24.8083C78.5078 21.4083 81.2078 18.7084 84.6078 18.7084H84.7078C86.3078 18.7084 87.9078 19.3084 89.0078 20.5084C91.4078 22.9084 91.4078 26.8084 89.0078 29.2084C87.8078 30.4084 86.3078 31.0084 84.6078 31.0084C83.1078 31.0084 81.5078 30.4084 80.3078 29.2084ZM81.6078 24.9084C81.6078 26.6084 83.1078 28.0084 84.8078 28.0084C86.5078 28.0084 87.9078 26.5083 87.9078 24.8083C87.9078 23.1083 86.5078 21.7084 84.7078 21.7084C82.9078 21.7084 81.5078 23.1084 81.6078 24.9084Z" fill="white"/>
<path d="M93.407 26.9084V21.1084H91.707V19.0084H93.407V15.5084L95.607 14.5084V19.0084H99.207V21.1084H95.607V26.8083C95.607 27.8083 96.407 28.6084 97.307 28.6084H99.307L99.907 30.7084H97.307C95.107 30.8084 93.407 29.0084 93.407 26.9084Z" fill="white"/>
<path d="M111.308 25.4084H102.208V25.5084C102.308 27.3084 103.808 28.8084 105.608 28.9084C106.708 28.9084 107.708 28.4083 108.508 27.7083L110.308 28.8083C109.808 29.3083 109.308 29.8084 108.708 30.1084C107.808 30.6084 106.708 30.9084 105.608 31.0084C104.108 31.0084 102.608 30.3083 101.608 29.2083C100.708 28.2083 100.108 26.9084 100.008 25.5084C100.008 25.3084 100.008 25.1084 100.008 25.0084C100.008 24.5084 100.108 24.1084 100.208 23.6084C100.408 22.5084 100.908 21.6083 101.708 20.7083C103.708 18.5083 107.108 18.3083 109.308 20.3083C109.408 20.4083 109.608 20.5083 109.708 20.7083C110.408 21.5083 110.908 22.5084 111.208 23.6084C111.308 24.2084 111.408 24.8084 111.308 25.4084ZM109.008 23.6084C108.508 22.1084 107.208 21.1084 105.708 21.0084C104.208 21.1084 102.908 22.1084 102.408 23.5084V23.6084H109.008Z" fill="white"/>
<path d="M115.208 20.2084C115.908 19.4084 118.108 18.7084 119.508 18.7084L119.008 20.9084C117.008 20.8084 115.308 22.4084 115.208 24.4084V30.7084H113.008V18.9084H115.208V20.2084Z" fill="white"/>
<path d="M129.807 19.0084H132.007V30.8083H129.807V29.4084C128.707 30.4084 127.307 31.0084 125.807 31.0084C122.407 31.0084 119.707 28.3084 119.707 24.9084C119.707 21.5084 122.407 18.8083 125.807 18.8083C127.307 18.9083 128.707 19.4084 129.807 20.4084V19.0084ZM129.807 24.9084C129.807 22.7084 128.007 21.0084 125.807 21.0084C123.607 21.0084 121.907 22.8084 121.907 25.0084C121.907 27.2084 123.707 28.9084 125.907 28.9084C128.107 28.8084 129.807 27.1084 129.807 24.9084Z" fill="white"/>
<path d="M143.608 19.0084H145.808V36.4084L143.608 37.5084V29.4084C142.508 30.4084 141.108 31.0084 139.608 31.0084C136.208 31.0084 133.508 28.3084 133.508 24.9084C133.508 21.5084 136.208 18.8083 139.608 18.8083C141.108 18.9083 142.508 19.4084 143.608 20.4084V19.0084ZM143.608 24.9084C143.608 22.7084 141.808 21.0084 139.608 21.0084C137.408 21.0084 135.708 22.8084 135.708 25.0084C135.708 27.2084 137.508 28.9084 139.708 28.9084C141.808 28.8084 143.608 27.1084 143.608 24.9084Z" fill="white"/>
<path d="M148.207 25.7084V19.0084H150.407V25.7084C150.507 27.5084 152.007 28.9083 153.707 28.8083C155.407 28.7083 156.807 27.4084 156.807 25.7084V19.0084H159.007V25.7084C159.007 27.1084 158.407 28.5084 157.407 29.5084C155.207 31.5084 151.907 31.5084 149.707 29.5084C148.707 28.5084 148.207 27.1084 148.207 25.7084Z" fill="white"/>
<path d="M161.707 15.6084C161.707 14.8084 162.407 14.2084 163.207 14.2084C164.007 14.2084 164.607 14.8084 164.607 15.6084C164.607 16.4084 164.007 17.1084 163.207 17.1084C162.407 17.1084 161.707 16.5084 161.707 15.6084C161.707 15.7084 161.707 15.7084 161.707 15.6084ZM162.107 19.0084H164.307V30.8083H162.107V19.0084Z" fill="white"/>
<path d="M175.906 19.0084V21.2084L169.706 28.7084H175.906V30.8083H166.906V28.6084L173.106 21.1084H166.906V19.0084H175.906Z" fill="white"/>
</g>
</svg>
