<svg width="180" height="50" viewBox="0 0 180 50" fill="none" xmlns="http://www.w3.org/2000/svg">
<g opacity="0.7">
<path d="M43.8036 43.2658C41.4915 43.2658 39.2684 42.3765 37.5788 40.687C35.8892 39.0863 35 36.8632 35 34.5511V6.09509H40.4244V34.5511C40.4244 35.3514 40.7801 36.2407 41.4026 36.7742C42.0251 37.3967 42.8254 37.7524 43.6257 37.6635C45.4042 37.6635 46.7381 36.2407 46.827 34.5511V6.09509H52.6072V34.5511C52.6961 36.8632 51.7179 39.1752 50.0283 40.7759C48.4277 42.3765 46.2046 43.2658 43.8036 43.2658Z" fill="white"/>
<path d="M63.6326 6.00607C66.0336 5.91715 68.4346 6.80642 70.1242 8.58492C71.6359 10.2745 72.4362 12.4976 72.3473 14.8097V20.1452C72.3473 22.4572 71.458 24.6804 69.7685 26.3699C68.1678 28.0595 65.9447 28.9488 63.6326 28.9488H60.4313V42.8211H54.918V6.09497H63.6326V6.00607ZM66.9229 14.8986C66.9229 14.0093 66.6561 13.209 66.0336 12.5865C65.4111 11.9641 64.6108 11.6973 63.7216 11.6973H60.3424V23.4354H63.6326C64.5219 23.4354 65.3222 23.0797 65.8558 22.4572C66.4782 21.8347 66.745 21.0344 66.745 20.2341L66.9229 14.8986Z" fill="white"/>
<path d="M91.4684 34.0176C91.4684 36.3296 90.5791 38.5528 88.8896 40.2423C87.2889 41.9319 85.0658 42.8212 82.7537 42.8212H74.0391V6.09509H82.7537C85.0658 6.09509 87.2889 6.98437 88.8896 8.67394C90.5791 10.2746 91.4684 12.4977 91.4684 14.8987V34.0176ZM79.5524 37.3078H82.8426C83.7319 37.3078 84.5322 36.9521 85.0658 36.3296C85.6882 35.7071 85.955 34.9068 85.955 34.1065V14.8987C85.955 14.0984 85.5993 13.2091 85.0658 12.6756C84.5322 12.0531 83.7319 11.6974 82.8426 11.6974H79.4635L79.5524 37.3078Z" fill="white"/>
<path d="M99.6492 34.2843L98.3153 42.7322H92.5352L98.7599 6.0061H106.407L112.543 42.7322H106.763L105.429 34.2843H99.6492ZM102.584 14.454L100.538 28.9488H104.629L102.584 14.454Z" fill="white"/>
<path d="M115.299 11.5194H109.43V6.0061H126.681V11.5194H120.812V42.7322H115.299V11.5194Z" fill="white"/>
<path d="M128.461 42.7322V6.0061H144.201V11.5194H133.974V21.568H144.201V27.0813H133.974V37.1299H144.201V42.6432H128.461V42.7322Z" fill="white"/>
</g>
</svg>
