<svg width="180" height="50" viewBox="0 0 180 50" fill="none" xmlns="http://www.w3.org/2000/svg">
<g opacity="0.7" clip-path="url(#clip0_1462_655)">
<path d="M158.434 39.6364C158.697 39.2388 159.074 38.9289 159.517 38.7468C159.959 38.5647 160.447 38.5188 160.916 38.615C161.207 38.6619 161.484 38.776 161.723 38.9482C162.122 39.2098 162.434 39.5843 162.617 40.0234C162.799 40.4625 162.846 40.946 162.749 41.4114C162.702 41.7007 162.587 41.975 162.414 42.2123C162.151 42.6093 161.774 42.9188 161.332 43.1007C160.89 43.2826 160.403 43.3285 159.934 43.2326C159.644 43.186 159.368 43.0726 159.129 42.9012C158.729 42.6401 158.417 42.2655 158.233 41.826C158.05 41.3866 158.003 40.9025 158.1 40.4365C158.147 40.1476 158.261 39.8736 158.434 39.6364ZM161.663 39.6934C161.454 39.4826 161.194 39.3283 160.908 39.2451C160.622 39.1618 160.319 39.1524 160.028 39.2177C159.834 39.2516 159.65 39.3279 159.489 39.4411C159.238 39.5994 159.031 39.8184 158.888 40.0777C158.745 40.337 158.67 40.6281 158.671 40.9237C158.672 41.3853 158.857 41.8276 159.186 42.154C159.515 42.4804 159.96 42.6642 160.425 42.6653C160.722 42.6663 161.015 42.5923 161.276 42.4502C161.537 42.3082 161.758 42.1026 161.917 41.8529C162.031 41.6931 162.108 41.5102 162.142 41.3174C162.208 41.0286 162.198 40.7279 162.115 40.4437C162.031 40.1596 161.875 39.9014 161.663 39.6934ZM159.711 39.7086H160.343C160.968 39.7086 161.281 39.9483 161.281 40.4275C161.292 40.5648 161.257 40.7019 161.181 40.8174C161.106 40.9328 160.994 41.0201 160.863 41.0655L161.322 41.9768H160.812L160.435 41.1465H160.21V41.9768H159.711V39.7086ZM160.21 40.1542V40.7111H160.343C160.471 40.7186 160.599 40.7014 160.72 40.6605C160.795 40.6268 160.832 40.5492 160.832 40.4276C160.832 40.306 160.797 40.2301 160.725 40.1998C160.602 40.1622 160.472 40.1467 160.343 40.1542L160.21 40.1542Z" fill="white"/>
<path d="M148.874 17.8832V7.98191C148.032 7.81205 147.176 7.72675 146.318 7.7273H136.093C134.414 7.72592 132.752 8.05334 131.2 8.69082C129.649 9.32831 128.24 10.2633 127.053 11.4424C125.866 12.6215 124.924 14.0216 124.283 15.5624C123.641 17.1032 123.311 18.7546 123.313 20.4221V30.578C123.312 31.4307 123.398 32.2813 123.569 33.1169H133.537V17.8832H148.874Z" fill="white"/>
<path d="M158.84 17.8832H148.872V33.117H133.535V43.0182C134.376 43.188 135.233 43.2733 136.091 43.2728H146.316C147.995 43.2741 149.657 42.9467 151.208 42.3092C152.76 41.6717 154.169 40.7367 155.356 39.5576C156.543 38.3785 157.484 36.9785 158.126 35.4377C158.768 33.8968 159.098 32.2454 159.096 30.578V20.4221C159.097 19.5694 159.011 18.7188 158.84 17.8832Z" fill="white"/>
<path d="M60.488 16.8328V23.5803C57.5834 23.5803 55.4517 24.3561 54.093 25.9073C52.754 27.4064 52.0272 29.3483 52.055 31.3521V43.2653H45.2148V17.3912H52.055V21.114C52.986 19.7857 54.2333 18.7066 55.6858 17.973C57.1702 17.2127 58.818 16.8214 60.488 16.8328Z" fill="white"/>
<path d="M63.2266 20.067H69.739V43.2652H63.2266V20.067Z" fill="white"/>
<path d="M73.0781 10.3641H79.5913V16.5031C79.5913 16.5905 79.6262 16.6744 79.6885 16.7362C79.7507 16.798 79.8351 16.8327 79.9231 16.8327H91.7568C91.7785 16.8327 91.7998 16.8389 91.8181 16.8505C91.8365 16.8621 91.8511 16.8786 91.8604 16.8982C91.8696 16.9177 91.873 16.9395 91.8702 16.9609C91.8674 16.9823 91.8585 17.0025 91.8446 17.0191L86.372 23.261C86.3613 23.2738 86.3479 23.2841 86.3327 23.2912C86.3175 23.2982 86.3009 23.3019 86.2842 23.3019H79.9231C79.8351 23.3019 79.7507 23.3366 79.6884 23.3984C79.6262 23.4602 79.5912 23.5441 79.5912 23.6315V32.7481C79.5862 33.3698 79.6175 33.9913 79.6849 34.6095C79.7501 35.1491 79.8759 35.6798 80.0598 36.1917C80.2176 36.6797 80.5299 37.1041 80.95 37.4017C81.4096 37.6962 81.9496 37.8425 82.4961 37.8204C83.1984 37.8232 83.8958 37.7051 84.5575 37.4714C85.1782 37.2015 85.7748 36.8801 86.3411 36.5106L89.4021 41.0585C89.4021 41.0585 88.4141 41.7668 87.9532 42.0552C87.2545 42.4924 86.5175 42.8663 85.7512 43.1721C84.5679 43.6456 83.3022 43.8828 82.0266 43.8701C80.6109 43.9051 79.2044 43.6352 77.9038 43.079C76.8715 42.6453 75.9624 41.9662 75.2566 41.1013C74.5795 40.1649 74.094 39.1056 73.8278 37.9834C73.5038 36.8115 73.292 35.6117 73.1953 34.4001C73.117 33.2992 73.0779 31.9418 73.0781 30.3282V23.3019H79.2594C79.303 23.3019 79.3462 23.2934 79.3864 23.2768C79.4267 23.2602 79.4633 23.236 79.4941 23.2053C79.5249 23.1747 79.5493 23.1384 79.566 23.0984C79.5827 23.0584 79.5913 23.0156 79.5913 22.9723V17.1623C79.5913 17.0749 79.5563 16.9911 79.4941 16.9293C79.4319 16.8675 79.3474 16.8327 79.2594 16.8327H73.0781V10.3641Z" fill="white"/>
<path d="M102.137 16.8327C103.729 16.7956 105.311 17.0796 106.789 17.6675C108.267 18.2554 109.609 19.1351 110.734 20.2532C113.061 22.5334 114.224 25.7987 114.225 30.049C114.235 30.7638 114.204 31.4785 114.131 32.1897H95.4846C95.7273 33.7732 96.5335 35.2179 97.7568 36.2615C98.9524 37.2678 100.477 37.8057 102.044 37.774C103.178 37.8159 104.303 37.5472 105.294 36.9974C106.286 36.4475 107.106 35.6376 107.666 34.6561L113.522 37.5879C112.364 39.5139 110.716 41.103 108.743 42.195C106.695 43.3241 104.386 43.9016 102.044 43.8702C100.273 43.9161 98.511 43.6012 96.8672 42.9449C95.2234 42.2887 93.7324 41.3049 92.4861 40.0542C91.2117 38.7791 90.2135 37.2584 89.5528 35.5857C88.8921 33.9131 88.583 32.1239 88.6444 30.3282C88.5877 28.5486 88.8973 26.7762 89.5541 25.1196C90.211 23.463 91.2012 21.9569 92.4643 20.6936C93.7274 19.4303 95.2368 18.4362 96.9001 17.7724C98.5633 17.1085 100.345 16.7888 102.137 16.8327ZM102.044 22.8824C100.742 22.8702 99.4675 23.2516 98.3893 23.976C97.2916 24.7102 96.4426 25.7563 95.9531 26.9775H107.385C107.347 25.9297 106.902 24.937 106.143 24.2087C105.588 23.7193 104.938 23.3489 104.233 23.1207C103.527 22.8925 102.782 22.8114 102.044 22.8824Z" fill="white"/>
<path d="M16.2109 7.12988H23.0877V19.4951C24.086 18.5432 25.2691 17.8033 26.5648 17.3207C27.8605 16.8381 29.2416 16.6228 30.6239 16.688C32.3337 16.625 34.0371 16.9288 35.618 17.5786C37.1989 18.2285 38.6202 19.2092 39.7851 20.454C42.1916 23.1446 43.45 26.6596 43.2941 30.2553C43.4472 33.8578 42.1896 37.3791 39.7851 40.0804C38.6239 41.3314 37.2039 42.3179 35.6225 42.9721C34.0411 43.6263 32.3358 43.9327 30.6239 43.8702C29.2383 43.929 27.8552 43.7062 26.5593 43.2154C25.2635 42.7246 24.0822 41.9761 23.0877 41.0159V43.2618H16.2109V7.12988ZM34.7218 24.8752C34.1159 24.195 33.3679 23.6542 32.53 23.2907C31.6921 22.9271 30.7844 22.7495 29.8703 22.7701C28.9561 22.7493 28.0484 22.9268 27.2105 23.2904C26.3725 23.654 25.6246 24.1948 25.0188 24.8752C23.7026 26.3552 23.0111 28.282 23.0877 30.2553C23.0136 32.2353 23.7045 34.1686 25.0188 35.6592C25.6209 36.3456 26.3676 36.8921 27.206 37.26C28.0444 37.6279 28.954 37.8082 29.8703 37.7881C30.7866 37.808 31.6961 37.6276 32.5345 37.2597C33.3728 36.8918 34.1196 36.3455 34.7218 35.6592C36.0358 34.1685 36.7266 32.2353 36.6529 30.2553C36.7292 28.282 36.0377 26.3554 34.7218 24.8752Z" fill="white"/>
<path d="M69.739 10.3641H63.2266V16.8327H69.739V10.3641Z" fill="white"/>
</g>
<defs>
<clipPath id="clip0_1462_655">
<rect width="149" height="37" fill="white" transform="translate(15 7)"/>
</clipPath>
</defs>
</svg>
