<svg width="180" height="50" viewBox="0 0 180 50" fill="none" xmlns="http://www.w3.org/2000/svg">
<path opacity="0.7" d="M86.3551 3H62.4226C59.7729 3 60.7131 5.21591 60.7131 5.21591L72.252 34.5341C73.3631 37.517 73.4486 39.9034 72.5084 41.608C71.7391 43.2273 70.2861 44.3352 68.5766 44.7614C66.8672 45.1023 65.0722 44.8466 63.5337 43.9943C61.9097 43.0568 60.884 41.4375 60.6276 39.1364C60.1148 37.2614 60.7986 35.2159 62.679 33C64.5594 30.9545 65.6705 28.3125 65.927 25.5852C66.0979 24.1364 65.6705 22.7727 64.7303 21.6648C63.7901 20.5568 62.5935 19.7045 61.1405 19.1932C59.6874 18.6818 58.0634 18.5114 56.5249 18.767C54.8154 19.0227 53.3624 19.875 52.1658 21.0682C50.3708 22.9432 49.0887 25.5852 48.405 28.9091C47.7212 32.3182 47.8921 35.8125 49.0033 39.0511C49.6871 41.1818 51.311 43.2273 53.8752 45.1875C56.183 46.9773 59.0036 48 61.9097 48C61.9097 48 84.1328 48 86.0986 48C87.7226 48 87.7226 45.8693 87.7226 45.8693V4.44886C87.7226 3.42614 86.3551 3 86.3551 3ZM131.058 11.9489C130.374 9.81818 128.75 7.77273 126.186 5.8125C123.878 3.9375 121.057 3 118.151 3H93.9622C92.3382 3 92.3382 5.13068 92.3382 5.13068V46.4659C92.3382 47.5739 93.7058 48 93.7058 48H117.638C120.288 48 119.348 45.7841 119.348 45.7841L107.809 16.5511C106.698 13.5682 106.612 11.1818 107.552 9.47727C108.322 7.85795 109.775 6.75 111.484 6.32386C113.194 5.98295 114.989 6.23864 116.527 7.09091C118.151 8.02841 119.177 9.73295 119.433 11.9489C119.946 13.8239 119.262 15.8693 117.382 18.0852C115.501 20.1307 114.39 22.7727 114.134 25.5C113.963 26.9489 114.39 28.3125 115.33 29.4205C116.271 30.5284 117.467 31.3807 118.92 31.892C120.373 32.4034 121.997 32.4886 123.536 32.3182C125.16 32.0625 126.698 31.2955 127.895 30.017C129.69 28.142 130.972 25.5 131.656 22.1761C132.254 18.767 132.083 15.2727 131.058 11.9489Z" fill="white"/>
</svg>
