<svg width="180" height="50" viewBox="0 0 180 50" fill="none" xmlns="http://www.w3.org/2000/svg">
<g opacity="0.7" clip-path="url(#clip0_1462_659)">
<path d="M147.688 15.36H147.328V15.85H147.698C147.888 15.85 147.998 15.76 147.998 15.61C147.998 15.43 147.878 15.36 147.688 15.36Z" fill="white"/>
<path d="M138.62 21.1501H136.18V24.7601H138.62C139.61 24.7301 140.4 23.9301 140.42 22.9401C140.43 22.4601 140.24 21.9901 139.88 21.6601C139.55 21.3201 139.09 21.1401 138.61 21.1501" fill="white"/>
<path d="M88.9297 21.44C87.0197 21.42 85.4697 22.96 85.4497 24.86C85.4497 24.88 85.4497 24.9 85.4497 24.92C85.4197 26.81 86.9397 28.37 88.8297 28.4H88.9297C89.8497 28.41 90.7297 28.05 91.3797 27.39C92.0697 26.75 92.4497 25.85 92.4297 24.92C92.4497 23.98 92.0697 23.09 91.3797 22.46C90.7397 21.8 89.8497 21.43 88.9297 21.44Z" fill="white"/>
<path d="M17.9 4L12 45.85H161.41L167.32 4H17.9ZM48.83 33.95H43.22L43.04 34.06L38.31 27.25V33.96H32.31V15.79H38.15L42.84 22.43V15.79H48.83V33.95ZM63.59 21.18H56.28V22.66H61.2V27.59H56.28V33.96H50.31V15.79H63.59V21.18ZM75.64 21.18V33.95H69.67V21.18H65.07V15.79H81.88L78.89 21.18H75.65H75.64ZM95.36 31.35C91.81 34.92 86.03 34.94 82.46 31.39C78.89 27.84 78.87 22.06 82.42 18.49C85.97 14.91 91.75 14.9 95.32 18.45C95.34 18.46 95.35 18.48 95.36 18.49C98.91 21.96 98.98 27.65 95.51 31.2C95.46 31.25 95.41 31.3 95.36 31.35ZM108.14 26.3V33.95H101.89V26.3L96.09 15.79H102.43L105.02 20.5L107.62 15.79H113.95L108.14 26.3ZM128.7 33.95H115.42V15.79H128.67V21.18H121.41V22.66H126.26V27.08H121.41V28.56H128.69V33.95H128.7ZM139.51 33.95L137.03 30.64H136.18V33.95H130.18V15.79H138.62C140.67 15.74 142.65 16.54 144.08 18C145.49 19.26 146.31 21.05 146.35 22.94C146.38 25 145.56 26.98 144.08 28.4C143.85 28.63 143.61 28.85 143.35 29.05L147.01 33.94H139.51V33.95ZM149.5 15.94C149.5 16.99 148.66 17.84 147.61 17.84C146.56 17.84 145.71 17 145.71 15.95C145.71 14.89 146.55 14.04 147.6 14.04C148.65 14.04 149.5 14.88 149.5 15.93V15.94Z" fill="white"/>
<path d="M147.611 14.24C146.681 14.24 145.931 14.99 145.931 15.91V15.94C145.901 16.88 146.631 17.65 147.561 17.67C148.481 17.7 149.261 16.97 149.281 16.04C149.281 16.01 149.281 15.97 149.281 15.94C149.301 15.01 148.561 14.26 147.651 14.24C147.651 14.24 147.631 14.24 147.621 14.24M148.001 16.89L147.591 16.28H147.341V16.89H146.781V14.87H147.721C147.971 14.85 148.211 14.93 148.401 15.09C148.521 15.21 148.581 15.38 148.571 15.55C148.581 15.83 148.411 16.08 148.161 16.18L148.641 16.88H148.001V16.89Z" fill="white"/>
</g>
<defs>
<clipPath id="clip0_1462_659">
<rect width="155.32" height="41.85" fill="white" transform="translate(12 4)"/>
</clipPath>
</defs>
</svg>
