<svg width="180" height="50" viewBox="0 0 180 50" fill="none" xmlns="http://www.w3.org/2000/svg">
<g opacity="0.7" clip-path="url(#clip0_1462_647)">
<path d="M169.566 9.25C169.566 8.225 170.256 7 171.783 7C173.31 7 174 8.225 174 9.25C174 10.275 173.31 11.5 171.783 11.5C170.256 11.5 169.566 10.275 169.566 9.25ZM171.783 11.025C172.99 11.025 173.507 10.1 173.507 9.25C173.507 8.4 172.99 7.475 171.783 7.475C170.576 7.475 170.059 8.4 170.059 9.25C170.059 10.1 170.576 11.025 171.783 11.025ZM170.995 10.25H171.463V9.525H171.758C172.054 9.525 172.128 9.6 172.128 9.85V10.025C172.128 10.125 172.128 10.2 172.177 10.25H172.645C172.62 10.225 172.62 10.125 172.62 10.025V9.85C172.62 9.55 172.497 9.4 172.226 9.325C172.546 9.225 172.62 9 172.62 8.8C172.62 8.325 172.3 8.225 171.808 8.225H170.995V10.25ZM171.463 9.125V8.65H171.808C172.054 8.65 172.152 8.675 172.152 8.875C172.152 9.05 172.103 9.125 171.808 9.125H171.463Z" fill="white"/>
<path d="M126.639 23.4C125.334 24.725 124.644 26.5 124.693 28.375C124.743 29.925 125.309 31.4 126.294 32.575C128.831 35.575 133.338 35.7 136.047 32.95L149.617 19.175V24.6C149.617 25.2 149.396 25.775 148.977 26.2L139.199 36.125C137.032 38.325 134.2 39.425 131.368 39.425C128.264 39.425 125.137 38.1 122.92 35.475C121.418 33.675 120.482 31.425 120.309 29.075C120.063 25.75 121.221 22.575 123.511 20.25L136.54 7H124.866C123.684 7 122.551 7.475 121.738 8.325L115.458 14.7C114.62 15.55 114.152 16.7 114.152 17.875V43H135.013C137.352 43 139.618 42.05 141.293 40.375L154.863 26.6C157.572 23.85 157.449 19.3 154.494 16.7C153.336 15.7 151.883 15.125 150.356 15.075C148.509 15.025 146.76 15.725 145.455 17.05L131.885 30.825V25.375C131.885 24.775 132.106 24.2 132.525 23.775L142.303 13.85C144.593 11.525 147.721 10.325 150.996 10.6C153.287 10.775 155.454 11.675 157.227 13.175C162.276 17.475 162.522 25.15 157.966 29.775L144.962 43H156.636C157.818 43 158.951 42.525 159.764 41.675L166.044 35.3C166.882 34.45 167.35 33.3 167.35 32.125V7H146.489C144.15 7 141.884 7.95 140.209 9.625L126.639 23.4Z" fill="white"/>
<path d="M87.1113 43H80.6094L90.2637 30.35L81.2497 18.25H87.5546L93.49 26.575L99.4008 18.25H105.41L87.1113 43Z" fill="white"/>
<path d="M98.0449 32.225L106.024 43H99.7196L96.8874 39C95.7791 37.4 95.8037 35.275 96.9612 33.7L98.0449 32.225Z" fill="white"/>
<path d="M57.0625 29.6C57.0625 22.6 60.9045 18.025 68.9088 18.025C76.0264 18.025 80.1393 22.125 80.1393 29.65V31.65H62.2345C62.2345 35.825 64.1801 38.625 68.958 38.625C72.5784 38.625 74.13 36.95 74.4501 35.05L74.4748 34.5H79.9423L79.9176 34.8C79.3758 39.525 75.7801 43 68.9088 43C60.9045 43 57.0625 38.425 57.0625 31.35V29.6ZM74.9673 28V27.325C74.524 24.075 72.3321 22.375 68.7364 22.375C64.7466 22.375 62.7517 24.575 62.3083 28H74.9673Z" fill="white"/>
<path d="M49.8984 11.625H54.8487V42.6H49.8984V11.625Z" fill="white"/>
<path d="M34.5805 18.4V17.175C34.5805 13.675 35.4672 11.25 40.713 11.25C42.8064 11.25 46.0327 11.475 47.6828 11.625V15.425C47.141 15.35 46.6238 15.325 43.3482 15.325C40.1466 15.325 39.5308 15.875 39.5308 17.525V19.5C40.4914 18.425 42.3631 18.425 47.6828 18.425V22.825H39.5308V42.625H34.5805V22.775H27.9062V18.4H34.5805Z" fill="white"/>
<path d="M27.4118 35.45C27.4118 39.725 25.0721 42.975 16.6246 42.975C7.85689 42.975 5 39.775 5 34.325V33.7H10.1473V34.3C10.1473 37.65 12.2654 38.7 16.6 38.7C20.9346 38.7 22.3138 37.625 22.3138 35.75C22.3138 34.1 21.107 33.25 18.3978 32.575L12.8318 31.425C7.26581 30.45 5.76348 28.025 5.76348 25.025C5.76348 21.225 8.22632 18.025 15.935 18.025C24.3087 18.025 26.7961 21.5 26.7961 25.95V26.5H21.6488V26C21.6488 23.175 19.7031 22.325 15.935 22.325C13.1766 22.3 10.9108 22.925 10.9108 24.75C10.9108 26.05 11.8959 26.8 14.4573 27.35L20.9838 28.775C26.1312 29.85 27.4118 32.325 27.4118 35.45Z" fill="white"/>
</g>
<defs>
<clipPath id="clip0_1462_647">
<rect width="169" height="36" fill="white" transform="translate(5 7)"/>
</clipPath>
</defs>
</svg>
