<svg width="180" height="50" viewBox="0 0 180 50" fill="none" xmlns="http://www.w3.org/2000/svg">
<g opacity="0.7" clip-path="url(#clip0_1462_660)">
<path d="M40.0137 16.8371C39.59 16.1552 38.9016 15.709 38.1686 15.4122C37.7979 15.248 37.4357 15.1659 37.0607 15.1091C36.6816 15.0712 36.3003 15.0628 35.9168 15.1028C35.1521 15.1765 34.398 15.408 33.6884 15.7174C32.9766 16.031 32.3051 16.4351 31.6865 16.9066C31.0659 17.3781 30.4981 17.9085 30.0067 18.4831C29.3797 19.2135 28.8607 20.0196 28.4518 20.8699L32.608 24.9995L35.1415 27.5169C35.078 27.3969 35.0102 27.2769 34.9509 27.157C34.5272 26.3087 34.1968 25.4163 33.9849 24.4923C33.7773 23.5683 33.6756 22.6148 33.7667 21.6592C33.8091 21.1835 33.9108 20.7079 34.0548 20.249C34.2137 19.7944 34.4276 19.3418 34.6924 18.9672C35.1966 18.1947 35.8999 17.4875 36.779 17.1592C37.6454 16.814 38.6029 16.8456 39.4057 17.1613C38.5563 17.0034 37.6729 17.1655 37.0014 17.6012C36.3151 18.0221 35.866 18.7062 35.5673 19.4345C35.4021 19.8028 35.3195 20.1627 35.2623 20.5353C35.2241 20.912 35.2157 21.2909 35.2559 21.6719C35.3301 22.4317 35.5631 23.181 35.8745 23.8861C36.1901 24.5933 36.5968 25.2605 37.0713 25.8751C37.5458 26.4918 38.0796 27.0559 38.658 27.5442C39.8167 28.5272 41.1639 29.2428 42.579 29.6806C43.2865 29.8995 44.0089 30.049 44.7333 30.131C44.9134 30.1542 45.0956 30.1689 45.2777 30.1794L45.551 30.1984L45.8497 30.211C46.2458 30.2321 46.6441 30.2321 47.0402 30.2384C48.6247 30.2321 50.1986 30.091 51.7323 29.8195V19.3839C51.1985 19.9733 50.6223 20.5205 50.0016 21.0067C49.239 21.6066 48.4235 22.116 47.5719 22.5348C46.7182 22.9558 45.82 23.2841 44.8901 23.4946C43.9601 23.7009 43.0005 23.8019 42.0388 23.7093C41.5601 23.6672 41.0813 23.5662 40.6195 23.4231C40.162 23.2652 39.7065 23.0526 39.3295 22.7895C38.552 22.2886 37.8403 21.5898 37.5098 20.7163C37.1624 19.8554 37.1942 18.9041 37.5119 18.1063C37.3509 18.9504 37.5162 19.8281 37.9547 20.4953C38.3783 21.1772 39.0668 21.6234 39.7997 21.9202C40.1704 22.0844 40.5327 22.1665 40.9076 22.2233C41.2868 22.2612 41.6681 22.2696 42.0515 22.2296C42.8162 22.156 43.5704 21.9244 44.28 21.615C44.9918 21.3014 45.6633 20.8973 46.2818 20.4258C46.9025 19.9543 47.4702 19.4239 47.9617 18.8493C48.9509 17.698 49.6712 16.3594 50.1118 14.9533C50.3321 14.2503 50.4825 13.5326 50.5651 12.8128C50.5884 12.6339 50.6032 12.4528 50.6138 12.2718L50.6329 12.0003L50.6456 11.7035C50.6668 11.3099 50.6668 10.9142 50.6731 10.5206C50.6668 8.99256 50.5312 7.47711 50.2749 5.99744H39.7976C40.4098 6.53837 40.9775 7.12561 41.4796 7.75915C42.0833 8.51688 42.5959 9.32723 43.0175 10.1734C43.4411 11.0216 43.7716 11.914 43.9834 12.838C44.191 13.762 44.2927 14.7155 44.1995 15.6711C44.1571 16.1468 44.0555 16.6225 43.9114 17.0813C43.7525 17.5359 43.5386 17.9885 43.2738 18.3631C42.7696 19.1356 42.0663 19.8428 41.1872 20.1711C40.3208 20.5163 39.3634 20.4848 38.5605 20.169C39.41 20.3269 40.2933 20.1648 40.9648 19.7291C41.6512 19.3082 42.1002 18.6241 42.3989 17.8959C42.5642 17.5275 42.6468 17.1676 42.704 16.795C42.7421 16.4183 42.7506 16.0394 42.7103 15.6585C42.6362 14.8986 42.4032 14.1493 42.0918 13.4442C41.7761 12.737 41.3694 12.0698 40.8949 11.4552C40.4204 10.8385 39.8866 10.2744 39.3083 9.78607C38.1496 8.80313 36.8023 8.0875 35.3873 7.6497C34.6797 7.4308 33.9574 7.28136 33.2329 7.19928C33.0529 7.17612 32.8707 7.16139 32.6885 7.15087L32.4152 7.13192L32.1166 7.11929C31.7204 7.09825 31.3222 7.09825 30.926 7.09193C29.3394 7.09825 27.7634 7.23927 26.2297 7.51079C23.2831 8.03278 20.5017 9.06202 18 10.4849L25.8993 18.3337C26.522 17.5949 27.2126 16.9192 27.9667 16.3278C28.7293 15.7279 29.5449 15.2186 30.3965 14.7997C31.2502 14.3787 32.1483 14.0504 33.0783 13.8399C34.0082 13.6336 34.9678 13.5326 35.9295 13.6231C36.4083 13.6652 36.887 13.7662 37.3488 13.9094C37.8064 14.0672 38.2618 14.2798 38.6389 14.5429C39.4163 15.0439 40.1281 15.7426 40.4585 16.6161C40.8059 17.477 40.7742 18.4284 40.4564 19.2261C40.6153 18.3821 40.4522 17.5044 40.0137 16.8371Z" fill="white"/>
<path d="M45.1504 34.8441L44.8093 34.762L44.4471 34.6652C44.2035 34.6021 43.9641 34.5326 43.7248 34.4547C42.7715 34.1516 41.85 33.7623 40.9794 33.2908C40.9582 33.2803 40.9392 33.2676 40.918 33.255L51.7299 43.9979V35.7071C49.9717 35.6545 48.2304 35.465 46.5252 35.1409C46.0655 35.0462 45.6058 34.9557 45.1504 34.842V34.8441Z" fill="white"/>
<path d="M61.3513 6L63.7069 18.0857L66.2171 6H69.5472L65.3486 23.8108H62.0186L58.0234 6H61.3535H61.3513Z" fill="white"/>
<path d="M70.8594 6H74.1894V23.8108H70.8594V6Z" fill="white"/>
<path d="M76.881 10.8242C76.881 10.1149 77.0187 9.46871 77.292 8.88357C77.5652 8.29844 77.9423 7.79118 78.4253 7.3618C78.9061 6.93242 79.4866 6.59987 80.1687 6.35992C80.8465 6.11997 81.5858 6 82.3823 6C83.2297 6 84.005 6.1326 84.7104 6.3957C85.4158 6.6588 86.0174 7.03556 86.5152 7.52177C87.013 8.00798 87.3985 8.59311 87.6739 9.27717C87.9472 9.96123 88.0849 10.7253 88.0849 11.5651V11.9355H84.8481V11.3167C84.8481 10.5906 84.6278 10.0181 84.1871 9.5971C83.7465 9.17614 83.1534 8.96566 82.4077 8.96566C81.7278 8.96566 81.1749 9.13404 80.7512 9.47291C80.3275 9.81179 80.1157 10.2517 80.1157 10.7968C80.1157 11.2746 80.3191 11.6872 80.7258 12.0345C81.1325 12.3817 81.6388 12.7143 82.2446 13.0363C82.8505 13.3584 83.5093 13.6846 84.2232 14.013C84.937 14.3434 85.5958 14.7349 86.2017 15.1874C86.8075 15.6421 87.3138 16.1725 87.7205 16.7829C88.1272 17.3933 88.3306 18.1342 88.3306 19.0097C88.3306 20.4936 87.8243 21.666 86.8118 22.5227C85.7992 23.3793 84.4308 23.8087 82.7043 23.8087C80.9779 23.8087 79.5332 23.3309 78.5714 22.3732C77.6097 21.4176 77.1267 20.039 77.1267 18.2415V17.8711H80.3636V18.4899C80.3636 20.0579 81.1685 20.8409 82.7785 20.8409C83.5093 20.8409 84.077 20.681 84.4837 20.3589C84.8904 20.0369 85.0938 19.5886 85.0938 19.0097C85.0938 18.5488 84.8904 18.1531 84.4837 17.8226C84.077 17.4922 83.5707 17.1765 82.9649 16.8713C82.359 16.5661 81.6981 16.2483 80.9863 15.9178C80.2725 15.5873 79.6137 15.1959 79.0078 14.7433C78.402 14.2908 77.8957 13.7499 77.489 13.1226C77.0823 12.4954 76.8789 11.7293 76.8789 10.8221L76.881 10.8242Z" fill="white"/>
<path d="M98.8233 6H102.105V18.1657C102.105 18.9361 101.977 19.6622 101.725 20.3484C101.473 21.0346 101.107 21.6365 100.628 22.1543C100.149 22.6721 99.5562 23.0783 98.8487 23.3709C98.1412 23.6635 97.3341 23.8108 96.4253 23.8108C95.5166 23.8108 94.7095 23.6635 94.002 23.3709C93.2944 23.0783 92.7013 22.6721 92.2226 22.1543C91.7438 21.6365 91.3774 21.0346 91.1253 20.3484C90.8732 19.6622 90.7461 18.9361 90.7461 18.1657V6H94.0274V18.4162C94.0274 19.0687 94.2286 19.6286 94.6332 20.0979C95.0378 20.5673 95.6352 20.8009 96.4253 20.8009C97.2155 20.8009 97.815 20.5673 98.2174 20.0979C98.622 19.6307 98.8233 19.0687 98.8233 18.4162V6Z" fill="white"/>
<path d="M111.256 6L116.148 23.8108H112.82L112.332 21.7755H106.929L106.416 23.8108H103.086L108.183 6H111.256ZM111.614 18.7214L109.693 10.7063L107.695 18.7214H111.614Z" fill="white"/>
<path d="M117.336 6H120.666V20.7567H126.299V23.8108H117.336V6Z" fill="white"/>
<path d="M67.3946 38.0624H70.6314V38.4328C70.6314 39.1926 70.5064 39.9083 70.2586 40.5839C70.0086 41.2596 69.6485 41.8531 69.1761 42.3646C68.7037 42.876 68.1191 43.2759 67.42 43.5643C66.7231 43.8527 65.9266 43.9979 65.0305 43.9979C64.1345 43.9979 63.338 43.8527 62.6411 43.5643C61.9441 43.2759 61.3595 42.876 60.885 42.3646C60.4126 41.8531 60.0504 41.2596 59.8025 40.5839C59.5547 39.9083 59.4297 39.1905 59.4297 38.4328V31.7543C59.4297 30.9797 59.5547 30.2578 59.8025 29.5906C60.0525 28.9233 60.4126 28.334 60.885 27.8225C61.3574 27.3111 61.9441 26.9112 62.6411 26.6228C63.338 26.3344 64.1345 26.1892 65.0305 26.1892C65.9266 26.1892 66.7231 26.3344 67.42 26.6228C68.117 26.9112 68.7016 27.3111 69.1761 27.8225C69.6485 28.334 70.0107 28.9233 70.2586 29.5906C70.5064 30.2578 70.6314 30.9797 70.6314 31.7543V31.8785H67.3946V31.508C67.3946 30.864 67.1955 30.3125 66.7972 29.8495C66.399 29.3885 65.8101 29.157 65.0284 29.157C64.2468 29.157 63.66 29.3885 63.2617 29.8495C62.8635 30.3125 62.6644 30.864 62.6644 31.508V38.6812C62.6644 39.3252 62.8635 39.8767 63.2617 40.3377C63.66 40.8007 64.2489 41.0301 65.0284 41.0301C65.808 41.0301 66.3969 40.7986 66.7972 40.3377C67.1955 39.8767 67.3946 39.3231 67.3946 38.6812V38.0624Z" fill="white"/>
<path d="M72.7109 44V26.1892H78.2165C79.138 26.1892 79.9577 26.3597 80.6759 26.6986C81.394 27.0374 81.9956 27.4921 82.4807 28.0604C82.9679 28.6287 83.3386 29.2769 83.5949 30.0073C83.8512 30.7377 83.9783 31.4996 83.9783 32.2973C83.9783 33.3497 83.7517 34.3537 83.3005 35.3135C82.8472 36.2712 82.1862 37.0226 81.3156 37.5656L84.2347 44.0021H80.9068L78.3711 38.4055H76.041V44.0021H72.7109V44ZM76.041 29.2433V35.3493H77.9623C78.458 35.3493 78.8753 35.2693 79.2163 35.1072C79.5574 34.9473 79.8349 34.7263 80.0488 34.4463C80.2628 34.1664 80.4153 33.8401 80.5106 33.4676C80.6038 33.095 80.6526 32.7036 80.6526 32.2973C80.6526 31.8911 80.606 31.4996 80.5106 31.1271C80.4174 30.7545 80.2628 30.4283 80.0488 30.1483C79.8349 29.8684 79.5574 29.6474 79.2163 29.4874C78.8753 29.3275 78.4559 29.2454 77.9623 29.2454H76.041V29.2433Z" fill="white"/>
<path d="M94.3794 36.6206H89.5136V40.9459H95.6589V44H86.1836V26.1892H95.6589V29.2433H89.5136V33.5686H94.3794V36.6227V36.6206Z" fill="white"/>
<path d="M104.76 26.1892L109.651 44H106.324L105.836 41.9647H100.432L99.9199 44H96.5898L101.687 26.1892H104.76ZM105.118 38.9106L103.197 30.8955L101.199 38.9106H105.118Z" fill="white"/>
<path d="M109.559 26.1892H121.082V29.2433H116.985V44H113.658V29.2433H109.561V26.1892H109.559Z" fill="white"/>
<path d="M128.015 26.1892C128.911 26.1892 129.707 26.3344 130.404 26.6228C131.101 26.9112 131.686 27.3111 132.16 27.8225C132.633 28.334 132.995 28.9233 133.243 29.5906C133.491 30.2578 133.616 30.9797 133.616 31.7543V38.4328C133.616 39.1926 133.491 39.9083 133.243 40.5839C132.993 41.2596 132.633 41.8531 132.16 42.3646C131.688 42.876 131.103 43.2759 130.404 43.5643C129.707 43.8527 128.911 43.9979 128.015 43.9979C127.119 43.9979 126.322 43.8527 125.625 43.5643C124.929 43.2759 124.344 42.876 123.869 42.3646C123.397 41.8531 123.035 41.2596 122.787 40.5839C122.539 39.9083 122.414 39.1905 122.414 38.4328V31.7543C122.414 30.9797 122.539 30.2578 122.787 29.5906C123.037 28.9233 123.397 28.334 123.869 27.8225C124.342 27.3111 124.929 26.9112 125.625 26.6228C126.322 26.3344 127.119 26.1892 128.015 26.1892ZM130.381 31.508C130.381 30.864 130.182 30.3125 129.784 29.8495C129.385 29.3885 128.797 29.157 128.015 29.157C127.233 29.157 126.646 29.3885 126.248 29.8495C125.85 30.3125 125.651 30.864 125.651 31.508V38.6812C125.651 39.3252 125.85 39.8767 126.248 40.3377C126.646 40.8007 127.235 41.0301 128.015 41.0301C128.794 41.0301 129.383 40.7986 129.784 40.3377C130.182 39.8767 130.381 39.3231 130.381 38.6812V31.508Z" fill="white"/>
<path d="M136.195 44V26.1892H141.701C142.622 26.1892 143.442 26.3597 144.16 26.6986C144.878 27.0374 145.48 27.4921 145.965 28.0604C146.452 28.6287 146.823 29.2769 147.079 30.0073C147.336 30.7377 147.463 31.4996 147.463 32.2973C147.463 33.3497 147.236 34.3537 146.785 35.3135C146.332 36.2712 145.671 37.0226 144.8 37.5656L147.719 44.0021H144.391L141.855 38.4055H139.525V44.0021H136.195V44ZM139.525 29.2433V35.3493H141.447C141.942 35.3493 142.36 35.2693 142.701 35.1072C143.042 34.9473 143.319 34.7263 143.533 34.4463C143.747 34.1664 143.9 33.8401 143.995 33.4676C144.088 33.095 144.137 32.7036 144.137 32.2973C144.137 31.8911 144.09 31.4996 143.995 31.1271C143.902 30.7545 143.747 30.4283 143.533 30.1483C143.319 29.8684 143.042 29.6474 142.701 29.4874C142.36 29.3275 141.94 29.2454 141.447 29.2454H139.525V29.2433Z" fill="white"/>
<path d="M149.551 31.0134C149.551 30.3041 149.688 29.6579 149.962 29.0728C150.235 28.4876 150.612 27.9804 151.095 27.551C151.576 27.1216 152.156 26.7891 152.838 26.5491C153.518 26.3092 154.258 26.1892 155.054 26.1892C155.902 26.1892 156.677 26.3218 157.382 26.5849C158.088 26.848 158.689 27.2248 159.187 27.711C159.685 28.1972 160.07 28.7823 160.346 29.4664C160.619 30.1504 160.757 30.9145 160.757 31.7543V32.1247H157.52V31.5059C157.52 30.7798 157.3 30.2073 156.859 29.7863C156.418 29.3653 155.825 29.1549 155.08 29.1549C154.4 29.1549 153.847 29.3233 153.423 29.6621C152.999 30.001 152.788 30.4409 152.788 30.986C152.788 31.4638 152.991 31.8764 153.398 32.2237C153.804 32.571 154.311 32.9035 154.917 33.2255C155.522 33.5476 156.181 33.8738 156.895 34.2022C157.609 34.5326 158.268 34.9241 158.874 35.3766C159.479 35.8313 159.986 36.3617 160.392 36.9721C160.799 37.5825 161.002 38.3234 161.002 39.199C161.002 40.6828 160.496 41.8552 159.484 42.7119C158.471 43.5685 157.103 43.9979 155.376 43.9979C153.65 43.9979 152.205 43.5201 151.243 42.5624C150.282 41.6068 149.799 40.2282 149.799 38.4307V38.0603H153.035V38.6791C153.035 40.2471 153.84 41.0301 155.45 41.0301C156.181 41.0301 156.749 40.8702 157.156 40.5481C157.562 40.2261 157.766 39.7778 157.766 39.199C157.766 38.738 157.562 38.3423 157.156 38.0119C156.749 37.6814 156.243 37.3657 155.637 37.0605C155.031 36.7553 154.37 36.4375 153.658 36.107C152.944 35.7766 152.286 35.3851 151.68 34.9325C151.074 34.48 150.568 33.9391 150.161 33.3118C149.754 32.6846 149.551 31.9185 149.551 31.0113V31.0134Z" fill="white"/>
</g>
<defs>
<clipPath id="clip0_1462_660">
<rect width="143" height="38" fill="white" transform="translate(18 6)"/>
</clipPath>
</defs>
</svg>
