<svg width="180" height="50" viewBox="0 0 180 50" fill="none" xmlns="http://www.w3.org/2000/svg">
<g opacity="0.7">
<path d="M8.30002 24.7021C11.8 24.8021 14.3 24.8021 16 24.8021C17.3 24.8021 18.6 24.8021 20.2 24.7021C20.7 24.7021 21.2 24.7021 21.5 24.7021H22.2C22.2 25.0021 22.3 25.5021 22.4 26.4021L22.5 28.0021C22.5 28.3021 22.4 28.4021 22.2 28.4021C22 28.4021 21.9 28.2021 21.7 27.9021C21.5 27.4021 21.1 26.9021 20.7 26.5021C20.3 26.1021 19.8 25.9021 19.3 25.7021C18.4 25.5021 17.6 25.5021 16.7 25.5021C16.6 26.8021 16.5 28.0021 16.5 29.3021C16.5 30.9021 16.5 32.4021 16.6 33.8021C16.6 34.7021 16.7 35.6021 16.8 36.4021C16.9 36.7021 17 36.9021 17.2 37.1021C17.7 37.3021 18.2 37.4021 18.7 37.4021C19 37.4021 19.1 37.5021 19.1 37.7021C19.1 37.9021 19 38.0021 18.8 38.0021H18.5L16.4 37.9021H13.5L12.3 38.0021H11.7C11.6 38.0021 11.5 37.9021 11.5 37.8021C11.5 37.7021 11.6 37.5021 11.9 37.5021C12.4 37.5021 12.8 37.4021 13.2 37.1021C13.6 36.8021 13.8 36.4021 13.8 35.9021C13.9 34.7021 13.9 33.6021 13.9 32.4021C13.9 29.6021 13.8 27.3021 13.6 25.5021C12.8 25.5021 12 25.5021 11.2 25.6021C10.7 25.7021 10.2 26.0021 9.80002 26.3021C9.30002 26.7021 8.90001 27.3021 8.70001 27.9021C8.60001 28.2021 8.50002 28.3021 8.30002 28.3021C8.10002 28.3021 8 28.2021 8 28.0021C8 27.9021 8.00001 27.5021 8.10001 26.7021C8.10001 26.0021 8.20002 25.3021 8.30002 24.7021Z" fill="white"/>
<path d="M34.2992 25.0021L34.8992 28.1021C34.8992 28.2021 34.7992 28.4021 34.6992 28.4021H34.5992C34.4992 28.4021 34.3992 28.3021 34.1992 28.1021C33.6992 27.3021 33.0992 26.6021 32.2992 26.1021C31.4992 25.7021 30.6992 25.6021 29.7992 25.6021C29.1992 25.6021 28.5992 25.6021 28.0992 25.7021C27.9992 27.0021 27.8992 28.3021 27.8992 29.6021V30.8021H28.6992C29.0992 30.8021 29.4992 30.7021 29.8992 30.6021C30.2992 30.4021 30.5992 30.1021 30.7992 29.8021C30.9992 29.5021 31.0992 29.3021 31.1992 29.0021C31.2992 28.8021 31.3992 28.7021 31.4992 28.7021C31.5992 28.7021 31.7992 28.8021 31.7992 28.9021C31.7992 29.0021 31.7992 29.0021 31.7992 29.1021C31.6992 30.3021 31.5992 31.6021 31.6992 32.8021C31.6992 33.1021 31.6992 33.3021 31.7992 33.6021C31.7992 33.7021 31.7992 33.7021 31.7992 33.8021C31.7992 34.0021 31.6992 34.1021 31.4992 34.1021C31.2992 34.1021 31.1992 33.9021 31.1992 33.6021C31.0992 33.0021 30.7992 32.5021 30.2992 32.2021C29.5992 31.8021 28.7992 31.6021 28.0992 31.7021C28.0992 32.8021 27.9992 33.6021 27.9992 33.9021C27.9992 34.8021 27.9992 35.7021 28.0992 36.6021C28.1992 36.9021 28.2992 37.1021 28.5992 37.3021C29.0992 37.5021 29.5992 37.6021 30.0992 37.6021C32.5992 37.6021 34.2992 36.8021 35.0992 35.2021C35.1992 35.0021 35.2992 34.9021 35.4992 34.9021C35.5992 34.9021 35.7992 35.0021 35.7992 35.1021C35.7992 35.2021 35.7992 35.4021 35.6992 35.5021L34.9992 38.4021H31.3992C30.3992 38.4021 29.3992 38.4021 28.5992 38.3021C27.6992 38.2021 26.9992 38.2021 26.4992 38.2021C25.9992 38.2021 25.0992 38.2021 23.9992 38.3021H23.6992C23.3992 38.3021 23.1992 38.2021 23.1992 38.0021C23.1992 37.8021 23.2992 37.7021 23.5992 37.7021C24.0992 37.8021 24.5992 37.6021 24.8992 37.2021C25.1992 36.5021 25.2992 35.8021 25.1992 35.1021L25.2992 30.0021C25.2992 28.2021 25.2992 27.2021 25.1992 26.8021C25.1992 26.5021 25.0992 26.2021 24.7992 26.0021C24.4992 25.8021 24.0992 25.7021 23.7992 25.7021C23.5992 25.7021 23.4992 25.6021 23.4992 25.5021C23.4992 25.3021 23.5992 25.2021 23.8992 25.2021L26.2992 25.3021L34.2992 25.0021Z" fill="white"/>
<path d="M47.5985 25.8021C47.6985 25.6021 47.8985 25.4021 47.9985 25.2021C48.1985 25.0021 48.2985 24.8021 48.4985 24.8021C48.5985 24.8021 48.6985 24.8021 48.7985 24.9021C48.8985 25.1021 48.8985 25.3021 48.8985 25.5021L49.0985 28.6021V29.0021C49.0985 29.3021 48.9985 29.4021 48.7985 29.4021C48.5985 29.4021 48.4985 29.3021 48.4985 29.1021C48.0985 28.2021 47.5985 27.5021 46.9985 26.8021C46.3985 26.0021 45.3985 25.5021 44.2985 25.5021C43.5985 25.5021 42.8985 25.7021 42.2985 26.1021C41.6985 26.6021 41.2985 27.3021 40.9985 28.0021C40.6985 28.9021 40.4985 29.9021 40.4985 30.9021C40.3985 32.5021 40.8985 34.1021 41.7985 35.5021C42.4985 36.6021 43.6985 37.2021 44.9985 37.2021C46.3985 37.2021 47.5985 36.4021 48.7985 34.7021C48.8985 34.5021 49.0985 34.4021 49.1985 34.4021C49.3985 34.4021 49.4985 34.5021 49.4985 34.6021V34.7021C49.4985 35.1021 48.9985 35.8021 47.8985 36.8021C46.7985 37.8021 45.3985 38.3021 43.9985 38.2021C42.0985 38.3021 40.2985 37.6021 39.0985 36.3021C37.8985 35.0021 37.1985 33.3021 37.2985 31.5021C37.2985 29.7021 37.8985 28.0021 39.0985 26.6021C40.2985 25.2021 41.9985 24.5021 43.6985 24.5021C44.9985 24.7021 46.3985 25.1021 47.5985 25.8021Z" fill="white"/>
<path d="M54.0008 24.9021C57.2008 28.5021 59.8008 31.4021 62.0008 33.6021V32.7021V28.8021C62.0008 28.1021 62.0008 27.5021 61.8008 26.8021C61.7008 26.4021 61.5008 26.1021 61.1008 25.8021C60.7008 25.6021 60.3008 25.4021 59.9008 25.4021C59.7008 25.4021 59.5008 25.3021 59.5008 25.1021C59.5008 24.9021 59.6008 24.8021 59.8008 24.8021C60.0008 24.8021 60.1008 24.8021 60.3008 24.8021C61.6008 24.9021 62.8008 24.9021 64.1008 24.8021H64.6008C64.9008 24.8021 65.0008 24.9021 65.0008 25.1021C65.0008 25.3021 64.8008 25.4021 64.5008 25.4021C64.1008 25.5021 63.7008 25.6021 63.3008 25.9021C62.9008 26.4021 62.7008 27.1021 62.7008 27.7021V33.3021L62.6008 37.5021C62.6008 37.9021 62.5008 38.0021 62.3008 38.0021C62.2008 38.0021 62.2008 38.0021 62.1008 37.9021C61.6008 37.5021 61.2008 37.0021 60.7008 36.5021C59.9008 35.6021 58.6008 34.2021 57.0008 32.4021C55.4008 30.6021 54.2008 29.2021 53.5008 28.4021V33.4021C53.5008 34.2021 53.5008 34.9021 53.6008 35.7021C53.6008 36.2021 53.9008 36.7021 54.4008 36.9021C54.8008 37.1021 55.2008 37.3021 55.6008 37.3021C55.8008 37.3021 55.9008 37.4021 55.9008 37.6021C55.9008 37.8021 55.8008 37.9021 55.5008 37.9021C55.3008 37.9021 55.1008 37.9021 54.9008 37.9021C54.4008 37.8021 53.9008 37.8021 53.4008 37.8021C52.7008 37.8021 52.0008 37.8021 51.2008 37.9021C51.0008 37.9021 50.8008 37.9021 50.6008 37.9021C50.3008 37.9021 50.2008 37.8021 50.2008 37.6021C50.2008 37.4021 50.4008 37.3021 50.9008 37.3021C51.5008 37.3021 52.0008 37.0021 52.3008 36.5021C52.5008 35.9021 52.6008 35.3021 52.6008 34.6021C52.6008 31.2021 52.6008 29.1021 52.5008 28.3021C52.5008 27.6021 52.2008 26.8021 51.8008 26.2021C51.4008 25.6021 50.9008 25.2021 50.2008 25.1021C49.9008 25.1021 49.8008 24.9021 49.8008 24.8021C49.8008 24.6021 50.0008 24.5021 50.2008 24.5021C50.3008 24.5021 50.4008 24.5021 50.5008 24.5021H51.3008C52.4008 24.9021 53.2008 24.9021 54.0008 24.9021Z" fill="white"/>
<path d="M72.6984 24.8021C73.8984 24.8021 75.0984 25.102 76.1984 25.602C77.1984 26.102 77.9984 27.0021 78.5984 27.9021C79.1984 28.9021 79.4984 30.1021 79.4984 31.2021C79.3984 35.2021 76.0984 38.4021 71.9984 38.3021C70.2984 38.3021 68.6984 37.6021 67.3984 36.5021C66.0984 35.3021 65.3984 33.5021 65.3984 31.7021C65.3984 29.8021 66.0984 28.1021 67.4984 26.8021C68.8984 25.5021 70.7984 24.7021 72.6984 24.8021ZM76.1984 31.5021C76.2984 29.9021 75.8984 28.3021 75.1984 26.9021C74.3984 25.5021 72.5984 24.9021 71.1984 25.7021C70.6984 26.0021 70.2984 26.4021 69.9984 26.9021C69.1984 28.3021 68.8984 29.9021 68.9984 31.4021C68.8984 33.0021 69.1984 34.5021 69.9984 35.9021C70.4984 36.9021 71.4984 37.5021 72.5984 37.5021C73.5984 37.5021 74.5984 36.902 75.0984 36.102C75.7984 35.202 76.1984 33.7021 76.1984 31.5021Z" fill="white"/>
<path d="M81.5 31.2021C81.5 31.0021 81.5 30.9021 81.6 30.8021C81.7 30.8021 81.9 30.7021 82 30.7021H87.7C87.8 30.7021 88 30.7021 88.1 30.8021C88.1 30.8021 88.2 31.0021 88.2 31.2021V32.3021C88.2 32.5021 88.2 32.6021 88.1 32.7021C88 32.7021 87.8 32.8021 87.7 32.8021H82C81.9 32.8021 81.7 32.8021 81.6 32.7021C81.6 32.7021 81.5 32.6021 81.5 32.3021V31.2021Z" fill="white"/>
<path d="M100.398 25.0021L100.898 28.0021V28.1021C100.898 28.3021 100.798 28.4021 100.698 28.4021C100.598 28.4021 100.498 28.3021 100.398 28.2021C99.9984 27.5021 99.3984 26.8021 98.6984 26.4021C97.6984 25.9021 96.6984 25.7021 95.5984 25.7021C94.5984 25.7021 94.0984 25.8021 93.8984 26.0021C93.6984 27.6021 93.5984 29.3021 93.6984 30.9021C94.2984 30.9021 94.7984 30.9021 95.3984 30.8021C95.7984 30.7021 96.0984 30.5021 96.2984 30.3021C96.5984 29.9021 96.7984 29.4021 96.8984 28.9021C96.8984 28.7021 96.9984 28.6021 97.0984 28.6021C97.2984 28.6021 97.3984 28.7021 97.3984 29.0021L97.2984 32.2021C97.2984 32.8021 97.2984 33.4021 97.1984 34.0021C97.1984 34.1021 97.0984 34.1021 96.9984 34.1021C96.7984 34.1021 96.6984 34.0021 96.6984 33.7021C96.6984 33.2021 96.3984 32.6021 96.0984 32.2021C95.6984 31.8021 94.8984 31.7021 93.6984 31.7021V35.4021C93.6984 35.9021 93.6984 36.4021 93.8984 36.9021C93.9984 37.2021 94.0984 37.4021 94.3984 37.6021C94.6984 37.7021 94.9984 37.8021 95.3984 37.8021C95.5984 37.8021 95.7984 37.8021 95.9984 37.9021C96.0984 37.9021 96.0984 38.0021 96.0984 38.1021C96.0984 38.3021 95.8984 38.4021 95.6984 38.4021C95.4984 38.4021 94.8984 38.4021 94.0984 38.3021C93.3984 38.3021 92.9984 38.2021 92.5984 38.2021L89.4984 38.3021C89.1984 38.3021 88.9984 38.2021 88.9984 38.0021C88.9984 37.8021 89.1984 37.7021 89.5984 37.7021C90.1984 37.7021 90.6984 37.4021 90.7984 36.8021C90.9984 34.7021 91.0984 32.6021 90.9984 30.5021C91.0984 29.1021 90.9984 27.7021 90.7984 26.3021C90.5984 25.8021 90.1984 25.6021 89.5984 25.6021H89.2984C89.0984 25.6021 88.8984 25.5021 88.8984 25.3021C88.8984 25.1021 89.0984 25.0021 89.4984 25.0021H100.398Z" fill="white"/>
<path d="M112.901 38.3021C111.201 38.2021 108.701 38.2021 105.101 38.2021C103.901 38.2021 102.901 38.2021 102.101 38.3021H101.701C101.401 38.3021 101.301 38.2021 101.301 38.0021C101.301 37.9021 101.301 37.9021 101.401 37.8021C101.601 37.7021 101.701 37.7021 101.901 37.7021C102.201 37.7021 102.601 37.5021 102.801 37.3021C103.001 37.1021 103.201 36.8021 103.301 36.5021C103.401 35.6021 103.501 34.6021 103.501 33.7021V28.4021C103.501 27.8021 103.501 27.2021 103.301 26.6021C103.201 26.3021 103.001 26.0021 102.801 25.8021C102.501 25.6021 102.201 25.5021 101.901 25.5021C101.601 25.5021 101.501 25.4021 101.501 25.2021C101.501 25.0021 101.701 24.9021 102.001 24.9021L105.301 25.0021C105.801 25.0021 106.501 25.0021 107.401 24.9021H108.101C108.401 24.9021 108.501 25.0021 108.501 25.2021C108.501 25.3021 108.501 25.4021 108.401 25.4021C108.201 25.5021 108.001 25.5021 107.701 25.5021C107.401 25.5021 107.001 25.6021 106.801 25.8021C106.601 26.0021 106.401 26.3021 106.401 26.7021C106.301 27.6021 106.301 28.6021 106.301 29.5021V35.5021C106.201 36.1021 106.301 36.6021 106.501 37.2021C106.801 37.4021 107.101 37.5021 107.401 37.5021C108.201 37.5021 109.001 37.5021 109.801 37.3021C110.401 37.1021 110.901 36.8021 111.301 36.4021C111.901 35.7021 112.501 35.0021 112.901 34.1021C113.001 33.9021 113.101 33.8021 113.201 33.8021C113.401 33.8021 113.501 33.9021 113.501 34.1021C113.501 35.5021 113.201 36.9021 112.901 38.3021Z" fill="white"/>
<path d="M125.399 25.1021C125.599 26.1021 125.799 27.2021 125.999 28.2021C125.999 28.3021 125.899 28.5021 125.799 28.5021H125.699C125.599 28.5021 125.499 28.4021 125.299 28.2021C124.799 27.4021 124.199 26.7021 123.399 26.2021C122.599 25.8021 121.799 25.7021 120.899 25.7021C120.299 25.7021 119.699 25.7021 119.199 25.8021C119.099 27.0021 118.999 28.3021 118.999 29.7021V30.9021H119.799C120.199 30.9021 120.599 30.8021 120.999 30.7021C121.399 30.5021 121.699 30.2021 121.899 29.9021C122.099 29.6021 122.199 29.4021 122.299 29.1021C122.399 28.9021 122.499 28.8021 122.599 28.8021C122.699 28.8021 122.899 28.9021 122.899 29.0021C122.899 29.1021 122.899 29.1021 122.899 29.2021C122.799 30.4021 122.699 31.7021 122.799 32.9021C122.799 33.2021 122.799 33.4021 122.899 33.7021C122.899 33.8021 122.899 33.8021 122.899 33.9021C122.899 34.1021 122.799 34.2021 122.599 34.2021C122.399 34.2021 122.299 34.0021 122.299 33.7021C122.199 33.1021 121.899 32.6021 121.399 32.3021C120.699 31.9021 119.899 31.7021 119.099 31.8021C119.099 32.9021 118.999 33.7021 118.999 34.0021C118.999 34.9021 118.999 35.8021 119.099 36.7021C119.199 37.0021 119.299 37.2021 119.599 37.4021C120.099 37.6021 120.599 37.7021 121.099 37.7021C123.599 37.7021 125.299 36.9021 126.099 35.3021C126.199 35.1021 126.299 35.0021 126.499 35.0021C126.599 35.0021 126.799 35.1021 126.799 35.2021C126.799 35.3021 126.799 35.5021 126.699 35.6021L125.999 38.5021H122.399C121.399 38.5021 120.399 38.5021 119.599 38.4021C118.699 38.3021 117.999 38.3021 117.499 38.3021C116.999 38.3021 116.099 38.3021 114.999 38.4021H114.699C114.399 38.4021 114.199 38.3021 114.199 38.1021C114.199 37.9021 114.299 37.8021 114.599 37.8021C115.099 37.9021 115.599 37.7021 115.899 37.3021C116.199 36.6021 116.299 35.9021 116.199 35.2021L116.299 30.1021C116.299 28.3021 116.299 27.3021 116.199 26.9021C116.199 26.6021 116.099 26.3021 115.899 26.1021C115.599 25.9021 115.199 25.8021 114.899 25.8021C114.699 25.8021 114.599 25.7021 114.599 25.6021C114.599 25.4021 114.699 25.3021 114.999 25.3021L117.399 25.4021L125.399 25.1021Z" fill="white"/>
<path d="M135.301 29.8021C136.701 28.0021 137.501 26.9021 137.501 26.5021C137.501 26.3021 137.401 26.1021 137.301 26.0021C137.001 25.8021 136.701 25.7021 136.401 25.6021C136.201 25.6021 136.101 25.5021 136.101 25.3021C136.101 25.1021 136.201 25.0021 136.501 25.0021C136.601 25.0021 136.901 25.0021 137.301 25.0021C137.801 25.0021 138.201 25.1021 138.601 25.1021C139.101 25.1021 139.701 25.1021 140.501 25.0021H141.201C141.501 25.0021 141.701 25.1021 141.701 25.3021C141.701 25.5021 141.601 25.6021 141.301 25.6021C140.801 25.6021 140.301 25.8021 139.901 26.0021C139.401 26.3021 139.001 26.6021 138.601 27.1021C138.201 27.5021 137.301 28.7021 136.001 30.4021C136.701 31.7021 137.601 33.1021 138.601 34.5021C139.201 35.5021 140.001 36.4021 140.901 37.1021C141.301 37.4021 141.701 37.6021 142.201 37.7021C142.501 37.7021 142.701 37.8021 142.701 38.0021C142.701 38.2021 142.501 38.3021 142.201 38.3021L138.501 38.2021C138.001 38.2021 137.601 38.2021 137.101 38.2021H136.301C136.101 38.2021 135.901 38.2021 135.801 38.2021H135.601C135.501 38.2021 135.301 38.1021 135.301 38.0021C135.301 38.0021 135.301 38.0021 135.301 37.9021C135.301 37.7021 135.401 37.6021 135.601 37.6021C136.301 37.5021 136.701 37.3021 136.701 36.8021C136.701 36.4021 135.901 34.9021 134.301 32.6021C132.601 34.9021 131.701 36.2021 131.701 36.6021C131.701 37.1021 132.201 37.4021 133.301 37.5021C133.501 37.5021 133.701 37.6021 133.701 37.8021C133.701 38.0021 133.601 38.1021 133.301 38.1021C133.001 38.1021 132.701 38.1021 132.401 38.1021C131.801 38.1021 131.201 38.0021 130.601 38.0021C130.201 38.0021 129.701 38.0021 129.301 38.0021C129.001 38.0021 128.801 38.1021 128.501 38.1021C128.101 38.1021 127.901 38.0021 127.901 37.8021C127.901 37.6021 128.001 37.6021 128.201 37.5021C128.701 37.5021 129.201 37.3021 129.601 37.1021C130.101 36.8021 130.501 36.3021 130.901 35.8021C131.401 35.1021 132.401 33.9021 133.801 31.9021C132.801 30.1021 131.601 28.3021 130.301 26.7021C129.801 26.0021 129.101 25.6021 128.201 25.4021C127.901 25.4021 127.801 25.3021 127.801 25.1021C127.801 24.9021 127.901 24.8021 128.201 24.8021C128.401 24.8021 128.601 24.8021 128.701 24.8021C129.101 24.8021 130.001 24.9021 131.501 24.9021C132.101 24.9021 132.801 24.9021 133.601 24.8021H134.501C134.901 24.8021 135.001 24.9021 135.001 25.1021C135.001 25.3021 134.901 25.4021 134.601 25.4021C134.401 25.4021 134.201 25.5021 133.901 25.6021C133.601 25.7021 133.501 25.8021 133.501 26.1021C133.601 26.5021 133.701 26.8021 133.901 27.1021C134.201 28.1021 134.701 28.9021 135.301 29.8021Z" fill="white"/>
<path d="M10.4008 12.6021H8.30078V20.5021H10.4008V12.6021Z" fill="white"/>
<path d="M15.2016 12.6021H13.1016V20.5021H15.2016V12.6021Z" fill="white"/>
<path d="M20.1 12.6021H18V20.5021H20.1V12.6021Z" fill="white"/>
<path d="M24.9008 12.6021H22.8008V20.5021H24.9008V12.6021Z" fill="white"/>
<path d="M29.7992 12.6021H27.6992V20.5021H29.7992V12.6021Z" fill="white"/>
<path d="M34.6 12.7021H32.5V20.6021H34.6V12.7021Z" fill="white"/>
<path d="M39.4008 12.7021H37.3008V20.6021H39.4008V12.7021Z" fill="white"/>
<path d="M44.2992 12.7021H42.1992V20.6021H44.2992V12.7021Z" fill="white"/>
<path d="M46.9865 12.6501L46.9766 20.55L49.0767 20.5527L49.0866 12.6527L46.9865 12.6501Z" fill="white"/>
<path d="M51.8185 12.6951L51.8086 20.5951L53.9087 20.5977L53.9186 12.6977L51.8185 12.6951Z" fill="white"/>
<path d="M56.6427 12.7318L56.6328 20.6318L58.7329 20.6345L58.7428 12.7345L56.6427 12.7318Z" fill="white"/>
<path d="M61.4709 12.6696L61.4609 20.5696L63.561 20.5722L63.571 12.6722L61.4709 12.6696Z" fill="white"/>
<path d="M68.4008 12.7021H66.3008V20.6021H68.4008V12.7021Z" fill="white"/>
<path d="M73.2016 12.7021H71.1016V20.6021H73.2016V12.7021Z" fill="white"/>
<path d="M76.0295 12.7677L76.0195 20.6677L78.1196 20.6704L78.1296 12.7704L76.0295 12.7677Z" fill="white"/>
<path d="M83.1 12.7021H81V20.6021H83.1V12.7021Z" fill="white"/>
<path d="M87.9984 12.7021H85.8984V20.6021H87.9984V12.7021Z" fill="white"/>
<path d="M92.9008 12.7021H90.8008V20.6021H92.9008V12.7021Z" fill="white"/>
<path d="M97.7992 12.7021H95.6992V20.6021H97.7992V12.7021Z" fill="white"/>
<path d="M102.702 12.7021H100.602V20.6021H102.702V12.7021Z" fill="white"/>
<path d="M105.572 12.7857L105.562 20.6857L107.662 20.6883L107.672 12.7883L105.572 12.7857Z" fill="white"/>
<path d="M112.6 12.8021H110.5V20.7021H112.6V12.8021Z" fill="white"/>
<path d="M117.498 12.8021H115.398V20.7021H117.498V12.8021Z" fill="white"/>
<path d="M122.401 12.8021H120.301V20.7021H122.401V12.8021Z" fill="white"/>
<path d="M127.299 12.8021H125.199V20.7021H127.299V12.8021Z" fill="white"/>
<path d="M130.108 12.7797L130.098 20.6797L132.198 20.6823L132.208 12.7823L130.108 12.7797Z" fill="white"/>
<path d="M137.1 12.8021H135V20.7021H137.1V12.8021Z" fill="white"/>
<path d="M141.998 12.8021H139.898V20.7021H141.998V12.8021Z" fill="white"/>
<path d="M157.17 22.4964L157.152 23.1962L160.151 23.2711L160.169 22.5714L157.17 22.4964Z" fill="white"/>
<path d="M157.215 23.7674L157.195 24.4672L160.194 24.5505L160.214 23.8508L157.215 23.7674Z" fill="white"/>
<path d="M158.7 21.7021C154.4 21.7021 150.8 18.2021 150.9 13.8021C150.9 9.50208 154.4 5.90203 158.8 6.00203C163.1 6.00203 166.6 9.50206 166.6 13.9021C166.6 18.2021 163 21.7021 158.7 21.7021ZM158.7 6.90206C154.9 6.90206 151.8 10.0021 151.8 13.8021C151.8 17.6021 154.9 20.7021 158.7 20.7021C162.5 20.7021 165.6 17.6021 165.6 13.8021C165.6 10.0021 162.5 6.90206 158.7 6.90206Z" fill="white"/>
<path d="M146.398 31.1021C146.498 30.8021 146.598 30.4021 146.698 30.1021L149.098 31.3021C149.098 31.4021 148.998 31.5021 148.998 31.6021L146.398 31.1021ZM147.198 29.2021C147.398 29.0021 147.598 28.7021 147.798 28.5021L149.598 30.5021C149.498 30.6021 149.398 30.7021 149.298 30.8021L147.198 29.2021ZM148.598 28.1021C148.798 27.9021 148.998 27.8021 149.298 27.7021L150.698 30.0021C150.498 30.1021 150.398 30.2021 150.198 30.3021L148.598 28.1021ZM149.898 27.3021C150.098 27.2021 150.298 27.1021 150.598 27.0021L151.698 29.5021L151.198 29.8021L149.898 27.3021ZM151.198 26.7021C151.398 26.6021 151.698 26.5021 151.898 26.5021L152.698 29.1021L152.098 29.3021L151.198 26.7021ZM152.598 26.3021L153.298 26.1021L153.898 28.7021L153.298 28.9021L152.598 26.3021ZM153.998 25.9021L154.698 25.8021L155.198 28.5021L154.598 28.6021L153.998 25.9021ZM162.398 25.7021H162.998L163.198 28.4021C162.898 28.4021 162.698 28.4021 162.398 28.4021V25.7021ZM160.998 28.4021L161.198 25.7021C161.398 25.7021 161.598 25.7021 161.898 25.7021L161.798 28.4021H160.998ZM155.498 25.7021L156.198 25.6021L156.498 28.3021L155.798 28.4021L155.498 25.7021ZM159.598 28.3021L159.798 25.6021H160.498L160.298 28.3021H159.598ZM163.598 25.6021C163.798 25.6021 163.998 25.5021 164.098 25.5021L164.798 28.1021C164.498 28.2021 164.298 28.2021 163.998 28.3021L163.598 25.6021ZM156.998 25.5021H157.698L157.798 28.2021C157.598 28.2021 157.398 28.2021 157.098 28.2021L156.998 25.5021ZM158.398 28.2021V25.5021H159.098L158.998 28.2021H158.398ZM164.598 25.3021C164.798 25.2021 164.898 25.2021 165.098 25.1021L166.298 27.5021C165.998 27.6021 165.798 27.7021 165.598 27.8021L164.598 25.3021ZM165.598 24.8021C165.798 24.7021 165.898 24.6021 166.098 24.5021L167.598 26.7021C167.398 26.9021 167.198 27.0021 166.898 27.1021L165.598 24.8021ZM166.598 24.2021L167.098 23.8021L168.798 25.9021C168.598 26.1021 168.398 26.2021 168.198 26.4021L166.598 24.2021ZM167.498 23.4021L167.898 23.0021L169.798 24.9021C169.598 25.1021 169.398 25.2021 169.298 25.4021L167.498 23.4021Z" fill="white"/>
<path d="M148.6 43.7021L148.3 43.2021L149.5 42.5021L149.8 43.0021L148.6 43.7021ZM148 42.6021L147.7 42.0021L148.9 41.3021L149.2 41.9021L148 42.6021ZM147.3 41.4021L147 40.8021L148.2 40.1021L148.5 40.7021L147.3 41.4021Z" fill="white"/>
<path d="M165.302 43.7021L164.602 42.5021L165.202 42.2021L165.902 43.4021L165.302 43.7021ZM166.502 43.0021L165.902 41.8021L166.502 41.5021L167.202 42.7021L166.502 43.0021ZM167.602 42.4021L166.902 41.2021L167.402 40.9021L168.002 42.1021L167.602 42.4021Z" fill="white"/>
<path d="M148.202 33.4021L148.302 32.1021H149.002L148.902 33.5021L148.202 33.4021ZM146.902 33.3021L147.002 32.0021H147.702L147.602 33.3021H146.902ZM145.602 33.2021L145.702 31.8021H146.302L146.202 33.2021H145.602Z" fill="white"/>
<path d="M170.002 24.2021L170.902 23.2021L171.402 23.7021L170.502 24.7021L170.002 24.2021ZM169.002 23.3021L169.902 22.3021L170.402 22.8021L169.502 23.8021L169.002 23.3021ZM168.102 22.4021L169.002 21.4021L169.402 21.8021L168.502 22.8021L168.102 22.4021Z" fill="white"/>
<path d="M170.801 22.4021L171.201 21.9021L170.701 21.4021L170.301 21.9021L170.801 22.4021Z" fill="white"/>
<path d="M146.999 43.1021L146.699 42.5021L147.299 42.2021L147.599 42.8021L146.999 43.1021Z" fill="white"/>
<path d="M150.101 42.5021L148.801 40.1021C149.001 40.0021 149.101 39.9021 149.301 39.8021L150.701 42.1021C150.601 42.3021 150.401 42.4021 150.101 42.5021ZM151.401 41.7021L149.801 39.5021C150.001 39.4021 150.101 39.3021 150.201 39.1021L152.001 41.1021C151.901 41.3021 151.701 41.5021 151.401 41.7021ZM164.701 41.7021C164.601 41.5021 164.501 41.3021 164.401 41.0021L166.901 40.0021C167.001 40.2021 167.101 40.4021 167.101 40.5021L164.701 41.7021ZM152.601 40.6021L150.701 38.7021C150.801 38.6021 151.001 38.4021 151.101 38.3021L153.201 40.1021C153.001 40.3021 152.801 40.5021 152.601 40.6021ZM164.201 40.3021L164.001 39.6021L166.601 38.7021L166.801 39.4021L164.201 40.3021ZM153.601 39.5021L151.401 37.9021L151.701 37.4021L154.001 38.9021C153.901 39.1021 153.801 39.3021 153.601 39.5021ZM163.701 39.0021L163.501 38.3021L166.001 37.4021C166.101 37.6021 166.201 37.8021 166.201 38.1021L163.701 39.0021ZM154.401 38.3021L152.101 36.9021C152.201 36.7021 152.301 36.5021 152.401 36.4021L154.801 37.7021C154.701 37.8021 154.601 38.0021 154.401 38.3021ZM163.301 37.8021C163.201 37.6021 163.101 37.4021 163.101 37.2021L165.601 36.2021C165.701 36.4021 165.801 36.6021 165.801 36.9021L163.301 37.8021ZM155.201 37.0021L152.801 35.7021L153.101 35.1021L155.501 36.3021C155.401 36.6021 155.301 36.8021 155.201 37.0021ZM162.801 36.6021L162.501 36.0021L165.001 34.9021C165.101 35.1021 165.201 35.3021 165.301 35.6021L162.801 36.6021ZM155.801 35.8021L153.401 34.6021L153.701 34.0021L156.101 35.2021L155.801 35.8021ZM162.301 35.4021C162.201 35.2021 162.101 35.0021 162.001 34.8021L164.401 33.5021C164.501 33.7021 164.601 33.9021 164.701 34.2021L162.301 35.4021ZM156.401 34.6021L154.001 33.3021C154.101 33.1021 154.201 32.9021 154.401 32.6021L156.701 34.0021C156.601 34.2021 156.501 34.4021 156.401 34.6021ZM161.701 34.4021C161.601 34.2021 161.501 34.1021 161.401 33.9021L163.601 32.3021C163.701 32.5021 163.901 32.7021 164.001 33.0021L161.701 34.4021ZM157.101 33.6021L154.901 32.1021C155.101 31.9021 155.201 31.7021 155.401 31.4021L157.501 33.1021C157.301 33.3021 157.201 33.4021 157.101 33.6021ZM161.001 33.4021C160.901 33.3021 160.801 33.1021 160.601 33.0021L162.501 31.0021C162.701 31.2021 162.901 31.4021 163.101 31.6021L161.001 33.4021ZM157.801 32.8021L156.001 30.8021C156.201 30.6021 156.501 30.4021 156.701 30.2021L158.201 32.5021C158.001 32.6021 157.901 32.7021 157.801 32.8021ZM160.301 32.7021C160.201 32.6021 160.101 32.5021 159.901 32.5021L161.201 30.1021C161.501 30.2021 161.701 30.4021 162.001 30.6021L160.301 32.7021ZM158.401 32.4021L157.401 29.9021C157.701 29.8021 158.001 29.7021 158.301 29.7021L158.801 32.4021C158.601 32.3021 158.501 32.3021 158.401 32.4021ZM159.501 32.3021C159.401 32.3021 159.201 32.2021 159.101 32.2021L159.301 29.5021C159.601 29.5021 159.901 29.6021 160.201 29.7021L159.501 32.3021Z" fill="white"/>
<path d="M159.398 9.70215V12.3021H158.298V11.2021H157.098V14.0021H158.098V15.6021H154.998V14.0021H156.098V11.2021H154.898V12.3021H153.898V9.70215H159.398Z" fill="white"/>
<path d="M163.6 14.0021V16.4021H162.8V15.5021H160.3V16.7021H161.8V17.3021H160.3V18.3021H161.6V19.9021H158.5V18.3021H159.3V15.5021H158.5V14.0021H163.6Z" fill="white"/>
</g>
</svg>
