<svg width="180" height="50" viewBox="0 0 180 50" fill="none" xmlns="http://www.w3.org/2000/svg">
<path opacity="0.7" d="M168.6 37.9C169 37.9 169.5 38 169.9 38.1H170C170.1 38.1 170.1 38.2 170.2 38.3C170.3 38.4 170.5 38.6 170.5 38.8C170.6 39.1 170.7 39.4 170.7 39.6V39.7V39.8C170.7 39.9 170.7 40 170.7 40.1C170.6 40.4 170.5 40.6 170.3 40.8C170.3 40.8 170.3 40.9 170.2 40.9C170.1 41 170.1 41 170 41.1C169.9 41.2 169.8 41.2 169.7 41.2L171.4 43.5H169.4L168.2 41.8V40.5H168.3H168.4C168.5 40.5 168.6 40.5 168.7 40.4C168.9 40.3 169.1 40.1 169 39.8C169 39.6 168.9 39.4 168.7 39.3C168.6 39.3 168.5 39.2 168.5 39.2H168.4H168V43.7H166.4V37.9H168.6ZM158.2 37.9L160.3 43.7H158.6L158.2 42.7H156.5L156.9 41.5H157.8L157.5 40.5C157.4 40.3 157.3 39.9 157.2 39.5C157.1 39.9 157 40.2 156.9 40.5L156.6 41.5L156.2 42.8L155.9 43.8H154.2L156.3 38L158.2 37.9ZM145.9 40.2C146 40.2 146.1 40.2 146.2 40.2C146.3 40.2 146.5 40.1 146.5 40C146.6 39.9 146.6 39.8 146.6 39.7V39.6C146.5 39.4 146.4 39.3 146.3 39.3C146.2 39.3 146.2 39.3 146.1 39.3H145.7V42.8H146.2C146.3 42.8 146.4 42.8 146.6 42.8C146.7 42.8 146.8 42.7 146.9 42.6C147 42.4 147 42.2 146.9 42C146.8 41.9 146.7 41.8 146.6 41.7C146.5 41.7 146.3 41.6 146.2 41.6H145.9V40.2ZM146.1 37.9H146.4H146.7C146.9 37.9 147.1 37.9 147.3 38C147.7 38.1 148 38.3 148.2 38.7C148.2 38.8 148.3 38.9 148.3 39C148.3 39.1 148.4 39.3 148.4 39.4V39.5V39.6C148.4 39.7 148.4 39.8 148.3 39.9C148.2 40.1 148.1 40.3 147.9 40.5L147.8 40.6H147.7L147.6 40.7H147.7H147.8C147.9 40.7 148 40.8 148 40.8C148.3 41 148.5 41.2 148.5 41.5C148.5 41.6 148.6 41.7 148.6 41.8V41.9V42.1V42.2C148.6 42.3 148.6 42.3 148.6 42.4C148.6 42.6 148.5 42.7 148.4 42.9C148.2 43.3 147.8 43.5 147.4 43.6C147.2 43.6 146.9 43.7 146.7 43.7H146.3H146H144.1V37.9H146.1ZM133.7 41.5C134 41.2 134.2 41 134.5 40.7L135.4 41.7C135.3 41.8 135.2 41.9 135 42.1C134.9 42.2 134.9 42.2 134.8 42.3L134.6 42.5L135.8 43.8H134L133.6 43.3L132.8 42.4L132.6 42.2L132.4 42C132.3 41.9 132.2 41.7 132.1 41.7L132 41.6L131.9 41.5C131.8 41.5 131.7 41.6 131.7 41.6L131.6 41.7C131.2 42.1 131.7 42.6 132.1 42.6C132.2 42.6 132.4 42.6 132.5 42.5L133.3 43.5C133.2 43.5 133.2 43.6 133.2 43.6C133.1 43.6 133.1 43.7 133 43.7C132.9 43.7 132.8 43.8 132.7 43.8C132.4 43.9 132.1 43.9 131.8 43.9H131.7H131.6C131.5 43.9 131.4 43.9 131.4 43.9C131.2 43.9 131 43.8 130.8 43.7H130.7C130.7 43.7 130.6 43.7 130.6 43.6C130.5 43.5 130.5 43.5 130.4 43.4C130.3 43.3 130.3 43.3 130.2 43.2C130.1 43.1 130.1 43 130 42.9C129.9 42.6 129.8 42.3 129.8 42V41.9C129.8 41.8 129.8 41.8 129.8 41.7C129.8 41.6 129.9 41.4 129.9 41.3C130.2 40.9 130.6 40.6 131.1 40.4C130.8 40 130.7 39.6 130.6 39.2V39.1V39C130.6 38.9 130.6 38.9 130.6 38.8C130.6 38.6 130.7 38.5 130.8 38.4C131.1 37.8 131.8 37.5 132.4 37.6C132.9 37.6 133.5 37.8 133.8 38.2C134 38.5 134.2 38.8 134.2 39.2C134.2 39.6 134 40 133.7 40.3C133.6 40.4 133.5 40.5 133.3 40.6L132.6 39.8C132.6 39.8 132.6 39.8 132.7 39.7L132.8 39.6C132.9 39.5 133 39.3 133 39.2V39.1C133 39 133 39 132.9 39C132.8 38.9 132.7 38.8 132.5 38.8C132.3 38.8 132.2 38.9 132.1 39L132 39.1V39.2C132 39.3 132 39.5 132.1 39.6C132.1 39.7 132.2 39.7 132.2 39.8C132.2 39.8 132.3 39.9 132.3 40L133 40.8L133.7 41.5ZM121.1 37.9V39.3H119.3V40.1H120.9V41.5H119.3V42.4H121.2V43.8H117.7V38H121.1V37.9ZM111.6 37.9V39.3H110.4V43.8H108.8V39.3H107.6V37.9H111.6ZM97.2 37.9L99.3 40.7C99.5 40.9 99.6 41.2 99.8 41.4C99.8 41.2 99.8 40.9 99.8 40.6V37.9H101.4V43.7H99.7L97.7 41C97.6 40.9 97.5 40.7 97.4 40.5C97.4 40.4 97.3 40.3 97.2 40.2V40.4V40.6C97.2 40.8 97.2 40.9 97.2 41V43.6H95.5V37.8H97.2V37.9ZM87.3 37.9L89.4 43.7H87.7L87.3 42.7H85.6L86 41.5H87L86.7 40.5C86.6 40.3 86.5 39.9 86.4 39.5C86.3 39.9 86.2 40.2 86.1 40.5L85.8 41.5L85.4 42.7L85.1 43.7H83.4L85.5 37.9H87.3ZM75.2 37.9C75.6 37.9 76.1 38 76.5 38.1H76.6C76.7 38.1 76.7 38.2 76.8 38.3C76.9 38.4 77.1 38.6 77.1 38.8C77.2 39.1 77.3 39.4 77.3 39.6V39.7V39.8C77.3 39.9 77.3 40 77.3 40.1C77.2 40.4 77.1 40.6 76.9 40.8C76.9 40.8 76.9 40.9 76.8 40.9C76.7 41 76.7 41 76.6 41.1C76.5 41.2 76.4 41.2 76.3 41.2L78 43.5H76L74.8 41.8V40.5H75H75.1C75.2 40.5 75.3 40.5 75.4 40.4C75.6 40.3 75.8 40.1 75.7 39.8C75.7 39.6 75.6 39.4 75.4 39.3C75.3 39.3 75.2 39.2 75.2 39.2H75.1H74.6V43.7H73V37.9H75.2ZM62.9 41.3V41.4V41.5V41.6C62.9 41.8 63 41.9 63 42C63.2 42.2 63.5 42.4 63.8 42.4C64 42.4 64.1 42.4 64.3 42.3L64.4 42.2L64.5 42.1C64.6 42 64.6 41.8 64.7 41.7C64.7 41.6 64.7 41.6 64.7 41.5V41.3V37.9H66.3V41.7V41.8C66.3 41.9 66.3 42 66.3 42.1C66.2 42.4 66.1 42.7 66 42.9C65.4 43.6 64.6 43.9 63.7 43.8C63 43.8 62.4 43.7 61.8 43.3V43.2L61.7 43.1C61.6 43 61.5 42.8 61.5 42.7C61.4 42.5 61.4 42.4 61.4 42.2V41.9V41.6V37.9H63.1L62.9 41.3ZM53 37.9L55.1 43.7H53.4L53 42.7H51.3L51.7 41.5H52.6L52.3 40.5C52.2 40.3 52.1 39.9 52 39.5C51.9 39.9 51.8 40.2 51.7 40.5L51.4 41.5L51 42.7L50.7 43.7H49L51.1 37.9H53ZM43.6 37.9V39.3H42.4V43.8H40.8V39.3H39.6V37.9H43.6ZM33 39.5L32.9 39.4L32.8 39.3C32.7 39.3 32.7 39.2 32.6 39.2C32.4 39.1 32.2 39.1 32 39.1C31.8 39.1 31.7 39.1 31.5 39.3C31.4 39.4 31.4 39.5 31.4 39.6C31.4 39.7 31.5 39.9 31.6 40C31.8 40.1 32.1 40.2 32.3 40.2C32.3 40.2 32.3 40.2 32.4 40.2H32.5C32.6 40.2 32.7 40.3 32.8 40.3C33 40.4 33.3 40.5 33.5 40.6C33.7 40.7 33.8 40.9 33.9 41.1C34.2 41.8 34.1 42.7 33.6 43.3C33.2 43.8 32.5 44 31.9 44C31.3 44 30.6 43.8 30.1 43.5C30 43.5 30 43.4 29.9 43.4L29.8 43.3H29.7L30.3 42.1L30.4 42.2L30.5 42.3C30.8 42.6 31.2 42.7 31.7 42.8C31.9 42.8 32.1 42.8 32.2 42.6C32.3 42.5 32.4 42.3 32.4 42.1C32.4 42 32.4 41.8 32.3 41.7C32.2 41.6 32.1 41.5 32 41.5C32 41.5 31.9 41.5 31.8 41.4H31.6C31.5 41.4 31.5 41.4 31.4 41.4C31.3 41.4 31.2 41.4 31.2 41.3C31.1 41.3 30.9 41.2 30.8 41.2C30.7 41.2 30.6 41.1 30.5 41C30.4 40.9 30.3 40.8 30.2 40.7C30 40.4 29.9 40.1 29.9 39.7C29.9 39.5 29.9 39.4 30 39.2C30 39.1 30.1 39 30.1 38.9C30.2 38.6 30.4 38.4 30.7 38.2C31.1 38 31.5 37.8 32 37.9C32.3 37.9 32.6 37.9 32.9 38C33 38 33.1 38.1 33.2 38.1C33.3 38.1 33.4 38.2 33.4 38.2C33.5 38.2 33.6 38.3 33.6 38.3L33.8 38.4L33 39.5ZM23.4 37.9V39.3H21.6V40.1H23.2V41.5H21.6V42.4H23.5V43.8H20V38H23.4V37.9ZM158.8 30.8C157.1 30.8 155.4 30.5 153.9 29.9C152.5 29.3 151.1 28.4 150 27.3C148.9 26.2 148 24.9 147.5 23.4C146.9 21.9 146.6 20.2 146.6 18.5C146.6 16.8 146.9 15.1 147.6 13.6C148.2 12.1 149.1 10.8 150.2 9.7C151.3 8.6 152.7 7.70001 154.1 7.10001C155.6 6.50001 157.2 6.2 158.8 6.2V9.5C157.6 9.5 156.5 9.7 155.4 10.2C154.4 10.6 153.4 11.3 152.7 12.1C151.9 12.9 151.3 13.9 150.9 14.9C150.5 16 150.2 17.2 150.3 18.4C150.3 19.6 150.5 20.8 150.9 21.9C151.3 22.9 151.9 23.9 152.6 24.7C153.4 25.5 154.3 26.2 155.3 26.6C156.4 27.1 157.6 27.3 158.8 27.3V30.8ZM171.4 18.4C171.4 20.1 171.1 21.8 170.4 23.3C169.8 24.8 168.9 26.1 167.7 27.2C165.4 29.4 162.3 30.7 159.1 30.8V27.5C160.2 27.5 161.3 27.2 162.3 26.8C163.4 26.4 164.3 25.7 165.1 24.9C165.9 24.1 166.5 23.1 166.9 22C167.3 20.9 167.6 19.7 167.5 18.4C167.5 17.2 167.3 16 166.9 14.8C166.5 13.8 165.9 12.8 165.1 12C164.3 11.2 163.4 10.6 162.4 10.2C161.3 9.8 160.2 9.5 159 9.5V6.2C160.6 6.2 162.3 6.50001 163.8 7.10001C165.3 7.70001 166.6 8.50001 167.7 9.60001C168.8 10.7 169.7 12 170.3 13.4C171 15.1 171.4 16.7 171.4 18.4ZM139.7 30.4V6.60001H143.3V30.4H139.7ZM136.1 29C135 29.6 133.8 30.1 132.6 30.4C131.5 30.7 130.3 30.8 129.2 30.8C127.6 30.8 126 30.5 124.4 29.9C123 29.3 121.7 28.4 120.6 27.3C119.5 26.2 118.6 24.8 118.1 23.4C117.5 21.8 117.2 20.2 117.2 18.5C117.2 16.8 117.5 15.2 118.1 13.6C119.2 10.7 121.5 8.4 124.4 7.2C125.9 6.6 127.6 6.3 129.2 6.3C131.5 6.3 133.7 6.79999 135.7 7.89999L135.9 8V12.1L135.4 11.8C134.5 11.1 133.4 10.6 132.4 10.2C131.4 9.9 130.4 9.7 129.3 9.7C127 9.7 124.9 10.6 123.3 12.2C122.5 13 121.9 14 121.5 15C121.1 16.1 120.9 17.3 120.9 18.5C120.9 19.7 121.1 20.9 121.6 22.1C122.4 24.2 124.1 26 126.2 26.9C127.3 27.4 128.4 27.6 129.6 27.6C130.7 27.6 131.8 27.4 132.8 27C133.9 26.6 134.8 26 135.7 25.2L136.2 24.7V29H136.1ZM97.2 13.7V30.4H93.7V6H94.4L110.9 23.2V6.5H114.3V31H113.6L97.2 13.7ZM50.9 13.7V30.4H47.4V6H48.1L64.6 23.2V6.5H68V31H67.3L50.9 13.7ZM35.2 10V13.5H44.3V16.7H35.2V27.2H44.5V30.5H31.6V6.7H44.3V10.1H35.2V10ZM75.3 26.9H86.5L82.2 16.3H85.6L91.5 30.4H70.2L76.2 16.3H79.6L75.3 26.9ZM80.9 13.1L80.5 14H77.1L80.5 6H81.2L84.6 14H81.2L80.9 13.1ZM19 22.8L25.3 6.60001H29L19.3 31.1H18.6L9 6.60001H12.9L19 22.8ZM11.2 37.9C11.6 37.9 12.1 38 12.5 38.1H12.6C12.7 38.1 12.7 38.2 12.8 38.3C12.9 38.4 13.1 38.6 13.1 38.8C13.2 39.1 13.3 39.4 13.3 39.6V39.7V39.8C13.3 39.9 13.3 40 13.3 40.1C13.2 40.4 13.1 40.6 12.9 40.8C12.9 40.8 12.9 40.9 12.8 40.9C12.7 41 12.7 41 12.6 41.1C12.5 41.2 12.4 41.2 12.3 41.2L14 43.5H12L10.8 41.8V40.5H10.9H11C11.1 40.5 11.2 40.5 11.3 40.4C11.5 40.3 11.7 40.1 11.6 39.8C11.6 39.6 11.5 39.4 11.3 39.3C11.2 39.3 11.1 39.2 11.1 39.2H11H10.6V43.7H9V37.9H11.2Z" fill="white"/>
</svg>
