<svg width="180" height="50" viewBox="0 0 180 50" fill="none" xmlns="http://www.w3.org/2000/svg">
<g opacity="0.7" clip-path="url(#clip0_1462_649)">
<path d="M143.091 6.48148C153.256 6.48148 161.525 14.7889 161.525 25C161.525 35.2111 153.256 43.5185 143.091 43.5185H36.9091C26.7444 43.5185 18.4747 35.2111 18.4747 25C18.4747 14.7889 26.7444 6.48148 36.9091 6.48148H143.091ZM143.091 5H36.9091C25.913 5 17 13.9537 17 25C17 36.0463 25.913 45 36.9091 45H143.091C154.087 45 163 36.0463 163 25C163 13.9537 154.087 5 143.091 5Z" fill="white"/>
<path d="M36.9492 10.3019H40.225V26.1852H41.9412C42.4224 26.1852 42.7671 26.1723 42.9736 26.1463C42.9219 26.8519 42.8961 27.3482 42.8961 27.6352C42.8961 28.3019 42.9478 28.863 43.0528 29.3185C42.7929 29.2926 42.4224 29.2797 41.9412 29.2797H40.225V38.3852H36.9492V10.3019ZM43.8105 23.6278C44.24 22.7852 44.8889 21.876 45.7608 20.8963L48.1204 18.3315H52.7604L46.736 24.3445C46.0853 24.9982 45.4714 25.45 44.8944 25.7056C44.3156 25.9593 43.6759 26.1074 42.9736 26.1463C43.1026 25.3111 43.3828 24.4723 43.8123 23.6297L43.8105 23.6278ZM45.8972 34.2908C45.0788 33.35 44.4446 32.4926 43.9967 31.7148C43.5487 30.9389 43.2335 30.1389 43.051 29.3167C43.8953 29.4074 44.6787 29.6037 45.3995 29.9037C46.1203 30.2037 46.7747 30.6797 47.3591 31.3334L53.9475 38.3834H49.4053L45.8954 34.2908H45.8972Z" fill="white"/>
<path d="M53.4276 28.6723C53.4276 27.0019 53.8406 25.5686 54.6646 24.3741C55.4904 23.1797 56.637 22.276 58.1063 21.6611C57.6638 22.9408 57.3855 24.5593 57.2675 26.5186H68.282C68.282 24.626 68.094 23.0204 67.7161 21.7019C69.0802 22.3167 70.1162 23.1908 70.826 24.326C71.5338 25.4611 71.8878 26.8204 71.8878 28.4C71.8878 28.6611 71.8804 28.863 71.8675 29.0074H57.2067C57.2325 30.313 57.3228 31.4945 57.4795 32.5519C57.6362 33.6093 57.8814 34.55 58.2206 35.3723C55.024 34.3537 53.4258 32.1223 53.4258 28.6741L53.4276 28.6723ZM62.8052 20.8204C60.9986 20.8204 59.4317 21.1019 58.1063 21.663C58.5616 20.3834 59.1939 19.4278 60.0068 18.7945C60.818 18.1611 61.8171 17.8445 62.9987 17.8445C65.3381 17.8445 66.9105 19.1297 67.7161 21.7019C66.2985 21.1149 64.6615 20.8204 62.8033 20.8204H62.8052ZM58.2242 35.3704C59.4722 35.8019 61.1092 36.0167 63.137 36.0167C64.8919 36.0167 66.4312 35.8278 67.7566 35.4482C67.34 36.5723 66.7262 37.4241 65.915 38.0037C65.1021 38.5852 64.1435 38.876 63.0393 38.876C60.7516 38.876 59.146 37.7074 58.2242 35.3704ZM68.3613 31.8056H71.9873C71.7661 32.7204 71.285 33.4778 70.5439 34.0778C69.8028 34.6778 68.8738 35.1352 67.7566 35.4482C68.1198 34.4686 68.3226 33.2556 68.3613 31.8056Z" fill="white"/>
<path d="M74.8886 18.3315H78.2805V23.3834H78.3192C78.7874 21.8038 79.5082 20.4852 80.4834 19.4278C81.4586 18.3704 82.6531 17.8427 84.0707 17.8427C86.163 17.8427 87.3981 19.0371 87.7742 21.426C86.799 21.0741 85.7077 20.8982 84.4984 20.8982C83.4974 20.8982 82.572 21.0352 81.7203 21.3093C80.8687 21.5834 80.1479 21.9352 79.5561 22.3667C78.9644 22.7982 78.5386 23.2556 78.2786 23.7371V38.3852H74.8867V18.3315H74.8886ZM87.8921 23.2278C87.8921 22.576 87.8534 21.9741 87.776 21.426C88.9706 21.8445 89.907 22.5223 90.5836 23.463H90.6223C91.2066 21.8186 91.9993 20.4704 93.0003 19.4186C94.0013 18.3686 95.2161 17.8427 96.6466 17.8427C98.7389 17.8427 99.974 19.0371 100.35 21.426C99.3749 21.0741 98.2891 20.8982 97.0946 20.8982C95.677 20.8982 94.3976 21.163 93.2547 21.6908C92.1118 22.2204 91.2601 22.863 90.7015 23.6204C91.1827 24.4815 91.4223 25.4223 91.4223 26.4408V38.3871H87.894V23.2297L87.8921 23.2278ZM100.486 23.2278C100.486 22.5352 100.44 21.9352 100.35 21.426C101.454 21.8186 102.339 22.4241 103.001 23.2482C103.665 24.0704 103.995 25.1352 103.995 26.4408V38.3871H100.485V23.2297L100.486 23.2278Z" fill="white"/>
<path d="M107.314 18.3315H110.706V23.3834H110.745C111.213 21.8038 111.934 20.4852 112.909 19.4278C113.884 18.3704 115.079 17.8427 116.496 17.8427C118.589 17.8427 119.824 19.0371 120.2 21.426C119.225 21.0741 118.133 20.8982 116.924 20.8982C115.923 20.8982 114.998 21.0352 114.146 21.3093C113.294 21.5834 112.574 21.9352 111.982 22.3667C111.39 22.7982 110.964 23.2556 110.704 23.7371V38.3852H107.312V18.3315H107.314ZM120.318 23.2278C120.318 22.576 120.279 21.9741 120.202 21.426C121.396 21.8445 122.333 22.5223 123.009 23.463H123.048C123.632 21.8186 124.425 20.4704 125.426 19.4186C126.427 18.3686 127.642 17.8427 129.072 17.8427C131.165 17.8427 132.4 19.0371 132.776 21.426C131.801 21.0741 130.715 20.8982 129.52 20.8982C128.103 20.8982 126.823 21.163 125.68 21.6908C124.538 22.2204 123.686 22.863 123.127 23.6204C123.608 24.4815 123.848 25.4223 123.848 26.4408V38.3871H120.32V23.2297L120.318 23.2278ZM132.912 23.2278C132.912 22.5352 132.866 21.9352 132.776 21.426C133.88 21.8186 134.765 22.4241 135.427 23.2482C136.09 24.0704 136.42 25.1352 136.42 26.4408V38.3871H132.91V23.2297L132.912 23.2278Z" fill="white"/>
<path d="M139.621 13.7574H143.052V16.6649H139.621V13.7574ZM139.621 18.3315H143.052V38.3852H139.621V18.3315Z" fill="white"/>
</g>
<defs>
<clipPath id="clip0_1462_649">
<rect width="146" height="40" fill="white" transform="translate(17 5)"/>
</clipPath>
</defs>
</svg>
