<svg width="180" height="50" viewBox="0 0 180 50" fill="none" xmlns="http://www.w3.org/2000/svg">
<g opacity="0.7">
<path d="M56.1 17.55L38.2 3.75C36.9 2.75 35.2 2.75 33.9 3.75L16 17.55V21.95L20.4 25.35L16 28.75V33.15L33.8 47.05C35.1 48.05 36.8 48.05 38.1 47.05L55.9 33.15V28.75L51.5 25.35L55.9 21.95V17.55H56.1ZM18.7 20.65V18.75L34.9 6.14999V14.15L22.6 23.65L18.7 20.65ZM34.9 44.45L18.7 31.85V29.95L22.6 26.95L34.9 36.55V44.45ZM24.7 25.25L36.2 16.35L47.7 25.25L36.2 34.15L24.7 25.25ZM53.6 29.95V31.85L37.4 44.45V36.45L49.7 26.85L53.6 29.95ZM53.6 20.65L49.7 23.75L37.4 14.25V6.25L53.6 18.85V20.65Z" fill="white"/>
<path d="M69.1016 36.3499V15.45H75.1016L85.2015 31.95L95.3015 15.45H101.302V36.3499H97.5015V19.05L86.9016 36.3499H83.4016L72.8015 19.05V36.3499H69.1016Z" fill="white"/>
<path d="M129.802 30.05C129.802 34.45 125.602 36.35 118.302 36.35C110.902 36.35 106.202 34.35 106.102 28.65H110.202C110.202 32.15 113.002 33.05 118.502 33.05C123.602 33.05 125.702 32.35 125.702 29.95C125.702 27.25 123.102 26.55 115.702 26.55V23.95C122.802 23.95 125.402 23.25 125.402 20.45C125.402 18.45 123.902 17.45 118.502 17.45C112.202 17.45 110.202 18.65 110.202 21.85H106.202C106.302 16.25 111.102 14.15 118.402 14.15C125.402 14.15 129.602 16.05 129.602 20.45C129.602 22.85 128.102 24.25 125.702 25.15C128.102 26.05 129.802 27.55 129.802 30.05Z" fill="white"/>
<path d="M149.502 15.4501C155.002 15.4501 159.702 18.7501 159.702 25.8501C159.702 32.9501 155.002 36.2501 149.502 36.2501H134.602V15.3501H149.502V15.4501ZM138.402 32.9501H147.602C153.002 32.9501 155.702 31.6501 155.702 25.9501C155.702 20.1501 153.002 18.8501 147.602 18.8501H138.402V32.9501Z" fill="white"/>
<path d="M162.603 32.3501C161.703 32.3501 160.703 33.0501 160.703 34.3501C160.703 35.5501 161.703 36.3501 162.603 36.3501C163.603 36.3501 164.503 35.6501 164.503 34.3501C164.503 33.0501 163.503 32.3501 162.603 32.3501ZM162.603 35.8501C161.903 35.8501 161.103 35.3501 161.103 34.3501C161.103 33.3501 161.803 32.8501 162.603 32.8501C163.303 32.8501 164.003 33.3501 164.003 34.3501C164.003 35.3501 163.303 35.8501 162.603 35.8501Z" fill="white"/>
<path d="M163.002 35.2501H163.402L162.902 34.5501C163.202 34.4501 163.302 34.2501 163.302 33.9501C163.302 33.5501 163.102 33.3501 162.602 33.3501H161.902V35.2501H162.202V34.5501H162.502L163.002 35.2501ZM162.202 34.3501V33.6501H162.502C162.702 33.6501 162.902 33.7501 162.902 33.9501C162.902 34.2501 162.702 34.2501 162.502 34.2501H162.202V34.3501Z" fill="white"/>
</g>
</svg>
