<svg width="180" height="50" viewBox="0 0 180 50" fill="none" xmlns="http://www.w3.org/2000/svg">
<g opacity="0.7" clip-path="url(#clip0_1462_661)">
<path d="M11 40L13.634 16.0112C14.0125 12.5842 16.8545 10 20.248 10H40.5309L37.8617 33.9888C37.4858 37.4158 34.6412 40 31.2478 40H15.1428L18.7668 37.3852H31.2503C33.3305 37.3852 35.0748 35.8016 35.3054 33.7011L37.6562 12.6173H20.248C18.1678 12.6173 16.4235 14.201 16.1929 16.3015L14.1704 34.7221L28.8168 26.0171L24.1953 21.3222V26.3889L21.3231 27.9649V19.9321C21.3231 19.1046 21.8094 18.3637 22.5637 18.048C23.3156 17.7323 24.4735 17.9055 25.0499 18.491L31.13 24.6677C31.5736 25.1184 31.7841 25.7422 31.7014 26.3761C31.6212 26.9923 31.2779 27.5269 30.7591 27.8503L11 40Z" fill="white"/>
<path d="M46.0586 26.3075V12.2406H56.7401V15.5555H49.8154V17.7171H54.7251V20.8309H49.8154V22.9925H56.7401V26.3075H46.0586Z" fill="white"/>
<path d="M62.5771 17.9666V26.3075H58.918V12.2406H62.775L68.1158 20.2988V12.2406H71.7749V26.3075H68.1158L62.5771 17.9666Z" fill="white"/>
<path d="M80.8741 15.5555V26.3075H77.1148V15.5555H73.3555V12.2406H84.631V15.5555H80.8716H80.8741Z" fill="white"/>
<path d="M86.2148 12.2406H92.6057C95.6533 12.2406 97.7886 14.0687 97.7886 16.9635C97.7886 18.873 96.8387 20.421 95.137 21.2434L98.3826 26.3075H94.0293L91.32 21.7857H89.9742V26.3075H86.2148V12.2406ZM89.9742 15.4563V18.873H92.1496C93.2774 18.873 94.0293 18.2696 94.0293 17.1646C94.0293 16.0597 93.2774 15.4563 92.1496 15.4563H89.9742Z" fill="white"/>
<path d="M100.062 26.3075V12.2406H110.744V15.5555H103.819V17.5644H108.729V20.6782H103.819V22.99H110.744V26.3049H100.062V26.3075Z" fill="white"/>
<path d="M111.538 12.2406H115.791L118.856 21.3249L121.921 12.2406H125.976L120.635 26.3075H116.876L111.535 12.2406H111.538Z" fill="white"/>
<path d="M127.461 12.2406H131.318V26.3075H127.461V12.2406Z" fill="white"/>
<path d="M139.804 17.7324C142.287 18.8272 143.538 20.2733 143.538 22.053C143.538 24.6525 141.267 26.3151 138.475 26.3151C136.628 26.3151 134.473 25.5334 133.355 24.3979L133.145 24.1637L135.262 21.8188C136.262 22.8346 138.515 23.7741 139.458 23.0689C140.017 22.659 139.824 22.0123 139.207 21.5234C138.821 21.2306 138.072 20.8385 136.974 20.3497C134.934 19.451 133.914 18.1016 133.914 16.3015C133.914 13.7606 136.049 12.2355 138.784 12.2355C140.247 12.2355 142.112 12.8414 143.017 13.6434L143.535 14.0941L141.418 16.439C140.879 15.7948 139.706 15.2271 138.819 15.2271C138.165 15.2271 137.663 15.5199 137.663 16.0087C137.663 16.7903 138.606 17.2003 139.799 17.7298L139.804 17.7324Z" fill="white"/>
<path d="M152.187 15.5555V26.3075H148.427V15.5555H144.668V12.2406H157.081L155.943 15.5555H152.184H152.187Z" fill="white"/>
<path d="M169.003 26.3075H164.848L164.036 23.8964H159.129L158.317 26.3075H154.359L159.8 12.2406H163.56L169.001 26.3075H169.003ZM161.585 16.6402L160.141 20.8793H163.011L161.587 16.6402H161.585Z" fill="white"/>
<path d="M53.1637 32.0438C53.1637 30.2667 51.8956 29.121 49.9332 29.121H46.0586V37.7622H47.8831V35.0329H49.853C51.8329 35.0329 53.1637 33.8311 53.1637 32.0438ZM47.8831 33.6453V30.5748H49.6951C50.6625 30.5748 51.3367 31.2062 51.3367 32.11C51.3367 33.0139 50.6625 33.6453 49.6951 33.6453H47.8831Z" fill="white"/>
<path d="M59.6028 37.7621H61.6855L59.663 34.6076L60.0038 34.4421C61.0138 33.9532 61.5702 33.0545 61.5702 31.9113C61.5702 30.2156 60.3522 29.1208 58.47 29.1208H54.5703V37.7621H56.3948V34.768H57.8033L59.5978 37.7621H59.6028ZM56.3999 30.5746H58.1718C59.1291 30.5746 59.7482 31.15 59.7482 32.0437C59.7482 32.9374 59.1291 33.5128 58.1718 33.5128H56.3999V30.5772V30.5746Z" fill="white"/>
<path d="M67.0279 29.1208C64.5091 29.1208 62.6094 30.9947 62.6094 33.4797C62.6094 35.9646 64.4364 37.7621 66.9527 37.7621C69.4689 37.7621 71.3711 35.8882 71.3711 33.4033C71.3711 30.9184 69.5441 29.1208 67.0279 29.1208ZM66.9903 36.1581C65.5016 36.1581 64.3813 34.9895 64.3813 33.4415C64.3813 31.8935 65.5041 30.7249 66.9903 30.7249C68.4764 30.7249 69.5992 31.8935 69.5992 33.4415C69.5992 34.9895 68.4764 36.1581 66.9903 36.1581Z" fill="white"/>
<path d="M80.5018 37.7621V29.1208H78.7425V35.2237L74.6974 29.1208H72.6523V37.7621H74.4117V31.4734L78.5871 37.7621H80.5018Z" fill="white"/>
<path d="M88.9092 29.1208H81.4883V30.6408H83.977V37.7621H85.8015V30.6408H88.3879L88.9092 29.1208Z" fill="white"/>
<path d="M93.1944 36.1632L93.7307 37.7595H95.7582L92.4174 29.1183H90.3799L87.0391 37.7595H88.9338L89.4701 36.1632H93.1944ZM91.3347 30.6586L92.7407 34.8418H89.9112L91.3347 30.6586Z" fill="white"/>
<path d="M97.1136 34.4853C97.482 34.111 97.9356 33.9252 98.4694 33.9252C99.0033 33.9252 99.4569 34.111 99.8253 34.4751C100.184 34.8392 100.367 35.2924 100.367 35.8347C100.367 36.377 100.184 36.8302 99.8153 37.2019C99.4394 37.5762 98.9857 37.7621 98.4519 37.7621C97.9181 37.7621 97.4645 37.5762 97.1061 37.2121C96.7376 36.848 96.5547 36.3948 96.5547 35.8525C96.5547 35.3102 96.7376 34.857 97.1136 34.4853ZM97.472 36.8658C97.7426 37.1408 98.0659 37.2834 98.4594 37.2834C98.8529 37.2834 99.1837 37.1408 99.4569 36.8658C99.7301 36.5909 99.8579 36.2446 99.8579 35.8449C99.8579 35.4452 99.7276 35.0989 99.4569 34.8239C99.1862 34.549 98.8529 34.4064 98.4594 34.4064C98.0659 34.4064 97.7426 34.549 97.472 34.8239C97.2013 35.0989 97.061 35.4452 97.061 35.8449C97.061 36.2446 97.2013 36.5909 97.472 36.8658ZM97.7426 34.913H98.5897C98.7902 34.913 98.9582 34.9665 99.0885 35.0811C99.2188 35.1956 99.2815 35.356 99.2815 35.5419C99.2815 35.8169 99.1587 36.0027 98.9231 36.1097L99.3592 36.7767H98.7827L98.4143 36.181H98.2389V36.7767H97.7401V34.913H97.7426ZM98.2414 35.3382V35.7914H98.5296C98.695 35.7914 98.7827 35.7201 98.7827 35.5699C98.7827 35.4197 98.695 35.3382 98.5296 35.3382H98.2414Z" fill="white"/>
</g>
<defs>
<clipPath id="clip0_1462_661">
<rect width="158" height="30" fill="white" transform="translate(11 10)"/>
</clipPath>
</defs>
</svg>
