<svg width="180" height="50" viewBox="0 0 180 50" fill="none" xmlns="http://www.w3.org/2000/svg">
<g opacity="0.7">
<path d="M49.0701 35.2009C47.6627 33.6231 46.9883 31.2 46.9883 28.0162V22.6629C46.9883 19.4791 47.7213 17.0561 49.1288 15.4783C50.5362 13.9005 53.0872 13.1116 56.7231 13.1116C60.3883 13.1116 62.91 13.9287 64.3175 15.4783C65.7249 17.0561 66.4579 19.4791 66.4579 22.6629V28.0162C66.4579 31.2 65.7249 33.6231 64.3175 35.2009C62.91 36.7787 60.359 37.5676 56.7231 37.5676C53.0286 37.5676 50.4776 36.7787 49.0701 35.2009ZM63.4378 22.6629C63.4378 20.2117 62.9687 18.4648 62.0597 17.3942C61.1507 16.2954 59.3621 15.76 56.6938 15.76C54.0255 15.76 52.2369 16.2954 51.3279 17.3942C50.4189 18.4648 49.9498 20.2117 49.9498 22.6629V28.0162C49.9498 30.4393 50.4189 32.1861 51.3279 33.285C52.2369 34.3556 54.0255 34.8909 56.6938 34.8909C59.3621 34.8909 61.1507 34.3556 62.0597 33.285C62.9687 32.1861 63.4378 30.4393 63.4378 28.0162V22.6629Z" fill="white"/>
<path d="M83.0543 13.4216C88.8893 13.4216 91.2058 15.5911 91.2058 19.6483C91.2058 22.6067 90.1502 24.2127 87.1007 24.9171V25.0016C90.7659 25.6215 91.9681 27.4247 91.9681 30.6085C91.9681 34.8065 89.769 37.2296 83.6701 37.2296H82.8784H78.4215C75.5186 37.2296 74.3164 36.0181 74.3164 33.2851V17.3661C74.3164 14.6332 75.5479 13.4216 78.4215 13.4216H83.0543ZM79.0665 16.0983C77.8057 16.0983 77.2779 16.6054 77.2779 17.8169V23.7901H83.0836C86.9248 23.7901 88.2149 22.5222 88.2149 19.9019C88.2149 17.3098 86.9248 16.0983 83.0836 16.0983H79.0665ZM77.2779 26.2977V32.8061C77.2779 34.0176 77.8057 34.5248 79.0665 34.5248H83.2009C87.6285 34.5248 88.948 33.3414 88.948 30.4112C88.948 27.5937 87.6578 26.2695 83.6407 26.2695H77.2779V26.2977Z" fill="white"/>
<path d="M99.8856 35.7361C99.8563 34.8627 100.677 34.1865 101.557 34.3837C102.935 34.6937 104.46 34.8345 106.16 34.8345C110.09 34.8345 111.849 34.0175 111.849 31.7353C111.849 29.9884 110.911 29.1432 108.33 27.6217L102.7 24.297C100.179 22.8319 98.918 20.8879 98.918 18.4648C98.918 14.6893 101.557 13.0552 106.893 13.0552C108.682 13.0552 110.265 13.2524 111.644 13.6187C112.23 13.7877 112.611 14.2949 112.611 14.8866C112.611 15.7318 111.79 16.3517 110.911 16.1544C109.679 15.9009 108.36 15.76 106.893 15.76C103.375 15.76 101.967 16.5771 101.967 18.5775C101.967 20.1553 102.759 20.8879 104.636 22.043L110.383 25.4804C113.315 27.2273 114.84 28.7487 114.84 31.6789C114.84 35.5953 111.908 37.5394 106.072 37.5394C104.079 37.5394 102.349 37.3421 100.883 36.9477C100.296 36.835 99.8856 36.3278 99.8856 35.7361Z" fill="white"/>
<path d="M124.014 37.2012C124.835 37.2012 125.509 36.5531 125.509 35.7642V34.2991V33.5666V14.9147C125.509 14.1539 124.894 13.4496 124.102 13.4214C123.252 13.365 122.548 14.0412 122.548 14.8583V33.5948V34.3273V35.7924C122.518 36.5813 123.193 37.2012 124.014 37.2012Z" fill="white"/>
<path d="M36.285 17.8451L37.6338 35.4545C37.6338 35.4827 37.6338 35.5109 37.6338 35.5391L37.6631 35.9053C37.7217 36.6379 38.3668 37.2296 39.1292 37.2296C39.9795 37.2296 40.6539 36.5252 40.5953 35.7081L40.5659 35.4827L39.2171 18.1268H39.1878C38.9239 14.4922 37.4285 13.2244 34.4963 13.2244C31.7987 13.2244 30.4206 14.4922 29.9221 18.1268L27.7816 31.3973C27.635 32.5243 27.4005 32.8342 26.7847 32.8342C26.1396 32.8342 25.9344 32.5807 25.7878 31.3973L23.6473 18.1268C23.1488 14.4641 21.7707 13.2244 19.0731 13.2244C16.1409 13.2244 14.6455 14.4922 14.3816 18.1268L13.1501 35.4545L13.1207 35.6799C13.0621 36.497 13.7365 37.2014 14.5868 37.2014C15.3492 37.2014 15.9943 36.6379 16.0529 35.8772L16.0822 35.5109C16.0822 35.4827 16.0822 35.4545 16.0822 35.4264L17.431 17.8169C17.5483 16.2109 18.0761 15.732 19.1317 15.732C20.07 15.732 20.5685 16.1828 20.8324 17.8169L23.2368 31.7072C23.5886 34.1585 24.6442 35.1164 26.814 35.1164C29.2184 35.1164 30.0394 34.1585 30.3913 31.7072L32.7957 17.8169C33.0596 16.2109 33.5287 15.732 34.467 15.732C35.6106 15.7601 36.1677 16.1828 36.285 17.8451Z" fill="white"/>
<path d="M156.094 17.8451L157.442 35.4545C157.442 35.4827 157.442 35.5109 157.442 35.5391L157.472 35.9053C157.53 36.6379 158.175 37.2296 158.938 37.2296C159.788 37.2296 160.463 36.5252 160.404 35.7081L160.375 35.4827L159.026 18.1268H158.997C158.733 14.4922 157.237 13.2244 154.305 13.2244C151.607 13.2244 150.229 14.4922 149.731 18.1268L147.59 31.3973C147.444 32.5243 147.209 32.8342 146.593 32.8342C145.948 32.8342 145.743 32.5807 145.596 31.3973L143.456 18.1268C142.957 14.4641 141.579 13.2244 138.882 13.2244C135.95 13.2244 134.454 14.4922 134.19 18.1268L132.841 35.4827L132.812 35.7081C132.754 36.5252 133.428 37.2296 134.278 37.2296C135.041 37.2296 135.686 36.6661 135.744 35.9053L135.774 35.5391C135.774 35.5109 135.774 35.4827 135.774 35.4545L137.122 17.8451C137.24 16.2391 137.768 15.7601 138.823 15.7601C139.761 15.7601 140.26 16.2109 140.524 17.8451L142.928 31.7354C143.28 34.1867 144.336 35.1446 146.505 35.1446C148.91 35.1446 149.731 34.1867 150.083 31.7354L152.487 17.8451C152.751 16.2391 153.22 15.7601 154.158 15.7601C155.449 15.7601 155.976 16.1828 156.094 17.8451Z" fill="white"/>
<path d="M162.047 13.3934C162.047 13.2525 162.076 13.1962 162.252 13.1962H164.07C164.217 13.1962 164.275 13.2243 164.275 13.3934V13.4216C164.275 13.5624 164.246 13.6188 164.07 13.6188H163.396V15.7319C163.396 15.8728 163.366 15.9292 163.19 15.9292H163.132C162.985 15.9292 162.927 15.901 162.927 15.7319V13.6188H162.252C162.106 13.6188 162.047 13.5906 162.047 13.4216V13.3934Z" fill="white"/>
<path d="M167.998 15.7319C167.998 15.8728 167.969 15.9292 167.822 15.9292H167.764C167.617 15.9292 167.558 15.901 167.558 15.7319L167.412 13.816C167.412 13.647 167.353 13.5906 167.265 13.5906C167.177 13.5906 167.148 13.647 167.119 13.816L166.884 15.4784C166.825 15.8165 166.737 15.9292 166.415 15.9292C166.122 15.9292 165.975 15.8165 165.946 15.4784L165.711 13.816C165.682 13.647 165.653 13.5906 165.565 13.5906C165.477 13.5906 165.418 13.647 165.418 13.816L165.271 15.7319C165.271 15.8728 165.213 15.9292 165.066 15.9292H165.007C164.861 15.9292 164.802 15.901 164.832 15.7319L164.978 13.816C165.007 13.3934 165.183 13.1962 165.565 13.1962C165.916 13.1962 166.092 13.3652 166.151 13.816L166.356 15.422C166.386 15.5629 166.386 15.5629 166.444 15.5629C166.503 15.5629 166.532 15.5347 166.532 15.422L166.737 13.816C166.796 13.3652 166.972 13.1962 167.324 13.1962C167.705 13.1962 167.881 13.3652 167.91 13.816L167.998 15.7319Z" fill="white"/>
</g>
</svg>
