<svg width="32" height="32" viewBox="0 0 32 32" fill="none" xmlns="http://www.w3.org/2000/svg">
<path d="M29.3162 17.3838C29.4778 17.3298 29.6229 17.2355 29.7378 17.1098C29.8528 16.984 29.9336 16.831 29.9728 16.6652C30.012 16.4995 30.0082 16.3264 29.9618 16.1625C29.9153 15.9986 29.8278 15.8493 29.7074 15.7288L15.2712 1.2925C15.0837 1.10511 14.8294 0.99984 14.5643 0.99984C14.2992 0.99984 14.045 1.10511 13.8574 1.2925L8.7812 6.375L5.7062 3.2925C5.51856 3.10503 5.26413 2.99977 4.99888 2.99989C4.73363 3 4.4793 3.10549 4.29182 3.29313C4.10435 3.48077 3.99909 3.7352 3.99921 4.00044C3.99933 4.26569 4.10481 4.52003 4.29245 4.7075L7.36745 7.7825L1.87495 13.2713C1.31238 13.8339 0.996338 14.5969 0.996338 15.3925C0.996338 16.1881 1.31238 16.9511 1.87495 17.5138L12.4862 28.125C13.0488 28.6876 13.8118 29.0036 14.6074 29.0036C15.4031 29.0036 16.1661 28.6876 16.7287 28.125L26.5399 18.3138L29.3162 17.3838ZM25.2924 16.7288L15.3137 26.7075C15.1262 26.8949 14.8719 27.0002 14.6068 27.0002C14.3417 27.0002 14.0875 26.8949 13.8999 26.7075L3.29245 16.1C3.10505 15.9125 2.99979 15.6582 2.99979 15.3931C2.99979 15.128 3.10505 14.8738 3.29245 14.6863L8.7812 9.19625L12.4212 12.8363C12.0217 13.576 11.9018 14.4348 12.0835 15.2556C12.2651 16.0765 12.7362 16.8045 13.4104 17.3066C14.0847 17.8087 14.9172 18.0513 15.7557 17.9901C16.5942 17.9289 17.3826 17.5679 17.9768 16.9732C18.571 16.3784 18.9313 15.5897 18.9917 14.7512C19.0522 13.9127 18.8089 13.0804 18.3062 12.4065C17.8035 11.7327 17.075 11.2623 16.254 11.0814C15.433 10.9005 14.5743 11.0211 13.8349 11.4213L10.1962 7.7825L14.5712 3.41375L27.1487 16L25.6837 16.4875C25.5365 16.5368 25.4026 16.6194 25.2924 16.7288ZM14.4387 13.44C14.7208 13.1034 15.125 12.8926 15.5625 12.8538C15.9999 12.815 16.4349 12.9514 16.7719 13.2331C17.1088 13.5147 17.3203 13.9186 17.3597 14.356C17.3991 14.7934 17.2634 15.2286 16.9822 15.566C16.7011 15.9033 16.2975 16.1154 15.8602 16.1554C15.4228 16.1955 14.9875 16.0604 14.6497 15.7797C14.3119 15.4991 14.0993 15.0958 14.0585 14.6586C14.0178 14.2213 14.1523 13.7857 14.4324 13.4475C14.4324 13.4475 14.4387 13.4413 14.4387 13.44ZM29.8324 20.44C29.7412 20.3028 29.6174 20.1903 29.4722 20.1125C29.3269 20.0347 29.1647 19.994 28.9999 19.994C28.8352 19.994 28.673 20.0347 28.5277 20.1125C28.3825 20.1903 28.2587 20.3028 28.1674 20.44C27.9462 20.7788 25.9999 23.7613 25.9999 26C25.9999 26.7957 26.316 27.5587 26.8786 28.1213C27.4412 28.6839 28.2043 29 28.9999 29C29.7956 29 30.5587 28.6839 31.1213 28.1213C31.6839 27.5587 31.9999 26.7957 31.9999 26C31.9999 23.7613 30.0537 20.7788 29.8324 20.445V20.44ZM28.9999 27C28.7347 27 28.4804 26.8946 28.2928 26.7071C28.1053 26.5196 27.9999 26.2652 27.9999 26C27.9999 25.15 28.4999 23.96 28.9999 22.99C29.4999 23.96 29.9999 25.1575 29.9999 26C29.9999 26.2652 29.8946 26.5196 29.7071 26.7071C29.5195 26.8946 29.2652 27 28.9999 27Z" fill="black"/>
</svg>
