<svg width="32" height="32" viewBox="0 0 32 32" fill="none" xmlns="http://www.w3.org/2000/svg">
<path d="M18.7012 10.7138L7.50115 21.7138C7.31412 21.8977 7.06226 22.0008 6.79991 22.0008C6.53755 22.0008 6.2857 21.8977 6.09866 21.7138L1.29866 17C1.20501 16.9079 1.13041 16.7983 1.07913 16.6774C1.02785 16.5564 1.00089 16.4266 0.999791 16.2953C0.998688 16.1639 1.02347 16.0337 1.07271 15.9119C1.12195 15.7901 1.19469 15.6793 1.28678 15.5856C1.37887 15.492 1.4885 15.4174 1.60942 15.3661C1.73034 15.3148 1.86017 15.2879 1.99151 15.2868C2.12285 15.2857 2.25311 15.3104 2.37487 15.3597C2.49664 15.4089 2.60751 15.4817 2.70116 15.5738L6.79991 19.5988L17.2999 9.28625C17.4892 9.10027 17.7446 8.9971 18.01 8.99945C18.1414 9.00061 18.2713 9.02764 18.3922 9.07899C18.5132 9.13035 18.6228 9.20502 18.7149 9.29875C18.807 9.39248 18.8797 9.50344 18.9289 9.62527C18.9781 9.74711 19.0029 9.87745 19.0017 10.0088C19.0005 10.1402 18.9735 10.2701 18.9222 10.3911C18.8708 10.512 18.7961 10.6217 18.7024 10.7138H18.7012ZM30.7137 9.29875C30.6216 9.20495 30.512 9.13021 30.391 9.07881C30.2701 9.02741 30.1402 9.00036 30.0087 8.9992C29.8773 8.99804 29.747 9.02279 29.6251 9.07205C29.5033 9.1213 29.3923 9.19409 29.2987 9.28625L18.7987 19.5988L16.4449 17.2863C16.2556 17.1004 16.0002 16.9974 15.735 16.9999C15.4698 17.0023 15.2163 17.1101 15.0305 17.2994C14.8447 17.4887 14.7417 17.744 14.7442 18.0093C14.7466 18.2745 14.8544 18.5279 15.0437 18.7138L18.0974 21.7138C18.2844 21.8977 18.5363 22.0008 18.7987 22.0008C19.061 22.0008 19.3129 21.8977 19.4999 21.7138L30.6999 10.7138C30.7938 10.6218 30.8686 10.5122 30.9201 10.3913C30.9716 10.2704 30.9988 10.1405 31.0001 10.0091C31.0014 9.87769 30.9767 9.74731 30.9276 9.62542C30.8784 9.50353 30.8057 9.39253 30.7137 9.29875Z" fill="#41F797"/>
</svg>
