<svg width="6" height="20" viewBox="0 0 6 20" fill="none" xmlns="http://www.w3.org/2000/svg">
<path d="M4.93846 2L4.58462 12.9466H1.42308L1.06923 2H4.93846ZM3 18C2.45128 18 1.97949 17.8048 1.58462 17.4145C1.19487 17.0242 1 16.5518 1 15.9971C1 15.4527 1.19487 14.988 1.58462 14.6028C1.97949 14.2125 2.45128 14.0173 3 14.0173C3.52821 14.0173 3.99231 14.2125 4.39231 14.6028C4.79744 14.988 5 15.4527 5 15.9971C5 16.3669 4.90513 16.7033 4.71538 17.0063C4.53077 17.3093 4.28718 17.5506 3.98462 17.7304C3.68718 17.9101 3.35897 18 3 18Z" fill="#FF2847"/>
</svg>
