<svg width="40" height="40" viewBox="0 0 40 40" fill="none" xmlns="http://www.w3.org/2000/svg">
<path d="M36.9179 0H28.034C27.2171 0.00079906 26.434 0.326038 25.8564 0.904336C25.2788 1.48264 24.9539 2.26675 24.9531 3.08458V5.73455C24.9571 6.88702 25.4172 7.99091 26.2325 8.80442C27.0479 9.61792 28.152 10.0747 29.3031 10.0747H39.9987V3.08458C39.9987 2.2665 39.6741 1.48193 39.0964 0.903454C38.5186 0.324982 37.735 0 36.9179 0Z" fill="#FF2847"/>
<path d="M10.6986 30.2633H0V37.8088C0 38.3859 0.228992 38.9394 0.6366 39.3475C1.04421 39.7556 1.59704 39.9849 2.17349 39.9849H12.8721C13.4486 39.9849 14.0014 39.7556 14.409 39.3475C14.8166 38.9394 15.0456 38.3859 15.0456 37.8088V34.6155C15.0448 33.4615 14.5866 32.355 13.7715 31.5389C12.9565 30.7229 11.8513 30.2641 10.6986 30.2633Z" fill="#FF2847"/>
<path d="M35.653 19.9623H29.9254L18.2109 19.9894C17.7961 19.9918 17.3849 19.9121 17.0009 19.7548C16.617 19.5975 16.2679 19.3658 15.9738 19.073C15.6796 18.7801 15.4462 18.432 15.2869 18.0485C15.1276 17.665 15.0456 17.2538 15.0456 16.8385V4.35524C15.0456 3.20068 14.5877 2.09337 13.7726 1.27669C12.9574 0.460008 11.8518 0.00080011 10.6986 0L3.08087 0C2.26401 0.00079906 1.48085 0.326038 0.903246 0.904336C0.325645 1.48264 0.000798097 2.26675 0 3.08458L0 15.6946C0.00319341 16.8473 0.463 17.9516 1.27852 18.7653C2.09404 19.579 3.19866 20.0355 4.34999 20.0347H11.8864C12.3008 20.0335 12.7114 20.1142 13.0947 20.2722C13.4779 20.4302 13.8262 20.6623 14.1197 20.9553C14.4132 21.2483 14.6461 21.5964 14.8049 21.9796C14.9638 22.3629 15.0456 22.7738 15.0456 23.1887V25.564C15.0467 25.9452 15.1109 26.3236 15.2355 26.6838C15.6004 27.6624 16.2586 28.5041 17.1199 29.0936C17.9812 29.6831 19.0035 29.9915 20.0467 29.9766H22.0393C22.7587 30.019 23.4414 30.3085 23.9724 30.7961C24.5034 31.2838 24.8502 31.9399 24.9544 32.6537V35.6448C24.9544 36.7998 25.4127 37.9076 26.2285 38.7244C27.0443 39.5411 28.1507 40 29.3044 40H40V24.3054C39.9968 23.153 39.5375 22.0488 38.7227 21.2347C37.9079 20.4206 36.8041 19.9631 35.653 19.9623Z" fill="#FF2847"/>
</svg>
