<svg width="20" height="20" viewBox="0 0 20 20" fill="none" xmlns="http://www.w3.org/2000/svg">
<g clip-path="url(#clip0_1462_676)">
<g clip-path="url(#clip1_1462_676)">
<path d="M18.4589 0H14.017C13.6086 0.00039953 13.217 0.163019 12.9282 0.452168C12.6394 0.741318 12.477 1.13337 12.4766 1.54229V2.86728C12.4786 3.44351 12.7086 3.99546 13.1163 4.40221C13.5239 4.80896 14.076 5.03735 14.6516 5.03735H19.9994V1.54229C19.9994 1.13325 19.8371 0.740963 19.5482 0.451727C19.2593 0.162491 18.8675 0 18.4589 0Z" fill="white" fill-opacity="0.5"/>
<path d="M5.34931 15.1317H0V18.9044C0 19.193 0.114496 19.4698 0.3183 19.6738C0.522104 19.8779 0.798521 19.9925 1.08674 19.9925H6.43605C6.72428 19.9925 7.00069 19.8779 7.2045 19.6738C7.4083 19.4698 7.5228 19.193 7.5228 18.9044V17.3078C7.5224 16.7308 7.29328 16.1775 6.88576 15.7695C6.47824 15.3615 5.92563 15.1321 5.34931 15.1317Z" fill="white" fill-opacity="0.5"/>
<path d="M17.8265 9.98114H14.9627L9.10543 9.99472C8.89803 9.99591 8.69243 9.95604 8.50047 9.8774C8.30851 9.79876 8.13397 9.6829 7.98688 9.53648C7.8398 9.39006 7.72308 9.21598 7.64344 9.02424C7.56379 8.8325 7.52279 8.62689 7.5228 8.41923V2.17762C7.5228 1.60034 7.29385 1.04668 6.88629 0.638343C6.47872 0.230004 5.92589 0.000400055 5.34931 0L1.54043 0C1.13201 0.00039953 0.740424 0.163019 0.451623 0.452168C0.162822 0.741318 0.000399048 1.13337 0 1.54229L0 7.84728C0.00159671 8.42364 0.2315 8.97582 0.639261 9.38266C1.04702 9.78949 1.59933 10.0178 2.17499 10.0174H5.94318C6.1504 10.0168 6.35571 10.0571 6.54733 10.1361C6.73895 10.2151 6.91312 10.3311 7.05986 10.4776C7.2066 10.6241 7.32303 10.7982 7.40247 10.9898C7.48191 11.1814 7.5228 11.3869 7.5228 11.5944V12.782C7.52334 12.9726 7.55543 13.1618 7.61776 13.3419C7.80019 13.8312 8.12928 14.2521 8.55994 14.5468C8.9906 14.8416 9.50175 14.9958 10.0234 14.9883H11.0197C11.3793 15.0095 11.7207 15.1542 11.9862 15.3981C12.2517 15.6419 12.4251 15.9699 12.4772 16.3269V17.8224C12.4772 18.3999 12.7064 18.9538 13.1142 19.3622C13.5221 19.7706 14.0754 20 14.6522 20H20V12.1527C19.9984 11.5765 19.7688 11.0244 19.3614 10.6173C18.954 10.2103 18.4021 9.98153 17.8265 9.98114Z" fill="white" fill-opacity="0.5"/>
</g>
</g>
<defs>
<clipPath id="clip0_1462_676">
<rect width="20" height="20" fill="white"/>
</clipPath>
<clipPath id="clip1_1462_676">
<rect width="20" height="20" fill="white"/>
</clipPath>
</defs>
</svg>
