<svg width="150" height="40" viewBox="0 0 150 40" fill="none" xmlns="http://www.w3.org/2000/svg">
<path d="M66.5606 21.8939V32.5059H60.6151V22.9382C60.6151 21.0669 59.7196 19.4371 57.699 19.4371C55.6783 19.4371 54.8516 21.0669 54.8516 22.9382V32.5059H48.918V7.88049H52.8787C53.4019 7.88049 53.9037 8.09068 54.2737 8.46482C54.6437 8.83896 54.8516 9.3464 54.8516 9.87551V16.6C55.8813 15.1453 57.5617 14.1372 59.9256 14.1372C63.5311 14.1221 66.5606 16.3767 66.5606 21.8939Z" fill="#FBFBFF"/>
<path d="M68.707 23.4875C68.707 17.3485 73.5423 14.1311 78.2432 14.1311C82.9441 14.1311 87.7495 17.3485 87.7495 23.4875C87.7495 29.6265 82.9143 32.8438 78.2492 32.8438C73.5841 32.8438 68.707 29.6265 68.707 23.4875ZM81.9114 23.4875C81.9114 21.0941 80.2668 19.5005 78.2432 19.5005C76.2195 19.5005 74.5392 21.0941 74.5392 23.4875C74.5392 25.8809 76.1837 27.4654 78.2432 27.4654C80.3026 27.4654 81.9114 25.8809 81.9114 23.4875Z" fill="#FBFBFF"/>
<path d="M97.6008 26.2975L95.8518 28.2744V32.4998H89.9062V7.88049H93.867C94.3902 7.88049 94.892 8.09068 95.262 8.46482C95.632 8.83896 95.8399 9.3464 95.8399 9.87551V20.6082L101.054 14.4692H108.086L101.221 22.1716L108.802 32.5059H102.323L97.6008 26.2975Z" fill="#FBFBFF"/>
<path d="M127.569 16.4673V32.5059H121.635V30.3932C120.606 31.851 118.925 32.856 116.526 32.856C112.959 32.856 109.941 30.6014 109.941 25.0872V14.4692H115.875V24.0429C115.875 25.9172 116.77 27.547 118.788 27.547C120.743 27.547 121.635 25.9172 121.635 24.0429V14.4692H125.596C126.12 14.47 126.622 14.6809 126.991 15.0555C127.361 15.4301 127.569 15.9379 127.569 16.4673Z" fill="#FBFBFF"/>
<path d="M149.998 23.4875C149.998 29.8015 145.539 32.8439 141.528 32.8439C138.439 32.8439 136.752 31.1114 136.621 30.7975H136.52V39.0885H130.586V14.4692H136.52V16.1684H136.621C136.758 15.8666 138.439 14.1221 141.528 14.1221C145.539 14.1221 149.998 17.1765 149.998 23.4875ZM144.166 23.4875C144.166 20.9552 142.349 19.4311 140.286 19.4311C138.158 19.4311 136.376 20.922 136.376 23.4875C136.376 26.053 138.167 27.547 140.286 27.547C142.349 27.547 144.16 26.0198 144.16 23.4875H144.166Z" fill="#FBFBFF"/>
<path d="M36.5533 0H27.7574C26.9486 0.00079906 26.1732 0.326038 25.6013 0.904336C25.0295 1.48264 24.7078 2.26675 24.707 3.08458V5.73455C24.711 6.88702 25.1665 7.99091 25.9738 8.80442C26.781 9.61792 27.8743 10.0747 29.014 10.0747H39.6037V3.08458C39.6037 2.2665 39.2823 1.48193 38.7103 0.903454C38.1382 0.324982 37.3624 0 36.5533 0Z" fill="#FF2847"/>
<path d="M10.5927 30.2633H0V37.8088C0 38.3859 0.226725 38.9394 0.630299 39.3475C1.03387 39.7556 1.58124 39.9849 2.15198 39.9849H12.7447C13.3155 39.9849 13.8628 39.7556 14.2664 39.3475C14.67 38.9394 14.8967 38.3859 14.8967 37.8088V34.6155C14.8959 33.4615 14.4422 32.355 13.6352 31.5389C12.8282 30.7229 11.734 30.2641 10.5927 30.2633Z" fill="#FF2847"/>
<path d="M35.3002 19.9623H29.6292L18.0306 19.9894C17.6199 19.9918 17.2128 19.9121 16.8327 19.7548C16.4526 19.5975 16.1069 19.3658 15.8157 19.073C15.5244 18.7801 15.2933 18.432 15.1356 18.0485C14.9779 17.665 14.8967 17.2538 14.8967 16.8385V4.35524C14.8967 3.20068 14.4433 2.09337 13.6363 1.27669C12.8292 0.460008 11.7345 0.00080011 10.5927 0L3.05037 0C2.24161 0.00079906 1.46619 0.326038 0.894307 0.904336C0.322422 1.48264 0.000790198 2.26675 0 3.08458L0 15.6946C0.00316181 16.8473 0.458418 17.9516 1.26587 18.7653C2.07332 19.579 3.16701 20.0355 4.30694 20.0347H11.7687C12.1791 20.0335 12.5856 20.1142 12.9651 20.2722C13.3445 20.4302 13.6894 20.6623 13.98 20.9553C14.2706 21.2483 14.5011 21.5964 14.6584 21.9796C14.8157 22.3629 14.8967 22.7738 14.8967 23.1887V25.564C14.8978 25.9452 14.9613 26.3236 15.0847 26.6838C15.446 27.6624 16.0977 28.5041 16.9505 29.0936C17.8032 29.6831 18.8154 29.9915 19.8483 29.9766H21.8212C22.5334 30.019 23.2094 30.3085 23.7351 30.7961C24.2609 31.2838 24.6043 31.9399 24.7074 32.6537V35.6448C24.7074 36.7998 25.1612 37.9076 25.9689 38.7244C26.7766 39.5411 27.8721 40 29.0144 40H39.6041V24.3054C39.601 23.153 39.1462 22.0488 38.3395 21.2347C37.5328 20.4206 36.4399 19.9631 35.3002 19.9623Z" fill="#FF2847"/>
</svg>
